<svg width="42" height="42" viewBox="0 0 42 42" fill="none" xmlns="http://www.w3.org/2000/svg">
<path d="M18.0083 6.75501L3.18583 31.5C2.88022 32.0292 2.71852 32.6293 2.71681 33.2404C2.7151 33.8515 2.87344 34.4525 3.17608 34.9834C3.47871 35.5144 3.9151 35.9568 4.44182 36.2667C4.96854 36.5767 5.56723 36.7433 6.17833 36.75H35.8233C36.4344 36.7433 37.0331 36.5767 37.5598 36.2667C38.0866 35.9568 38.523 35.5144 38.8256 34.9834C39.1282 34.4525 39.2866 33.8515 39.2849 33.2404C39.2831 32.6293 39.1214 32.0292 38.8158 31.5L23.9933 6.75501C23.6814 6.24069 23.2421 5.81547 22.7179 5.52035C22.1938 5.22524 21.6024 5.07021 21.0008 5.07021C20.3993 5.07021 19.8079 5.22524 19.2837 5.52035C18.7596 5.81547 18.3203 6.24069 18.0083 6.75501Z" stroke="#3A3F67" stroke-width="2" stroke-linecap="round" stroke-linejoin="round"/>
<path d="M21 15.75V22.75" stroke="#3A3F67" stroke-width="2" stroke-linecap="round" stroke-linejoin="round"/>
<path d="M21 29.75H21.0175" stroke="#3A3F67" stroke-width="2" stroke-linecap="round" stroke-linejoin="round"/>
</svg>
