<svg width="27" height="29" viewBox="0 0 27 29" fill="none" xmlns="http://www.w3.org/2000/svg">
<path d="M7.65822 28.0344C6.30923 28.0317 4.9913 27.6636 3.8706 26.9767C2.7499 26.2897 1.87658 25.3146 1.36074 24.1743C0.844909 23.034 0.709644 21.7794 0.972004 20.5689C1.23436 19.3583 1.8826 18.2459 2.835 17.3719L14.4217 6.75938C14.803 6.41056 15.2556 6.13386 15.7538 5.94508C16.252 5.75629 16.7859 5.65913 17.3252 5.65913C17.8644 5.65913 18.3983 5.75629 18.8965 5.94508C19.3947 6.13386 19.8474 6.41056 20.2287 6.75938C20.61 7.10821 20.9124 7.52232 21.1188 7.97808C21.3251 8.43384 21.4313 8.92232 21.4313 9.41563C21.4313 9.90895 21.3251 10.3974 21.1188 10.8532C20.9124 11.3089 20.61 11.7231 20.2287 12.0719L8.62833 22.6719C8.50584 22.8027 8.35511 22.909 8.18559 22.984C8.01608 23.0591 7.83144 23.1012 7.64327 23.1079C7.45509 23.1145 7.26745 23.0855 7.09211 23.0227C6.91677 22.9598 6.75753 22.8645 6.62437 22.7427C6.49122 22.6209 6.38702 22.4752 6.31833 22.3148C6.24963 22.1544 6.21793 21.9827 6.22519 21.8106C6.23246 21.6384 6.27855 21.4695 6.36056 21.3144C6.44258 21.1593 6.55874 21.0214 6.70178 20.9094L18.2884 10.2969C18.5123 10.0578 18.6293 9.75016 18.616 9.43557C18.6027 9.12097 18.4601 8.82255 18.2168 8.59993C17.9735 8.37731 17.6473 8.2469 17.3034 8.23474C16.9595 8.22259 16.6233 8.3296 16.3619 8.53438L4.76156 19.1344C3.9915 19.8389 3.55889 20.7943 3.55889 21.7906C3.55889 22.7869 3.9915 23.7424 4.76156 24.4469C5.53161 25.1514 6.57603 25.5471 7.66505 25.5471C8.75408 25.5471 9.7985 25.1514 10.5686 24.4469L22.1552 13.8344C23.3997 12.6556 24.0883 11.0769 24.0727 9.43813C24.0572 7.7994 23.3387 6.23182 22.072 5.07302C20.8053 3.91422 19.0918 3.25691 17.3006 3.24267C15.5093 3.22843 13.7836 3.85839 12.4951 4.99688L5.73167 11.2469C5.47566 11.4797 5.12936 11.6104 4.76839 11.6104C4.40742 11.6104 4.06111 11.4797 3.80511 11.2469C3.67704 11.1307 3.57539 10.9924 3.50603 10.8401C3.43666 10.6878 3.40095 10.5244 3.40095 10.3594C3.40095 10.1944 3.43666 10.031 3.50603 9.87866C3.57539 9.72634 3.67704 9.58809 3.80511 9.47188L10.5686 3.22188C12.3623 1.58086 14.7952 0.658936 17.332 0.658936C19.8688 0.658936 22.3017 1.58086 24.0954 3.22188C25.8892 4.86291 26.897 7.08862 26.897 9.40938C26.897 11.7301 25.8892 13.9559 24.0954 15.5969L12.4951 26.2094C11.8595 26.7894 11.1052 27.2491 10.2752 27.5623C9.44526 27.8754 8.55598 28.0359 7.65822 28.0344Z" fill="#A098AE"/>
</svg>
