<svg width="16" height="19" viewBox="0 0 16 19" fill="none" xmlns="http://www.w3.org/2000/svg">
<path d="M13.3328 10.7142V7.88757C13.3315 6.62812 12.8846 5.40976 12.0711 4.44826C11.2577 3.48675 10.1302 2.84414 8.88837 2.63424V1.66535C8.88837 1.4296 8.79472 1.20351 8.62802 1.03681C8.46132 0.870109 8.23523 0.776459 7.99948 0.776459C7.76373 0.776459 7.53764 0.870109 7.37094 1.03681C7.20424 1.20351 7.11059 1.4296 7.11059 1.66535V2.63424C5.86876 2.84414 4.74128 3.48675 3.92782 4.44826C3.11436 5.40976 2.66742 6.62812 2.66614 7.88757V10.7142C2.14743 10.8976 1.69814 11.237 1.37987 11.6857C1.06159 12.1345 0.889913 12.6707 0.888367 13.2209V14.9987C0.888367 15.2344 0.982017 15.4605 1.14872 15.6272C1.31542 15.7939 1.54151 15.8876 1.77726 15.8876H4.56837C4.77306 16.6408 5.21992 17.3057 5.84001 17.7798C6.46009 18.2538 7.21894 18.5107 7.99948 18.5107C8.78001 18.5107 9.53886 18.2538 10.1589 17.7798C10.779 17.3057 11.2259 16.6408 11.4306 15.8876H14.2217C14.4574 15.8876 14.6835 15.7939 14.8502 15.6272C15.0169 15.4605 15.1106 15.2344 15.1106 14.9987V13.2209C15.109 12.6707 14.9374 12.1345 14.6191 11.6857C14.3008 11.237 13.8515 10.8976 13.3328 10.7142ZM4.44392 7.88757C4.44392 6.94458 4.81852 6.04021 5.48532 5.37341C6.15212 4.70662 7.05649 4.33201 7.99948 4.33201C8.94247 4.33201 9.84684 4.70662 10.5136 5.37341C11.1804 6.04021 11.555 6.94458 11.555 7.88757V10.5542H4.44392V7.88757ZM7.99948 16.7765C7.68923 16.7746 7.38488 16.6916 7.11666 16.5356C6.84845 16.3797 6.62571 16.1563 6.47059 15.8876H9.52837C9.37325 16.1563 9.15051 16.3797 8.88229 16.5356C8.61408 16.6916 8.30972 16.7746 7.99948 16.7765ZM13.3328 14.1098H2.66614V13.2209C2.66614 12.9852 2.7598 12.7591 2.92649 12.5924C3.09319 12.4257 3.31929 12.332 3.55503 12.332H12.4439C12.6797 12.332 12.9058 12.4257 13.0725 12.5924C13.2392 12.7591 13.3328 12.9852 13.3328 13.2209V14.1098Z" fill="#363B64"/>
</svg>
