<svg width="395" height="207" viewBox="0 0 395 207" fill="none" xmlns="http://www.w3.org/2000/svg">
<g clip-path="url(#clip0)">
<path d="M359.356 79.5963C364.933 89.4736 367.491 100.8 367.43 112.102C367.344 123.308 364.865 134.366 360.159 144.537C355.903 153.72 349.973 162.03 342.673 169.041C335.468 176.037 326.919 181.498 317.543 185.094C306.663 189.172 294.896 190.29 283.443 188.334C281.852 188.061 280.273 187.729 278.705 187.34C277.754 187.105 277.348 188.573 278.301 188.808C290.218 191.762 302.717 191.402 314.445 187.768C324.214 184.625 333.227 179.498 340.92 172.707C348.709 165.897 355.15 157.686 359.908 148.5C365.115 138.442 368.153 127.404 368.825 116.099C369.49 104.627 367.567 92.9501 362.605 82.5435C362.004 81.2825 361.359 80.044 360.67 78.8281C360.565 78.6612 360.399 78.5417 360.207 78.4949C360.015 78.4481 359.812 78.4777 359.642 78.5773C359.471 78.6769 359.346 78.8389 359.293 79.029C359.24 79.2191 359.262 79.4225 359.356 79.5963H359.356Z" fill="white"/>
<path d="M278.581 25.683C284.764 37.0817 289.583 49.1695 292.937 61.6961C299.652 86.7852 300.663 113.059 295.896 138.59C293.517 151.346 289.636 163.776 284.335 175.619C279.048 187.363 271.438 199.736 258.438 203.848C256.971 204.31 255.467 204.646 253.943 204.853C252.977 204.986 253.389 206.453 254.348 206.321C267.795 204.475 277.139 193.304 282.999 181.915C289.063 170.132 293.38 157.337 296.251 144.418C301.942 118.64 301.737 91.911 295.653 66.224C292.63 53.4276 288.112 41.0312 282.193 29.2905C281.449 27.8202 280.683 26.3616 279.895 24.9148C279.427 24.0541 278.112 24.8215 278.581 25.683V25.683Z" fill="white"/>
<path d="M214.934 23.4693H123.814C121.965 23.4717 120.192 24.2074 118.884 25.5152C117.576 26.8229 116.84 28.5959 116.838 30.4454V76.1019H130.861C131.887 76.0991 132.896 76.3581 133.794 76.8544C134.691 77.3507 135.447 78.0679 135.99 78.938L140.851 86.6751L145.498 94.0672L146.371 95.4573L151.688 103.915L151.749 104.011H221.91V30.4453C221.908 28.5959 221.172 26.8229 219.864 25.5152C218.557 24.2074 216.784 23.4717 214.934 23.4693Z" fill="#CCCCCC"/>
<path d="M178.816 37.4265H133.667C132.47 37.4265 131.322 37.902 130.476 38.7483C129.629 39.5946 129.154 40.7425 129.154 41.9394C129.154 43.1363 129.629 44.2842 130.476 45.1305C131.322 45.9768 132.47 46.4523 133.667 46.4523H178.816C180.013 46.4523 181.161 45.9768 182.007 45.1305C182.853 44.2842 183.329 43.1363 183.329 41.9394C183.329 40.7425 182.853 39.5946 182.007 38.7483C181.161 37.902 180.013 37.4265 178.816 37.4265Z" fill="white"/>
<path d="M203.854 59.5876H134.078C132.771 59.5876 131.518 60.1066 130.594 61.0305C129.67 61.9544 129.151 63.2074 129.151 64.514C129.151 65.8205 129.67 67.0736 130.594 67.9975C131.518 68.9213 132.771 69.4404 134.078 69.4404H203.854C205.16 69.4404 206.413 68.9213 207.337 67.9975C208.261 67.0736 208.78 65.8205 208.78 64.514C208.78 63.2074 208.261 61.9544 207.337 61.0305C206.413 60.1066 205.16 59.5876 203.854 59.5876Z" fill="white"/>
<path d="M208.308 79.6635C207.912 78.8165 207.282 78.1 206.493 77.5977C205.704 77.0954 204.789 76.8283 203.854 76.8274H134.078C133.971 76.8274 133.87 76.8325 133.763 76.8376C134.673 77.335 135.441 78.0583 135.99 78.938L140.851 86.6751H203.854C204.682 86.6753 205.497 86.4663 206.223 86.0675C206.95 85.6686 207.563 85.0928 208.008 84.3935C208.452 83.6941 208.713 82.8939 208.765 82.0671C208.818 81.2402 208.66 80.4134 208.308 79.6635Z" fill="white"/>
<path d="M208.729 98.3289C208.569 97.1493 207.987 96.0677 207.09 95.2843C206.194 94.5008 205.044 94.0684 203.854 94.0672H145.498L146.371 95.4573L151.688 103.915H203.854C204.879 103.917 205.878 103.596 206.71 102.997C207.349 102.541 207.87 101.94 208.229 101.243C208.588 100.546 208.775 99.7728 208.775 98.9885C208.775 98.7678 208.76 98.5474 208.729 98.3289Z" fill="white"/>
<path d="M264.426 62.789L257.323 60.0138L221.91 46.1935L179.541 29.659C177.817 28.9897 175.897 29.0315 174.203 29.7752C172.51 30.5189 171.18 31.9039 170.505 33.6264L169.024 37.4265L165.498 46.4523L160.374 59.5876L156.528 69.4404L153.646 76.8274L149.8 86.6751L146.914 94.0672L146.833 94.2803L146.371 95.4573L151.688 103.915L151.749 104.011H250.231C251.135 104.01 252.027 104.212 252.843 104.602C253.659 104.992 254.377 105.56 254.944 106.264L255.36 105.209L260.444 92.19L268.389 71.83C269.059 70.1054 269.019 68.1853 268.276 66.4905C267.533 64.7957 266.149 63.4646 264.426 62.789Z" fill="#4267B2"/>
<path d="M225.705 62.6571L221.91 61.1756L183.646 46.2443C182.53 45.8125 181.289 45.8395 180.193 46.3195C179.097 46.7995 178.235 47.6935 177.796 48.8064C177.364 49.9228 177.391 51.165 177.872 52.2612C178.353 53.3575 179.249 54.2186 180.363 54.6561L193.001 59.5876L208.633 65.686L221.91 70.8711L222.423 71.069C223.538 71.5018 224.779 71.4746 225.874 70.9932C226.969 70.5119 227.828 69.6157 228.263 68.5015C228.697 67.3873 228.672 66.1461 228.193 65.0503C227.713 63.9546 226.819 63.0938 225.705 62.6571Z" fill="white"/>
<path d="M240.967 92.4082L221.91 84.9704L208.308 79.6635L201.043 76.8274L182.119 69.4404L175.97 67.0406C174.823 66.5927 173.549 66.5907 172.401 67.0349C171.252 67.479 170.312 68.3372 169.765 69.4404C169.704 69.5672 169.643 69.6991 169.592 69.8361C169.357 70.4384 169.243 71.0812 169.256 71.7276C169.269 72.3741 169.409 73.0117 169.669 73.6039C169.929 74.1961 170.302 74.7314 170.769 75.1791C171.235 75.6269 171.786 75.9784 172.388 76.2135L173.961 76.8274L199.186 86.6751L221.91 95.5436L237.385 101.586C237.954 101.808 238.559 101.922 239.17 101.921C240.319 101.923 241.433 101.523 242.318 100.791C243.204 100.058 243.805 99.0393 244.018 97.9103C244.231 96.7812 244.043 95.6131 243.486 94.6083C242.928 93.6035 242.037 92.8252 240.966 92.4082H240.967Z" fill="white"/>
<path d="M221.91 103.473L220.688 102.997L208.729 98.3289L197.806 94.0672L178.862 86.6751L169.699 83.0983C169.096 82.8625 168.453 82.7478 167.805 82.7608C167.158 82.7738 166.52 82.9143 165.927 83.1742C165.334 83.434 164.798 83.8083 164.35 84.2754C163.902 84.7425 163.55 85.2934 163.315 85.8966C163.08 86.4997 162.967 87.1433 162.98 87.7904C162.994 88.4376 163.136 89.0757 163.396 89.6683C163.657 90.2608 164.032 90.7961 164.5 91.2436C164.967 91.6911 165.519 92.042 166.122 92.2763L170.709 94.0672L193.59 102.997L195.944 103.915L196.188 104.011H223.285L221.91 103.473Z" fill="white"/>
<path d="M175.625 103.915L173.271 102.997L163.433 99.1559C162.746 98.8867 162.007 98.7757 161.271 98.831C160.535 98.8863 159.82 99.1065 159.181 99.4754C158.542 99.8443 157.994 100.352 157.577 100.962C157.161 101.571 156.887 102.267 156.777 102.997C156.728 103.3 156.709 103.608 156.721 103.915C156.72 103.947 156.722 103.979 156.726 104.011H175.873L175.625 103.915Z" fill="white"/>
<path d="M195.944 103.915L193.59 102.997H156.776C156.728 103.3 156.709 103.608 156.721 103.915H151.688L151.749 104.011H196.188L195.944 103.915ZM195.944 103.915H151.688L151.749 104.011H196.188L195.944 103.915ZM195.944 103.915H151.688L151.749 104.011H196.188L195.944 103.915ZM196.188 104.011L195.944 103.915H151.688L151.749 104.011H196.188ZM107.396 205.608C105.79 205.606 104.251 204.967 103.115 203.831C101.98 202.696 101.341 201.156 101.338 199.551V82.1647C101.34 80.5581 101.978 79.0176 103.114 77.881C104.25 76.7444 105.79 76.1046 107.396 76.1019H116.838V75.0872H107.396C105.521 75.0907 103.723 75.8377 102.397 77.1644C101.072 78.491 100.326 80.2892 100.324 82.1647V199.551C100.325 200.907 100.717 202.235 101.452 203.376C102.187 204.516 103.234 205.422 104.469 205.984H193.854C193.773 205.862 193.691 205.735 193.61 205.608H107.396ZM255.36 105.209C254.701 104.509 253.906 103.953 253.024 103.572C252.142 103.192 251.191 102.996 250.231 102.997H152.312L146.833 94.2803L146.701 94.0672L142.053 86.6751L136.848 78.3951C136.21 77.3837 135.326 76.55 134.28 75.9716C133.233 75.3933 132.057 75.089 130.861 75.0872H107.396C105.521 75.0907 103.723 75.8377 102.397 77.1644C101.072 78.491 100.326 80.2892 100.324 82.1647V199.551C100.325 200.907 100.717 202.235 101.452 203.376C102.187 204.516 103.234 205.422 104.469 205.984C105.387 206.406 106.386 206.625 107.396 206.623H250.231C251.243 206.625 252.243 206.406 253.163 205.984C254.398 205.422 255.445 204.516 256.18 203.376C256.915 202.235 257.307 200.907 257.308 199.551V110.074C257.31 108.262 256.612 106.519 255.36 105.209ZM256.294 199.551C256.291 201.157 255.651 202.697 254.514 203.833C253.378 204.968 251.837 205.607 250.231 205.608H107.396C105.79 205.606 104.251 204.967 103.115 203.831C101.98 202.696 101.341 201.156 101.338 199.551V82.1647C101.34 80.5581 101.978 79.0176 103.114 77.881C104.25 76.7444 105.79 76.1046 107.396 76.1019H130.861C131.887 76.0991 132.896 76.3581 133.794 76.8544C134.691 77.3507 135.447 78.0679 135.99 78.938L140.851 86.6751L145.498 94.0672L146.371 95.4573L151.688 103.915L151.749 104.011H250.231C251.838 104.013 253.38 104.652 254.516 105.789C255.653 106.925 256.292 108.467 256.294 110.074V199.551ZM195.944 103.915H151.688L151.749 104.011H196.188L195.944 103.915ZM195.944 103.915H151.688L151.749 104.011H196.188L195.944 103.915ZM195.944 103.915H151.688L151.749 104.011H196.188L195.944 103.915ZM195.944 103.915L193.59 102.997H152.312L146.833 94.2803L146.371 95.4573L151.688 103.915L151.749 104.011H196.188L195.944 103.915Z" fill="#3F3D56"/>
</g>
<defs>
<clipPath id="clip0">
<rect width="394.212" height="206.998" fill="white"/>
</clipPath>
</defs>
</svg>
