<svg width="84" height="108" viewBox="0 0 84 108" fill="none" xmlns="http://www.w3.org/2000/svg">
<circle cx="42.0002" cy="42.0651" r="41.5299" fill="#F1F1F1"/>
<rect x="25.708" y="41.2189" width="40.6587" height="56.9222" rx="4.06587" transform="rotate(2.5 25.708 41.2189)" fill="#EEEEEE" stroke="#999999" stroke-width="1.16168"/>
<rect x="1.53655" y="37.8124" width="42.982" height="59.2455" rx="5.22754" transform="rotate(-7.5 1.53655 37.8124)" fill="#FAFAFA" stroke="#999999" stroke-width="1.16168"/>
<path d="M2.79499 42.9195C2.46002 40.3751 4.25108 38.041 6.79543 37.706L39.0441 33.4604C41.5884 33.1254 43.9226 34.9165 44.2576 37.4608L45.3948 46.0988L3.93221 51.5575L2.79499 42.9195Z" fill="#EEEEEE"/>
<rect x="52.668" y="34.5977" width="1.74251" height="5.80838" rx="0.871257" transform="rotate(82.5 52.668 34.5977)" fill="#999999"/>
<rect x="36.7549" y="24.9766" width="1.74251" height="5.80838" rx="0.871257" transform="rotate(-7.5 36.7549 24.9766)" fill="#999999"/>
<rect x="46.9648" y="26.5625" width="1.74251" height="5.80838" rx="0.871257" transform="rotate(37.5 46.9648 26.5625)" fill="#999999"/>
<rect x="8.26636" y="53.332" width="33.6886" height="2.32335" rx="1.16168" transform="rotate(-7.5 8.26636 53.332)" fill="#DCDCDC"/>
<rect x="9.78271" y="64.8477" width="33.6886" height="2.32335" rx="1.16168" transform="rotate(-7.5 9.78271 64.8477)" fill="#DCDCDC"/>
<rect x="11.2991" y="76.3672" width="33.6886" height="2.32335" rx="1.16168" transform="rotate(-7.5 11.2991 76.3672)" fill="#DCDCDC"/>
<rect x="8.8728" y="57.9414" width="12.1976" height="2.32335" rx="1.16168" transform="rotate(-7.5 8.8728 57.9414)" fill="#EEEEEE"/>
<rect x="10.3892" y="69.457" width="12.1976" height="2.32335" rx="1.16168" transform="rotate(-7.5 10.3892 69.457)" fill="#EEEEEE"/>
<rect x="11.9055" y="80.9727" width="12.1976" height="2.32335" rx="1.16168" transform="rotate(-7.5 11.9055 80.9727)" fill="#EEEEEE"/>
</svg>
