<svg width="20" height="20" viewBox="0 0 20 20" fill="none" xmlns="http://www.w3.org/2000/svg">
<path d="M10.0002 12C10.198 12 10.3914 11.9414 10.5558 11.8315C10.7203 11.7216 10.8484 11.5654 10.9241 11.3827C10.9998 11.2 11.0196 10.9989 10.981 10.8049C10.9424 10.6109 10.8472 10.4327 10.7074 10.2929C10.5675 10.153 10.3893 10.0578 10.1953 10.0192C10.0014 9.98063 9.80029 10.0004 9.61756 10.0761C9.43484 10.1518 9.27866 10.28 9.16878 10.4444C9.05889 10.6089 9.00025 10.8022 9.00025 11C9.00025 11.2652 9.1056 11.5196 9.29314 11.7071C9.48067 11.8946 9.73503 12 10.0002 12ZM15.0002 12C15.198 12 15.3914 11.9414 15.5558 11.8315C15.7203 11.7216 15.8484 11.5654 15.9241 11.3827C15.9998 11.2 16.0196 10.9989 15.981 10.8049C15.9424 10.6109 15.8472 10.4327 15.7074 10.2929C15.5675 10.153 15.3893 10.0578 15.1953 10.0192C15.0014 9.98063 14.8003 10.0004 14.6176 10.0761C14.4348 10.1518 14.2787 10.28 14.1688 10.4444C14.0589 10.6089 14.0002 10.8022 14.0002 11C14.0002 11.2652 14.1056 11.5196 14.2931 11.7071C14.4807 11.8946 14.735 12 15.0002 12ZM10.0002 16C10.198 16 10.3914 15.9414 10.5558 15.8315C10.7203 15.7216 10.8484 15.5654 10.9241 15.3827C10.9998 15.2 11.0196 14.9989 10.981 14.8049C10.9424 14.6109 10.8472 14.4327 10.7074 14.2929C10.5675 14.153 10.3893 14.0578 10.1953 14.0192C10.0014 13.9806 9.80029 14.0004 9.61756 14.0761C9.43484 14.1518 9.27866 14.28 9.16878 14.4444C9.05889 14.6089 9.00025 14.8022 9.00025 15C9.00025 15.2652 9.1056 15.5196 9.29314 15.7071C9.48067 15.8946 9.73503 16 10.0002 16ZM15.0002 16C15.198 16 15.3914 15.9414 15.5558 15.8315C15.7203 15.7216 15.8484 15.5654 15.9241 15.3827C15.9998 15.2 16.0196 14.9989 15.981 14.8049C15.9424 14.6109 15.8472 14.4327 15.7074 14.2929C15.5675 14.153 15.3893 14.0578 15.1953 14.0192C15.0014 13.9806 14.8003 14.0004 14.6176 14.0761C14.4348 14.1518 14.2787 14.28 14.1688 14.4444C14.0589 14.6089 14.0002 14.8022 14.0002 15C14.0002 15.2652 14.1056 15.5196 14.2931 15.7071C14.4807 15.8946 14.735 16 15.0002 16ZM5.00024 12C5.19803 12 5.39137 11.9414 5.55581 11.8315C5.72026 11.7216 5.84844 11.5654 5.92412 11.3827C5.99981 11.2 6.01962 10.9989 5.98103 10.8049C5.94244 10.6109 5.8472 10.4327 5.70735 10.2929C5.5675 10.153 5.38932 10.0578 5.19533 10.0192C5.00135 9.98063 4.80029 10.0004 4.61756 10.0761C4.43484 10.1518 4.27866 10.28 4.16878 10.4444C4.05889 10.6089 4.00024 10.8022 4.00024 11C4.00024 11.2652 4.1056 11.5196 4.29314 11.7071C4.48067 11.8946 4.73503 12 5.00024 12ZM17.0002 2H16.0002V1C16.0002 0.734784 15.8949 0.48043 15.7074 0.292893C15.5198 0.105357 15.2655 0 15.0002 0C14.735 0 14.4807 0.105357 14.2931 0.292893C14.1056 0.48043 14.0002 0.734784 14.0002 1V2H6.00025V1C6.00025 0.734784 5.89489 0.48043 5.70735 0.292893C5.51981 0.105357 5.26546 0 5.00024 0C4.73503 0 4.48067 0.105357 4.29314 0.292893C4.1056 0.48043 4.00024 0.734784 4.00024 1V2H3.00024C2.20459 2 1.44153 2.31607 0.878924 2.87868C0.316315 3.44129 0.000244141 4.20435 0.000244141 5V17C0.000244141 17.7957 0.316315 18.5587 0.878924 19.1213C1.44153 19.6839 2.20459 20 3.00024 20H17.0002C17.7959 20 18.559 19.6839 19.1216 19.1213C19.6842 18.5587 20.0002 17.7957 20.0002 17V5C20.0002 4.20435 19.6842 3.44129 19.1216 2.87868C18.559 2.31607 17.7959 2 17.0002 2ZM18.0002 17C18.0002 17.2652 17.8949 17.5196 17.7074 17.7071C17.5198 17.8946 17.2655 18 17.0002 18H3.00024C2.73503 18 2.48067 17.8946 2.29314 17.7071C2.1056 17.5196 2.00024 17.2652 2.00024 17V8H18.0002V17ZM18.0002 6H2.00024V5C2.00024 4.73478 2.1056 4.48043 2.29314 4.29289C2.48067 4.10536 2.73503 4 3.00024 4H17.0002C17.2655 4 17.5198 4.10536 17.7074 4.29289C17.8949 4.48043 18.0002 4.73478 18.0002 5V6ZM5.00024 16C5.19803 16 5.39137 15.9414 5.55581 15.8315C5.72026 15.7216 5.84844 15.5654 5.92412 15.3827C5.99981 15.2 6.01962 14.9989 5.98103 14.8049C5.94244 14.6109 5.8472 14.4327 5.70735 14.2929C5.5675 14.153 5.38932 14.0578 5.19533 14.0192C5.00135 13.9806 4.80029 14.0004 4.61756 14.0761C4.43484 14.1518 4.27866 14.28 4.16878 14.4444C4.05889 14.6089 4.00024 14.8022 4.00024 15C4.00024 15.2652 4.1056 15.5196 4.29314 15.7071C4.48067 15.8946 4.73503 16 5.00024 16Z" fill="#FE9874"/>
</svg>
