<svg width="24" height="23" viewBox="0 0 24 23" fill="none" xmlns="http://www.w3.org/2000/svg">
<path d="M14.5499 5C15.5267 5.19057 16.4243 5.66826 17.128 6.37194C17.8317 7.07561 18.3094 7.97326 18.4999 8.95L14.5499 5ZM14.5499 1C16.5792 1.22544 18.4715 2.13417 19.9162 3.57701C21.3608 5.01984 22.2719 6.91101 22.4999 8.94L14.5499 1ZM21.4999 16.92V19.92C21.5011 20.1985 21.444 20.4742 21.3324 20.7293C21.2209 20.9845 21.0572 21.2136 20.852 21.4019C20.6468 21.5901 20.4045 21.7335 20.1407 21.8227C19.8769 21.9119 19.5973 21.9451 19.3199 21.92C16.2428 21.5856 13.2869 20.5341 10.6899 18.85C8.27376 17.3147 6.22527 15.2662 4.68993 12.85C2.99991 10.2412 1.94818 7.27099 1.61993 4.18C1.59494 3.90347 1.62781 3.62476 1.71643 3.36162C1.80506 3.09849 1.9475 2.85669 2.1347 2.65162C2.32189 2.44655 2.54974 2.28271 2.80372 2.17052C3.05771 2.05833 3.33227 2.00026 3.60993 2H6.60993C7.09524 1.99522 7.56572 2.16708 7.93369 2.48353C8.30166 2.79999 8.54201 3.23945 8.60993 3.72C8.73656 4.68007 8.97138 5.62273 9.30993 6.53C9.44448 6.88792 9.4736 7.27691 9.39384 7.65088C9.31408 8.02485 9.1288 8.36811 8.85993 8.64L7.58993 9.91C9.01349 12.4135 11.0864 14.4864 13.5899 15.91L14.8599 14.64C15.1318 14.3711 15.4751 14.1858 15.8491 14.1061C16.223 14.0263 16.612 14.0555 16.9699 14.19C17.8772 14.5286 18.8199 14.7634 19.7799 14.89C20.2657 14.9585 20.7093 15.2032 21.0265 15.5775C21.3436 15.9518 21.5121 16.4296 21.4999 16.92Z" stroke="#FCFCFC" stroke-width="2" stroke-linecap="round" stroke-linejoin="round"/>
</svg>
