<svg width="50" height="50" viewBox="0 0 50 50" fill="none" xmlns="http://www.w3.org/2000/svg">
<mask id="mask0_1310_1213" style="mask-type:alpha" maskUnits="userSpaceOnUse" x="0" y="0" width="50" height="50">
<circle cx="25" cy="25" r="25" fill="#F8F9FA"/>
</mask>
<g mask="url(#mask0_1310_1213)">
<circle cx="25" cy="25" r="25" fill="#FFB9B9"/>
<path fill-rule="evenodd" clip-rule="evenodd" d="M25 30.8796C30.7018 30.8796 35.3241 26.2573 35.3241 20.5555C35.3241 14.8537 30.7018 10.2314 25 10.2314C19.2982 10.2314 14.6759 14.8537 14.6759 20.5555C14.6759 26.2573 19.2982 30.8796 25 30.8796ZM49.7222 57.9166C49.7222 71.647 38.5915 82.7777 24.8611 82.7777C11.1307 82.7777 0 71.647 0 57.9166C0 44.1862 11.1307 33.0555 24.8611 33.0555C38.5915 33.0555 49.7222 44.1862 49.7222 57.9166ZM50 40.5092H116.25V87.2685H50V40.5092Z" fill="white"/>
</g>
</svg>
