<svg width="18" height="17" viewBox="0 0 18 17" fill="none" xmlns="http://www.w3.org/2000/svg">
<path d="M8.99984 3.5C8.8904 3.49997 8.78202 3.52151 8.6809 3.56338C8.57979 3.60525 8.48791 3.66663 8.41052 3.74402C8.33313 3.8214 8.27175 3.91328 8.22988 4.0144C8.18801 4.11552 8.16648 4.22389 8.16651 4.33333V7.98649L6.14096 9.00578C6.04322 9.05494 5.95613 9.12286 5.88465 9.20568C5.81317 9.2885 5.7587 9.38459 5.72435 9.48846C5.69001 9.59233 5.67646 9.70194 5.68447 9.81105C5.69249 9.92016 5.72192 10.0266 5.77108 10.1243C5.82024 10.2221 5.88817 10.3092 5.97098 10.3807C6.0538 10.4521 6.14989 10.5066 6.25376 10.541C6.35763 10.5753 6.46724 10.5888 6.57635 10.5808C6.68546 10.5728 6.79192 10.5434 6.88965 10.4942L9.37419 9.24423C9.51221 9.17497 9.62823 9.06868 9.70929 8.93724C9.79035 8.80581 9.83324 8.65442 9.83317 8.5V4.33333C9.8332 4.22389 9.81167 4.11552 9.7698 4.0144C9.72793 3.91328 9.66655 3.8214 9.58916 3.74402C9.51177 3.66663 9.4199 3.60525 9.31878 3.56338C9.21766 3.52151 9.10928 3.49997 8.99984 3.5ZM8.99984 0.166668C7.35166 0.166668 5.7405 0.655409 4.37009 1.57109C2.99968 2.48677 1.93158 3.78825 1.30084 5.31097C0.670115 6.83369 0.505087 8.50925 0.82663 10.1258C1.14817 11.7423 1.94185 13.2271 3.10728 14.3926C4.27272 15.558 5.75758 16.3517 7.37409 16.6732C8.9906 16.9948 10.6662 16.8297 12.1889 16.199C13.7116 15.5683 15.0131 14.5002 15.9288 13.1298C16.8444 11.7593 17.3332 10.1482 17.3332 8.5C17.3306 6.29064 16.4519 4.17249 14.8896 2.61024C13.3273 1.04798 11.2092 0.169196 8.99984 0.166668ZM8.99984 15.1667C7.6813 15.1667 6.39237 14.7757 5.29604 14.0431C4.19971 13.3106 3.34523 12.2694 2.84064 11.0512C2.33606 9.83305 2.20404 8.49261 2.46127 7.1994C2.71851 5.90619 3.35345 4.71831 4.2858 3.78596C5.21815 2.85361 6.40603 2.21867 7.69924 1.96143C8.99245 1.7042 10.3329 1.83622 11.5511 2.3408C12.7692 2.84539 13.8104 3.69987 14.543 4.7962C15.2755 5.89253 15.6665 7.18146 15.6665 8.5C15.6645 10.2675 14.9615 11.962 13.7117 13.2118C12.4618 14.4616 10.7673 15.1646 8.99984 15.1667Z" fill="#70504B"/>
</svg>
