<svg width="25" height="25" viewBox="0 0 25 25" fill="none" xmlns="http://www.w3.org/2000/svg">
<g clip-path="url(#clip0)">
<path d="M17.6301 21.8828V19.8828C17.6301 18.8219 17.2087 17.8045 16.4586 17.0544C15.7084 16.3042 14.691 15.8828 13.6301 15.8828H5.63013C4.56926 15.8828 3.55185 16.3042 2.8017 17.0544C2.05155 17.8045 1.63013 18.8219 1.63013 19.8828V21.8828" stroke="#4267B2" stroke-width="2" stroke-linecap="round" stroke-linejoin="round"/>
<path d="M9.63013 11.8828C11.8393 11.8828 13.6301 10.092 13.6301 7.88281C13.6301 5.67367 11.8393 3.88281 9.63013 3.88281C7.42099 3.88281 5.63013 5.67367 5.63013 7.88281C5.63013 10.092 7.42099 11.8828 9.63013 11.8828Z" stroke="#4267B2" stroke-width="2" stroke-linecap="round" stroke-linejoin="round"/>
<path d="M23.6301 21.8817V19.8817C23.6295 18.9954 23.3345 18.1345 22.7915 17.434C22.2485 16.7336 21.4883 16.2333 20.6301 16.0117" stroke="#4267B2" stroke-width="2" stroke-linecap="round" stroke-linejoin="round"/>
<path d="M16.6301 4.01172C17.4905 4.23202 18.2532 4.73242 18.7978 5.43403C19.3424 6.13564 19.638 6.99855 19.638 7.88672C19.638 8.77489 19.3424 9.6378 18.7978 10.3394C18.2532 11.041 17.4905 11.5414 16.6301 11.7617" stroke="#4267B2" stroke-width="2" stroke-linecap="round" stroke-linejoin="round"/>
</g>
<defs>
<clipPath id="clip0">
<rect width="24" height="24" fill="white" transform="translate(0.630127 0.882812)"/>
</clipPath>
</defs>
</svg>
