<svg width="24" height="6" viewBox="0 0 24 6" fill="none" xmlns="http://www.w3.org/2000/svg">
<path d="M11.6776 0.359955C11.3112 0.359955 10.9484 0.428271 10.6099 0.561004C10.2714 0.693737 9.96384 0.888286 9.70476 1.13354C9.44568 1.3788 9.24016 1.66997 9.09995 1.99041C8.95974 2.31086 8.88757 2.65431 8.88757 3.00115C8.88757 3.348 8.95974 3.69145 9.09995 4.0119C9.24016 4.33234 9.44568 4.62351 9.70476 4.86876C9.96384 5.11402 10.2714 5.30857 10.6099 5.44131C10.9484 5.57404 11.3112 5.64235 11.6776 5.64235C12.4176 5.64219 13.1272 5.36377 13.6503 4.86834C14.1734 4.37291 14.4672 3.70104 14.467 3.00055C14.4669 2.30006 14.1728 1.62833 13.6494 1.13312C13.1261 0.637911 12.4163 0.359796 11.6764 0.359955H11.6776ZM2.80421 0.359955C2.43782 0.359955 2.07501 0.428271 1.73651 0.561004C1.398 0.693737 1.09043 0.888286 0.831348 1.13354C0.572267 1.3788 0.366754 1.66997 0.22654 1.99041C0.086327 2.31086 0.0141602 2.65431 0.0141602 3.00115C0.0141602 3.348 0.086327 3.69145 0.22654 4.0119C0.366754 4.33234 0.572267 4.62351 0.831348 4.86876C1.09043 5.11402 1.398 5.30857 1.73651 5.44131C2.07501 5.57404 2.43782 5.64235 2.80421 5.64235C3.54418 5.64219 4.25378 5.36377 4.77689 4.86834C5.30001 4.37291 5.5938 3.70104 5.59363 3.00055C5.59347 2.30006 5.29935 1.62833 4.776 1.13312C4.25264 0.637911 3.54291 0.359796 2.80295 0.359955H2.80421ZM20.551 0.359955C20.1846 0.359955 19.8218 0.428271 19.4833 0.561004C19.1448 0.693737 18.8372 0.888286 18.5782 1.13354C18.3191 1.3788 18.1136 1.66997 17.9734 1.99041C17.8331 2.31086 17.761 2.65431 17.761 3.00115C17.761 3.348 17.8331 3.69145 17.9734 4.0119C18.1136 4.33234 18.3191 4.62351 18.5782 4.86876C18.8372 5.11402 19.1448 5.30857 19.4833 5.44131C19.8218 5.57404 20.1846 5.64235 20.551 5.64235C21.291 5.64219 22.0006 5.36377 22.5237 4.86834C23.0468 4.37291 23.3406 3.70104 23.3405 3.00055C23.3403 2.30006 23.0462 1.62833 22.5228 1.13312C21.9995 0.637911 21.2897 0.359796 20.5498 0.359955H20.551Z" fill="#A098AE"/>
</svg>
