<svg width="107" height="96" viewBox="0 0 107 96" fill="none" xmlns="http://www.w3.org/2000/svg">
<g clip-path="url(#clip0)">
<path d="M54.7121 0.209846L51.236 1.10626L8.40989 12.1503L4.9338 13.0467C3.24655 13.4838 1.80159 14.5724 0.91594 16.0735C0.0302872 17.5747 -0.223734 19.3659 0.209605 21.0541L15.2827 79.5041C15.7198 81.1914 16.8084 82.6363 18.3096 83.522C19.8107 84.4077 21.6019 84.6617 23.2901 84.2283L23.2991 84.226L73.0594 71.3939L73.0684 71.3915C74.7557 70.9544 76.2006 69.8658 77.0863 68.3647C77.9719 66.8635 78.226 65.0723 77.7926 63.3841L62.7195 4.93407C62.2824 3.24682 61.1938 1.80185 59.6927 0.916195C58.1915 0.0305363 56.4003 -0.223491 54.7121 0.209846Z" fill="#F2F2F2"/>
<path d="M55.1843 2.0417L51.0671 3.10344L9.52306 13.8168L5.40594 14.8785C4.2044 15.1898 3.17541 15.965 2.54471 17.034C1.91401 18.103 1.73312 19.3786 2.04171 20.5808L17.1148 79.0308C17.4261 80.2324 18.2013 81.2614 19.2703 81.892C20.3393 82.5227 21.6149 82.7036 22.8171 82.395L22.8261 82.3927L72.5864 69.5605L72.5954 69.5582C73.7969 69.2469 74.8259 68.4717 75.4566 67.4027C76.0873 66.3337 76.2682 65.0582 75.9596 63.8559L60.8865 5.40593C60.5752 4.20441 59.8 3.17542 58.731 2.54473C57.662 1.91403 56.3865 1.73312 55.1843 2.0417Z" fill="white"/>
<path d="M52.0753 20.9693L26.9028 27.4608C26.6217 27.5333 26.3232 27.4911 26.0731 27.3436C25.8231 27.1961 25.6419 26.9552 25.5694 26.6741C25.4968 26.3929 25.539 26.0945 25.6865 25.8444C25.8341 25.5944 26.0749 25.4131 26.3561 25.3406L51.5286 18.8491C51.8096 18.7769 52.1079 18.8193 52.3577 18.9668C52.6076 19.1144 52.7886 19.3551 52.8611 19.6361C52.9336 19.9171 52.8915 20.2153 52.7442 20.4653C52.5968 20.7153 52.3563 20.8966 52.0753 20.9693Z" fill="#F2F2F2"/>
<path d="M57.3708 23.4194L27.8254 31.0385C27.5443 31.111 27.2458 31.0689 26.9958 30.9213C26.7457 30.7738 26.5645 30.533 26.492 30.2518C26.4195 29.9707 26.4616 29.6722 26.6091 29.4222C26.7567 29.1721 26.9975 28.9909 27.2787 28.9184L56.824 21.2992C57.1052 21.2267 57.4036 21.2689 57.6537 21.4164C57.9038 21.5639 58.085 21.8048 58.1575 22.0859C58.23 22.3671 58.1879 22.6655 58.0403 22.9156C57.8928 23.1657 57.6519 23.3469 57.3708 23.4194Z" fill="#F2F2F2"/>
<path d="M56.2101 37.003L31.0376 43.4945C30.8984 43.5304 30.7534 43.5385 30.6111 43.5184C30.4687 43.4983 30.3317 43.4504 30.2079 43.3773C30.0841 43.3042 29.9759 43.2075 29.8894 43.0926C29.803 42.9778 29.74 42.847 29.7041 42.7078C29.6682 42.5686 29.6601 42.4236 29.6802 42.2813C29.7003 42.1389 29.7482 42.0019 29.8213 41.8781C29.8944 41.7543 29.9911 41.6461 30.106 41.5596C30.2208 41.4732 30.3516 41.4102 30.4908 41.3743L55.6634 34.8828C55.8026 34.8469 55.9475 34.8388 56.0898 34.8589C56.2322 34.879 56.3692 34.927 56.493 35C56.6168 35.0731 56.7251 35.1698 56.8115 35.2847C56.8979 35.3995 56.9609 35.5303 56.9968 35.6695C57.0327 35.8087 57.0408 35.9537 57.0207 36.096C57.0006 36.2384 56.9527 36.3754 56.8796 36.4992C56.8066 36.623 56.7099 36.7312 56.595 36.8177C56.4801 36.9041 56.3493 36.9671 56.2101 37.003Z" fill="#F2F2F2"/>
<path d="M61.5056 39.4531L31.9602 47.0722C31.821 47.1081 31.676 47.1163 31.5337 47.0962C31.3913 47.076 31.2543 47.0281 31.1305 46.955C31.0067 46.882 30.8985 46.7853 30.812 46.6704C30.7256 46.5555 30.6626 46.4247 30.6267 46.2855C30.5908 46.1463 30.5827 46.0014 30.6028 45.859C30.6229 45.7167 30.6709 45.5797 30.7439 45.4559C30.817 45.332 30.9137 45.2238 31.0286 45.1374C31.1434 45.0509 31.2742 44.988 31.4134 44.9521L60.9588 37.3329C61.24 37.2604 61.5384 37.3026 61.7885 37.4501C62.0385 37.5976 62.2198 37.8385 62.2923 38.1196C62.3648 38.4008 62.3226 38.6992 62.1751 38.9493C62.0275 39.1993 61.7867 39.3806 61.5056 39.4531Z" fill="#F2F2F2"/>
<path d="M60.3449 53.0367L35.1723 59.5282C34.8913 59.6005 34.593 59.5582 34.3431 59.4106C34.0932 59.2631 33.9121 59.0223 33.8396 58.7413C33.7671 58.4603 33.8092 58.162 33.9566 57.9119C34.104 57.6619 34.3446 57.4807 34.6256 57.408L59.7981 50.9165C60.0793 50.844 60.3777 50.8862 60.6278 51.0337C60.8779 51.1812 61.0591 51.4221 61.1316 51.7032C61.2041 51.9844 61.1619 52.2828 61.0144 52.5329C60.8669 52.783 60.626 52.9642 60.3449 53.0367Z" fill="#F2F2F2"/>
<path d="M65.6403 55.4869L36.0949 63.106C35.9557 63.1421 35.8107 63.1503 35.6682 63.1303C35.5258 63.1103 35.3887 63.0624 35.2647 62.9893C35.1408 62.9163 35.0325 62.8196 34.946 62.7046C34.8595 62.5897 34.7964 62.4589 34.7605 62.3196C34.7246 62.1803 34.7165 62.0353 34.7366 61.8929C34.7568 61.7504 34.8048 61.6134 34.8779 61.4895C34.9511 61.3656 35.0479 61.2574 35.1629 61.171C35.2779 61.0846 35.4088 61.0217 35.5482 60.9859L65.0935 53.3667C65.3747 53.2942 65.6731 53.3364 65.9232 53.4839C66.1733 53.6314 66.3545 53.8723 66.427 54.1534C66.4995 54.4346 66.4574 54.733 66.3098 54.9831C66.1623 55.2332 65.9214 55.4144 65.6403 55.4869Z" fill="#F2F2F2"/>
<path d="M22.6055 34.1168L13.6971 36.4141C13.5623 36.4487 13.4193 36.4284 13.2994 36.3577C13.1796 36.287 13.0926 36.1716 13.0577 36.0369L11.0128 28.1072C10.9782 27.9724 10.9985 27.8294 11.0692 27.7095C11.14 27.5897 11.2553 27.5027 11.3901 27.4678L20.2984 25.1706C20.4332 25.136 20.5762 25.1562 20.6961 25.227C20.816 25.2977 20.9029 25.4131 20.9378 25.5478L22.9827 33.4774C23.0173 33.6122 22.997 33.7553 22.9263 33.8751C22.8556 33.995 22.7402 34.0819 22.6055 34.1168Z" fill="#E6E6E6"/>
<path d="M26.7402 50.1506L17.8319 52.4479C17.6971 52.4825 17.5541 52.4622 17.4342 52.3915C17.3143 52.3208 17.2274 52.2054 17.1925 52.0707L15.1476 44.141C15.113 44.0062 15.1333 43.8632 15.204 43.7433C15.2747 43.6235 15.3901 43.5366 15.5248 43.5017L24.4332 41.2044C24.568 41.1698 24.711 41.19 24.8309 41.2608C24.9507 41.3315 25.0376 41.4469 25.0725 41.5816L27.1174 49.5112C27.152 49.646 27.1318 49.7891 27.061 49.9089C26.9903 50.0288 26.8749 50.1157 26.7402 50.1506Z" fill="#E6E6E6"/>
<path d="M30.875 66.1842L21.9667 68.4815C21.8319 68.5161 21.6888 68.4958 21.569 68.4251C21.4491 68.3544 21.3622 68.239 21.3273 68.1043L19.2824 60.1746C19.2478 60.0398 19.2681 59.8968 19.3388 59.7769C19.4095 59.657 19.5249 59.5701 19.6596 59.5352L28.5679 57.2379C28.7027 57.2033 28.8458 57.2236 28.9656 57.2943C29.0855 57.3651 29.1724 57.4804 29.2073 57.6152L31.2522 65.5448C31.2868 65.6796 31.2665 65.8227 31.1958 65.9425C31.1251 66.0624 31.0097 66.1493 30.875 66.1842Z" fill="#E6E6E6"/>
<path d="M89.4294 15.0254H38.0226C36.2796 15.0274 34.6086 15.7206 33.3762 16.9531C32.1437 18.1855 31.4504 19.8565 31.4485 21.5995V81.9618C31.4504 83.7047 32.1437 85.3757 33.3762 86.6082C34.6086 87.8406 36.2796 88.5339 38.0226 88.5359H89.4294C91.1723 88.5339 92.8433 87.8406 94.0758 86.6082C95.3083 85.3757 96.0015 83.7047 96.0035 81.9618V21.5995C96.0015 19.8565 95.3083 18.1855 94.0758 16.9531C92.8433 15.7206 91.1723 15.0274 89.4294 15.0254Z" fill="#E6E6E6"/>
<path d="M89.4295 16.918H38.0226C36.7814 16.9194 35.5915 17.413 34.7138 18.2907C33.8361 19.1684 33.3425 20.3583 33.3411 21.5995V81.9618C33.3425 83.203 33.8361 84.3929 34.7138 85.2706C35.5915 86.1483 36.7814 86.6419 38.0226 86.6433H89.4295C90.6707 86.6419 91.8607 86.1482 92.7383 85.2706C93.616 84.3929 94.1096 83.203 94.111 81.9618V21.5995C94.1096 20.3583 93.616 19.1684 92.7383 18.2907C91.8607 17.4131 90.6707 16.9194 89.4295 16.918Z" fill="white"/>
<path d="M94.8301 95.8799C101.458 95.8799 106.831 90.507 106.831 83.8792C106.831 77.2513 101.458 71.8784 94.8301 71.8784C88.2023 71.8784 82.8293 77.2513 82.8293 83.8792C82.8293 90.507 88.2023 95.8799 94.8301 95.8799Z" fill="#4267B2"/>
<path d="M100.569 82.314H96.3953V78.1398C96.3953 77.7246 96.2304 77.3265 95.9368 77.0329C95.6433 76.7394 95.2451 76.5745 94.83 76.5745C94.4148 76.5745 94.0167 76.7394 93.7231 77.0329C93.4296 77.3265 93.2646 77.7246 93.2646 78.1398V82.314H89.0905C88.6753 82.314 88.2772 82.4789 87.9836 82.7724C87.6901 83.066 87.5251 83.4641 87.5251 83.8793C87.5251 84.2944 87.6901 84.6926 87.9836 84.9861C88.2772 85.2797 88.6753 85.4446 89.0905 85.4446H93.2646V89.6188C93.2646 90.0339 93.4296 90.4321 93.7231 90.7256C94.0167 91.0192 94.4148 91.1841 94.83 91.1841C95.2451 91.1841 95.6433 91.0192 95.9368 90.7256C96.2304 90.4321 96.3953 90.0339 96.3953 89.6188V85.4446H100.569C100.985 85.4446 101.383 85.2797 101.676 84.9861C101.97 84.6926 102.135 84.2944 102.135 83.8793C102.135 83.4641 101.97 83.066 101.676 82.7724C101.383 82.4789 100.985 82.314 100.569 82.314Z" fill="white"/>
<path d="M81.6927 50.0867H55.6966C55.5527 50.0869 55.4102 50.0587 55.2773 50.0038C55.1443 49.9488 55.0235 49.8682 54.9217 49.7665C54.8199 49.6649 54.7391 49.5441 54.684 49.4112C54.6289 49.2783 54.6006 49.1358 54.6006 48.992C54.6006 48.8481 54.6289 48.7057 54.684 48.5727C54.7391 48.4398 54.8199 48.3191 54.9217 48.2174C55.0235 48.1158 55.1443 48.0351 55.2773 47.9802C55.4102 47.9253 55.5527 47.8971 55.6966 47.8972H81.6927C81.9828 47.8975 82.2609 48.013 82.466 48.2183C82.671 48.4236 82.7862 48.7018 82.7862 48.992C82.7862 49.2821 82.671 49.5604 82.466 49.7657C82.2609 49.9709 81.9828 50.0864 81.6927 50.0867Z" fill="#E6E6E6"/>
<path d="M86.2086 53.7816H55.6966C55.5527 53.7817 55.4102 53.7535 55.2773 53.6986C55.1443 53.6436 55.0235 53.563 54.9217 53.4614C54.8199 53.3597 54.7391 53.2389 54.684 53.106C54.6289 52.9731 54.6006 52.8307 54.6006 52.6868C54.6006 52.5429 54.6289 52.4005 54.684 52.2676C54.7391 52.1347 54.8199 52.0139 54.9217 51.9123C55.0235 51.8106 55.1443 51.73 55.2773 51.675C55.4102 51.6201 55.5527 51.5919 55.6966 51.592H86.2086C86.4989 51.592 86.7774 51.7074 86.9827 51.9127C87.188 52.118 87.3033 52.3965 87.3033 52.6868C87.3033 52.9772 87.188 53.2556 86.9827 53.4609C86.7774 53.6662 86.4989 53.7816 86.2086 53.7816Z" fill="#E6E6E6"/>
<path d="M81.6927 66.6451H55.6966C55.5527 66.6453 55.4102 66.6171 55.2773 66.5621C55.1443 66.5072 55.0235 66.4266 54.9217 66.3249C54.8199 66.2232 54.7391 66.1025 54.684 65.9696C54.6289 65.8367 54.6006 65.6942 54.6006 65.5503C54.6006 65.4065 54.6289 65.264 54.684 65.1311C54.7391 64.9982 54.8199 64.8775 54.9217 64.7758C55.0235 64.6741 55.1443 64.5935 55.2773 64.5386C55.4102 64.4836 55.5527 64.4554 55.6966 64.4556H81.6927C81.983 64.4556 82.2615 64.5709 82.4668 64.7762C82.6721 64.9815 82.7874 65.26 82.7874 65.5503C82.7874 65.8407 82.6721 66.1191 82.4668 66.3244C82.2615 66.5298 81.983 66.6451 81.6927 66.6451Z" fill="#E6E6E6"/>
<path d="M86.2086 70.3399H55.6966C55.5527 70.3401 55.4102 70.3119 55.2773 70.2569C55.1443 70.202 55.0235 70.1214 54.9217 70.0197C54.8199 69.918 54.7391 69.7973 54.684 69.6644C54.6289 69.5315 54.6006 69.389 54.6006 69.2452C54.6006 69.1013 54.6289 68.9588 54.684 68.8259C54.7391 68.693 54.8199 68.5723 54.9217 68.4706C55.0235 68.3689 55.1443 68.2883 55.2773 68.2334C55.4102 68.1784 55.5527 68.1502 55.6966 68.1504H86.2086C86.3524 68.1502 86.4949 68.1784 86.6279 68.2334C86.7608 68.2883 86.8817 68.3689 86.9835 68.4706C87.0853 68.5723 87.166 68.693 87.2211 68.8259C87.2762 68.9588 87.3045 69.1013 87.3045 69.2452C87.3045 69.389 87.2762 69.5315 87.2211 69.6644C87.166 69.7973 87.0853 69.918 86.9835 70.0197C86.8817 70.1214 86.7608 70.202 86.6279 70.2569C86.4949 70.3119 86.3524 70.3401 86.2086 70.3399Z" fill="#E6E6E6"/>
<path d="M49.8734 55.4589H40.6736C40.5344 55.4588 40.401 55.4034 40.3026 55.305C40.2042 55.2066 40.1488 55.0732 40.1487 54.934V46.7449C40.1488 46.6057 40.2042 46.4723 40.3026 46.3739C40.401 46.2755 40.5344 46.2201 40.6736 46.22H49.8734C50.0126 46.2201 50.146 46.2755 50.2444 46.3739C50.3428 46.4723 50.3982 46.6057 50.3983 46.7449V54.934C50.3982 55.0732 50.3428 55.2066 50.2444 55.305C50.146 55.4034 50.0126 55.4588 49.8734 55.4589Z" fill="#E6E6E6"/>
<path d="M49.8734 72.0173H40.6736C40.5344 72.0171 40.401 71.9618 40.3026 71.8634C40.2042 71.7649 40.1488 71.6315 40.1487 71.4923V63.3033C40.1488 63.1641 40.2042 63.0307 40.3026 62.9322C40.401 62.8338 40.5344 62.7785 40.6736 62.7783H49.8734C50.0126 62.7785 50.146 62.8338 50.2444 62.9322C50.3428 63.0307 50.3982 63.1641 50.3983 63.3033V71.4923C50.3982 71.6315 50.3428 71.7649 50.2444 71.8634C50.146 71.9618 50.0126 72.0171 49.8734 72.0173Z" fill="#E6E6E6"/>
<path d="M81.7215 31.6541H62.5557C62.2654 31.6541 61.9869 31.5388 61.7816 31.3335C61.5763 31.1282 61.4609 30.8497 61.4609 30.5594C61.4609 30.269 61.5763 29.9906 61.7816 29.7852C61.9869 29.5799 62.2654 29.4646 62.5557 29.4646H81.7215C82.0119 29.4646 82.2904 29.5799 82.4957 29.7852C82.701 29.9906 82.8163 30.269 82.8163 30.5594C82.8163 30.8497 82.701 31.1282 82.4957 31.3335C82.2904 31.5388 82.0119 31.6541 81.7215 31.6541Z" fill="#CCCCCC"/>
<path d="M86.2375 35.3491H62.5557C62.4119 35.3491 62.2696 35.3208 62.1368 35.2657C62.0039 35.2107 61.8832 35.1301 61.7816 35.0284C61.6799 34.9268 61.5993 34.8061 61.5443 34.6733C61.4893 34.5404 61.4609 34.3981 61.4609 34.2543C61.4609 34.1105 61.4893 33.9682 61.5443 33.8354C61.5993 33.7025 61.6799 33.5819 61.7816 33.4802C61.8832 33.3785 62.0039 33.2979 62.1368 33.2429C62.2696 33.1879 62.4119 33.1595 62.5557 33.1595H86.2375C86.5278 33.1595 86.8063 33.2749 87.0116 33.4802C87.2169 33.6855 87.3322 33.964 87.3322 34.2543C87.3322 34.5447 87.2169 34.8231 87.0116 35.0284C86.8063 35.2337 86.5278 35.3491 86.2375 35.3491Z" fill="#CCCCCC"/>
<path d="M58.3138 39.8267H40.6446C40.5054 39.8265 40.372 39.7712 40.2736 39.6728C40.1751 39.5743 40.1198 39.4409 40.1196 39.3017V25.5119C40.1198 25.3727 40.1751 25.2393 40.2736 25.1409C40.372 25.0424 40.5054 24.9871 40.6446 24.9869H58.3138C58.453 24.9871 58.5864 25.0424 58.6848 25.1409C58.7832 25.2393 58.8386 25.3727 58.8388 25.5119V39.3017C58.8386 39.4409 58.7832 39.5743 58.6848 39.6728C58.5864 39.7712 58.453 39.8265 58.3138 39.8267Z" fill="#4267B2"/>
</g>
<defs>
<clipPath id="clip0">
<rect width="106.831" height="95.88" fill="white"/>
</clipPath>
</defs>
</svg>
