<svg width="202" height="71" viewBox="0 0 202 71" fill="none" xmlns="http://www.w3.org/2000/svg">
<path d="M200.231 1L176.897 9.07693L184.077 13.5641M200.231 1L184.077 13.5641M200.231 1L194.846 21.641L187.667 17.0541M200.231 1L187.667 17.0541M184.077 13.5641V21.641L187.667 17.0541" stroke="#EF4F4F" stroke-width="1.79487" stroke-linecap="round" stroke-linejoin="round"/>
<path d="M165.231 60.2308V22.5385H173.308V60.2308H165.231Z" fill="#EF4F4F" stroke="#EF4F4F" stroke-width="1.79487" stroke-linecap="round" stroke-linejoin="round"/>
<path d="M27.0257 28.8203C27.0257 28.8203 27.0257 46.8701 27.0257 58.4357M27.0257 28.8203L51.2564 40.4869L44.9744 62.9228M27.0257 28.8203L12.1144 35.9997M27.0257 58.4357C22.5385 59.3333 23.5635 64.9657 19.8462 64.7179C16.3843 64.4871 17.026 58.6664 13.5641 58.4357C9.84676 58.1878 10.072 65.2501 6.38462 64.7179C3.18652 64.2563 1 58.4357 1 58.4357M27.0257 58.4357C30.6154 59.3333 29.8382 64.7179 33.3077 64.7179C36.7772 64.7179 36.128 58.6666 39.5898 58.4359C43.3071 58.188 43.052 64.9657 46.7693 64.7179C50.2311 64.4871 53.0513 58.4359 53.0513 58.4359M8.17949 62.9228L2.79487 40.4869L12.1144 35.9997M12.1144 35.9997V23.4356C12.1144 23.4356 20.4799 19.957 26.1282 19.8459C32.2477 19.7255 41.3846 23.4356 41.3846 23.4356V35.1023" stroke="#EF4F4F" stroke-width="1.79487" stroke-linecap="round" stroke-linejoin="round"/>
<path d="M71.0001 24.3334H61.1283V61.1283H71.0001V45.8718H73.6924L83.5642 61.1283H94.3334L80.8719 42.2821L94.3334 24.3334H83.5642L71.0001 41.3847V24.3334Z" fill="#EF4F4F" stroke="#EF4F4F" stroke-width="1.79487" stroke-linecap="round" stroke-linejoin="round"/>
<path d="M125.88 51.3083H107.826C107.943 53.2364 108.674 54.7117 110.017 55.7342C111.376 56.7566 113.37 57.2679 115.999 57.2679C117.664 57.2679 119.278 56.9684 120.841 56.3696C122.404 55.7707 123.638 55.128 124.544 54.4415H125.42V60.7735C123.638 61.4892 121.958 62.0077 120.381 62.3291C118.803 62.6504 117.058 62.8111 115.144 62.8111C110.207 62.8111 106.424 61.701 103.795 59.4808C101.166 57.2606 99.8512 54.0982 99.8512 49.9937C99.8512 45.9331 101.093 42.7196 103.576 40.3533C106.074 37.9724 109.492 36.782 113.83 36.782C117.832 36.782 120.841 37.7971 122.857 39.8274C124.872 41.8432 125.88 44.7499 125.88 48.5477V51.3083ZM118.037 46.6853C117.993 45.0347 117.584 43.7932 116.81 42.9606C116.035 42.128 114.83 41.7117 113.194 41.7117C111.675 41.7117 110.426 42.1061 109.448 42.8949C108.469 43.6836 107.921 44.9471 107.805 46.6853H118.037Z" fill="#EF4F4F"/>
<path d="M156.393 51.3083H138.339C138.456 53.2364 139.187 54.7117 140.53 55.7342C141.889 56.7566 143.883 57.2679 146.512 57.2679C148.177 57.2679 149.791 56.9684 151.354 56.3696C152.917 55.7707 154.151 55.128 155.057 54.4415H155.933V60.7735C154.151 61.4892 152.471 62.0077 150.894 62.3291C149.316 62.6504 147.571 62.8111 145.657 62.8111C140.72 62.8111 136.937 61.701 134.308 59.4808C131.679 57.2606 130.364 54.0982 130.364 49.9937C130.364 45.9331 131.606 42.7196 134.089 40.3533C136.587 37.9724 140.005 36.782 144.343 36.782C148.345 36.782 151.354 37.7971 153.37 39.8274C155.385 41.8432 156.393 44.7499 156.393 48.5477V51.3083ZM148.549 46.6853C148.506 45.0347 148.097 43.7932 147.323 42.9606C146.548 42.128 145.343 41.7117 143.707 41.7117C142.188 41.7117 140.939 42.1061 139.961 42.8949C138.982 43.6836 138.434 44.9471 138.317 46.6853H148.549Z" fill="#EF4F4F"/>
</svg>
