<svg width="26" height="25" viewBox="0 0 26 25" fill="none" xmlns="http://www.w3.org/2000/svg">
<path d="M6.17687 24.3055H1.1378V8.07829H6.17687V24.3055ZM3.65462 5.86475C2.04329 5.86475 0.736328 4.53011 0.736328 2.91878C0.736328 2.1448 1.04379 1.40252 1.59108 0.855238C2.13836 0.307951 2.88064 0.000488281 3.65462 0.000488281C4.4286 0.000488281 5.17088 0.307951 5.71817 0.855238C6.26545 1.40252 6.57292 2.1448 6.57292 2.91878C6.57292 4.53011 5.26541 5.86475 3.65462 5.86475ZM25.0365 24.3055H20.0082V16.4062C20.0082 14.5236 19.9703 12.1093 17.3883 12.1093C14.7684 12.1093 14.367 14.1547 14.367 16.2706V24.3055H9.33333V8.07829H14.1662V10.2918H14.2368C14.9095 9.01688 16.5528 7.67139 19.0046 7.67139C24.1044 7.67139 25.0419 11.0297 25.0419 15.3917V24.3055H25.0365Z" fill="white"/>
</svg>
