<svg width="204" height="164" viewBox="0 0 204 164" fill="none" xmlns="http://www.w3.org/2000/svg">
<g clip-path="url(#clip0)">
<path d="M34.2356 163.194C34.2356 163.194 31.2966 155.959 40.1134 150.534L34.2356 163.194Z" fill="#F0F0F0"/>
<path d="M30.6219 163.062C30.6219 163.062 29.7254 157.906 22.7864 157.95L30.6219 163.062Z" fill="#F0F0F0"/>
<path d="M132.641 163.194C132.641 163.194 129.702 155.959 138.519 150.534L132.641 163.194Z" fill="#F0F0F0"/>
<path d="M129.026 163.062C129.026 163.062 128.129 157.906 121.19 157.95L129.026 163.062Z" fill="#F0F0F0"/>
<path d="M130.22 116.354C144.329 116.354 155.767 104.916 155.767 90.8072C155.767 76.6982 144.329 65.2605 130.22 65.2605C116.111 65.2605 104.673 76.6982 104.673 90.8072C104.673 104.916 116.111 116.354 130.22 116.354Z" fill="#F0F0F0"/>
<path d="M130.29 90.8063H130.361L131.624 163.236H128.957L130.29 90.8063Z" fill="#F0F0F0"/>
<path d="M185.069 129.041C195.359 129.041 203.702 120.699 203.702 110.408C203.702 100.117 195.359 91.775 185.069 91.775C174.778 91.775 166.436 100.117 166.436 110.408C166.436 120.699 174.778 129.041 185.069 129.041Z" fill="#F0F0F0"/>
<path d="M185.12 110.408H185.171L186.092 163.236H184.147L185.12 110.408Z" fill="#F0F0F0"/>
<path d="M81.8874 110.598C82.2444 110.557 82.588 110.438 82.894 110.25C83.2001 110.062 83.4612 109.809 83.6589 109.509C83.8567 109.209 83.9862 108.869 84.0385 108.514C84.0908 108.158 84.0644 107.796 83.9614 107.451L91.0444 102.343L86.8019 100.732L80.7262 105.83C80.1594 106.041 79.6899 106.453 79.4067 106.988C79.1234 107.522 79.0459 108.142 79.1891 108.73C79.3322 109.317 79.686 109.832 80.1833 110.176C80.6806 110.521 81.2869 110.671 81.8874 110.598H81.8874Z" fill="#FFB6B6"/>
<path d="M76.6945 160.709L74.4455 160.709L73.3755 152.034H76.695L76.6945 160.709Z" fill="#FFB6B6"/>
<path d="M77.2688 162.889L70.0168 162.889V162.797C70.0169 162.048 70.3143 161.331 70.8436 160.801C71.373 160.272 72.0909 159.974 72.8395 159.974H72.8397L77.2689 159.975L77.2688 162.889Z" fill="#2F2E41"/>
<path d="M59.5158 160.709L57.2668 160.709L56.197 152.034H59.5163L59.5158 160.709Z" fill="#FFB6B6"/>
<path d="M60.0896 162.889L52.8376 162.889V162.797C52.8377 162.048 53.1351 161.331 53.6644 160.801C54.1938 160.272 54.9117 159.974 55.6603 159.974H55.6605L60.0897 159.975L60.0896 162.889Z" fill="#2F2E41"/>
<path d="M61.253 112.469L56.4867 138.535L54.8196 159.239L60.2321 158.973L63.313 138.868L70.9711 121.362L73.2503 158.924L78.2328 158.94L80.9137 111.427L61.253 112.469Z" fill="#2F2E41"/>
<path d="M81.5242 82.6359L74.8435 79.9777L67.1794 80.8546L60.6822 84.4463C60.6822 84.4463 62.6697 109.372 59.7888 115.219C59.7888 115.219 62.0971 118.416 71.5021 117.635C71.5021 117.635 80.6634 116.477 80.8905 113.473C81.1176 110.469 81.1655 105.007 81.1655 105.007L84.3456 94.0486L81.5242 82.6359Z" fill="#4267B2"/>
<path d="M63.2933 84.926L60.6818 84.4462C60.6818 84.4462 57.9032 85.6645 57.9317 89.2951C57.9602 92.9257 53.0227 105.098 58.9299 105.608C64.8372 106.118 63.2933 96.9764 63.2933 96.9764V84.926Z" fill="#4267B2"/>
<path d="M79.405 84.182L81.5239 82.6353C81.5239 82.6353 84.759 83.3661 85.9556 85.9704C85.9556 85.9704 99.222 95.5919 95.573 99.2409C91.924 102.89 84.4857 107.381 84.4857 107.381L81.7316 104.263L88.5644 98.0727L82.959 92.9662L79.405 84.182Z" fill="#4267B2"/>
<path d="M76.017 73.0662C76.0161 74.5202 75.4378 75.9143 74.4093 76.9421C73.3809 77.97 71.9863 78.5473 70.5323 78.5473C69.0783 78.5473 67.6838 77.97 66.6553 76.9421C65.6268 75.9143 65.0485 74.5202 65.0476 73.0662V72.8556C65.1038 71.4211 65.7203 70.0657 66.7646 69.0806C67.809 68.0955 69.198 67.5592 70.6334 67.5867C72.0688 67.6143 73.4362 68.2035 74.442 69.228C75.4477 70.2525 76.0117 71.6305 76.0128 73.0662H76.017Z" fill="#FFB6B6"/>
<path d="M71.3664 72.1823C71.7173 72.1247 72.0977 72.07 72.412 72.2314C73.0955 72.5808 72.9383 73.5717 73.3116 74.2257C73.459 74.4853 73.6976 74.6973 73.7958 74.9779C73.8941 75.2586 73.8337 75.6095 73.9881 75.8804C74.2113 76.2719 74.8161 76.3295 75.2133 76.0965C75.589 75.8363 75.8612 75.4523 75.9824 75.0116C76.1143 74.6383 76.2252 74.2257 76.5438 73.9815C76.6596 73.9156 76.7635 73.8306 76.8512 73.7303C76.917 73.5974 76.9424 73.448 76.9241 73.3008C76.9241 72.3521 76.7768 71.6167 76.9915 70.6974C77.3353 69.2154 77.6497 68.4827 76.5606 67.3838C76.0031 66.8282 75.2856 66.4611 74.5088 66.334C73.807 66.219 72.7741 67.1986 72.064 67.1761C70.2577 67.1046 68.7336 65.4316 67.0115 65.972C66.2586 66.2085 65.6058 66.6889 65.1561 67.3375C64.3141 68.5782 64.3899 69.0582 64.512 70.5388C64.5101 70.6512 64.5429 70.7615 64.606 70.8546C64.6691 70.9304 64.7716 70.9711 64.8333 71.0483C64.8998 71.1503 64.9249 71.2737 64.9035 71.3935C64.8847 71.6347 64.8284 71.8715 64.7365 72.0953C64.7133 72.1327 64.699 72.1749 64.6947 72.2187C64.6903 72.2624 64.6959 72.3066 64.7112 72.3479C64.7458 72.3948 64.7953 72.4284 64.8516 72.4433C65.5533 72.696 66.3112 72.209 67.062 72.2216C67.8129 72.2342 68.5258 72.7367 69.3006 72.6272C69.984 72.5219 70.6774 72.2959 71.3664 72.1823Z" fill="#2F2E41"/>
<path d="M71.33 102.674C71.2832 102.692 71.2346 102.704 71.185 102.711L65.0947 103.561C64.9473 103.582 64.7972 103.553 64.669 103.477C64.5408 103.402 64.4421 103.285 64.3892 103.145L59.1469 89.5045C59.1129 89.4162 59.0984 89.3216 59.1043 89.2272C59.1102 89.1328 59.1364 89.0407 59.1811 88.9573C59.2258 88.8739 59.288 88.8012 59.3634 88.744C59.4388 88.6868 59.5256 88.6465 59.6179 88.6259H59.6179L65.3452 87.3478C65.3895 87.3379 65.4322 87.3223 65.4724 87.3013L71.043 84.3889C71.086 84.3663 71.1314 84.3486 71.1784 84.3362L77.3089 82.7018C77.4659 82.6597 77.6329 82.6772 77.7777 82.7511C77.9226 82.8249 78.0349 82.9499 78.0929 83.1017L82.6639 94.9958C82.704 95.0994 82.7172 95.2115 82.702 95.3216C82.6869 95.4317 82.644 95.5361 82.5774 95.625L80.9966 97.7479C80.9222 97.8478 80.821 97.9245 80.7047 97.9692L77.25 99.2969C77.2252 99.3064 77.2012 99.3178 77.1782 99.331L71.4213 102.63C71.392 102.647 71.3615 102.662 71.33 102.674Z" fill="white"/>
<path d="M74.1633 84.5205L73.3848 84.7282L71.3218 85.2784L71.3181 85.2792L68.4937 86.7561L67.4455 87.3042L67.4451 87.3044L65.8708 88.1274L65.8276 88.1371L64.1923 88.5018L63.4019 88.6785L60.1782 89.3979L65.239 102.566L68.5609 102.103L69.3754 101.989L71.1115 101.746L71.1317 101.744L76.7103 98.5463L80.1045 97.2419L81.6542 95.1609L77.2489 83.698L74.1633 84.5205Z" fill="#E4E4E4"/>
<path d="M77.9749 85.587L61.1924 92.0367L61.4798 92.7845L78.2623 86.3349L77.9749 85.587Z" fill="white"/>
<path d="M78.9329 88.0793L62.1504 94.529L62.4378 95.2768L79.2203 88.8272L78.9329 88.0793Z" fill="white"/>
<path d="M80.868 93.1151L64.0854 99.5648L64.3729 100.313L81.1554 93.863L80.868 93.1151Z" fill="white"/>
<path d="M74.163 84.5205L79.1874 97.5943L78.4396 97.8816L73.3845 84.7281L74.163 84.5205Z" fill="white"/>
<path d="M68.4938 86.7559L67.462 89.6267L67.1043 90.6223L66.2699 92.9457L66.091 93.4424L65.912 93.9415L65.6764 94.5967L63.9851 99.3038L63.5454 98.1596L64.9245 94.3211L65.2365 93.452L65.2821 93.3253L65.6511 92.2977L66.1166 91.002L66.4745 90.006L67.445 87.3044L67.4454 87.3042L68.4938 86.7559Z" fill="white"/>
<path d="M64.1921 88.5019L69.375 101.989L68.5606 102.103L63.4016 88.6787L64.1921 88.5019Z" fill="white"/>
<path d="M63.0827 101.417C64.4003 101.417 65.4685 100.348 65.4685 99.0308C65.4685 97.7131 64.4003 96.6449 63.0827 96.6449C61.765 96.6449 60.6968 97.7131 60.6968 99.0308C60.6968 100.348 61.765 101.417 63.0827 101.417Z" fill="#FFB6B6"/>
<path d="M161.601 84.7967C185.017 84.7967 204 65.8143 204 42.3983C204 18.9824 185.017 0 161.601 0C138.185 0 119.203 18.9824 119.203 42.3983C119.203 65.8143 138.185 84.7967 161.601 84.7967Z" fill="#E4E4E4"/>
<path opacity="0.1" d="M192.907 14.0797C196.862 23.3307 197.398 33.6866 194.42 43.2967C191.443 52.9069 185.145 61.1452 176.652 66.5394C168.16 71.9336 158.026 74.1322 148.061 72.7424C138.097 71.3526 128.951 66.465 122.259 58.9529C124.674 64.6049 128.29 69.664 132.856 73.7798C137.421 77.8957 142.826 80.9697 148.697 82.7891C154.569 84.6085 160.765 85.1296 166.858 84.3164C172.951 83.5031 178.794 81.375 183.982 78.0795C189.171 74.7839 193.581 70.3997 196.906 65.2306C200.232 60.0615 202.395 54.2311 203.244 48.1433C204.093 42.0556 203.608 35.856 201.823 29.9742C200.038 24.0924 196.996 18.669 192.907 14.0797Z" fill="black"/>
<path d="M161.485 42.3979H161.368L159.271 162.604H163.698L161.485 42.3979Z" fill="#E4E4E4"/>
<path d="M192.431 163.117H0.230456C0.169335 163.117 0.110718 163.093 0.0674989 163.05C0.02428 163.007 0 162.948 0 162.887C0 162.826 0.02428 162.767 0.0674989 162.724C0.110718 162.681 0.169335 162.656 0.230456 162.656H192.431C192.492 162.656 192.551 162.681 192.594 162.724C192.637 162.767 192.661 162.826 192.661 162.887C192.661 162.948 192.637 163.007 192.594 163.05C192.551 163.093 192.492 163.117 192.431 163.117Z" fill="#CACACA"/>
</g>
<defs>
<clipPath id="clip0">
<rect width="204" height="163.236" fill="white"/>
</clipPath>
</defs>
</svg>
