<svg width="405" height="221" viewBox="0 0 405 221" fill="none" xmlns="http://www.w3.org/2000/svg">
<g clip-path="url(#clip0)">
<path d="M203.799 220.23C313.618 220.23 402.644 214.337 402.644 207.066C402.644 199.796 313.618 193.902 203.799 193.902C93.9801 193.902 4.9541 199.796 4.9541 207.066C4.9541 214.337 93.9801 220.23 203.799 220.23Z" fill="#F2F2F2"/>
<path d="M196.178 62.957C163.78 62.957 140.52 83.7422 140.52 132.241C140.52 187.206 163.78 201.756 196.178 201.756C228.575 201.756 253.221 185.821 253.221 132.241C253.221 74.9663 228.575 62.957 196.178 62.957ZM196.391 183.511C173.952 183.511 162.229 170.347 162.229 132.277C162.229 98.6851 174.431 80.9709 196.871 80.9709C219.31 80.9709 231.513 92.6067 231.513 132.277C231.512 169.387 218.83 183.511 196.391 183.511Z" fill="#495057"/>
<path d="M121.121 163.417H107.726V123.972C107.726 121.877 106.894 119.868 105.412 118.386C103.931 116.905 101.922 116.073 99.8266 116.073H96.6879C95.6505 116.073 94.6233 116.277 93.6649 116.674C92.7065 117.071 91.8357 117.653 91.1021 118.386C90.3686 119.12 89.7867 119.991 89.3897 120.949C88.9928 121.907 88.7884 122.935 88.7884 123.972V163.417H51.006C50.2287 163.417 49.4646 163.216 48.7879 162.833C48.1111 162.451 47.5447 161.9 47.1435 161.235C46.7423 160.569 46.52 159.811 46.4981 159.034C46.4762 158.257 46.6555 157.487 47.0186 156.8L87.0072 81.1146C87.5057 80.171 87.8079 79.1362 87.8955 78.0725C87.9831 77.0089 87.8542 75.9386 87.5167 74.9262C87.1792 73.9137 86.64 72.9802 85.9318 72.1818C85.2235 71.3835 84.3608 70.737 83.3958 70.2813L81.0352 69.1665C79.2022 68.301 77.1066 68.1732 75.182 68.8096C73.2574 69.446 71.6511 70.7979 70.6955 72.5856L21.9242 163.822C21.0937 165.375 20.6592 167.11 20.6592 168.871C20.6592 170.278 20.9362 171.671 21.4745 172.97C22.0129 174.27 22.8019 175.451 23.7965 176.446C24.7912 177.44 25.972 178.229 27.2716 178.767C28.5712 179.306 29.9641 179.583 31.3707 179.583H88.7884V204.525C88.7884 205.769 89.0333 207 89.5092 208.149C89.9851 209.297 90.6825 210.341 91.5618 211.221C92.441 212.1 93.4849 212.797 94.6337 213.273C95.7825 213.749 97.0138 213.994 98.2572 213.994H98.2572C99.5007 213.994 100.732 213.749 101.881 213.273C103.03 212.797 104.073 212.1 104.953 211.221C105.832 210.341 106.529 209.297 107.005 208.149C107.481 207 107.726 205.769 107.726 204.525V179.583H121.121C123.265 179.583 125.321 178.731 126.837 177.215C128.352 175.699 129.204 173.644 129.204 171.5C129.204 169.356 128.352 167.3 126.837 165.784C125.321 164.268 123.265 163.417 121.121 163.417Z" fill="#CED4DA"/>
<path d="M369.157 163.417H355.762V123.972C355.762 121.877 354.93 119.868 353.448 118.386C351.967 116.905 349.958 116.073 347.863 116.073H344.724C343.687 116.073 342.659 116.277 341.701 116.674C340.743 117.071 339.872 117.653 339.138 118.386C338.405 119.12 337.823 119.991 337.426 120.949C337.029 121.907 336.825 122.935 336.825 123.972V163.417H299.042C298.265 163.417 297.501 163.216 296.824 162.833C296.147 162.451 295.581 161.9 295.18 161.235C294.778 160.569 294.556 159.811 294.534 159.034C294.512 158.257 294.692 157.487 295.055 156.8L335.043 81.1146C335.542 80.171 335.844 79.1362 335.932 78.0726C336.019 77.0089 335.89 75.9386 335.553 74.9262C335.215 73.9137 334.676 72.9802 333.968 72.1818C333.26 71.3835 332.397 70.737 331.432 70.2813L329.071 69.1665C327.238 68.301 325.143 68.1732 323.218 68.8096C321.294 69.446 319.687 70.7979 318.732 72.5856L269.96 163.822C269.13 165.375 268.695 167.11 268.695 168.871C268.695 171.712 269.824 174.437 271.833 176.446C273.841 178.454 276.566 179.583 279.407 179.583H336.825V204.525C336.825 207.036 337.822 209.445 339.598 211.221C341.374 212.996 343.782 213.994 346.293 213.994C348.805 213.994 351.213 212.996 352.989 211.221C354.765 209.445 355.762 207.036 355.762 204.525V179.583H369.157C371.301 179.583 373.357 178.731 374.873 177.215C376.389 175.699 377.24 173.644 377.24 171.5C377.24 169.356 376.389 167.3 374.873 165.784C373.357 164.268 371.301 163.417 369.157 163.417Z" fill="#CED4DA"/>
<path d="M124.815 158.799H111.42V119.355C111.42 118.317 111.216 117.29 110.819 116.332C110.422 115.373 109.84 114.503 109.107 113.769C108.373 113.036 107.502 112.454 106.544 112.057C105.586 111.66 104.558 111.455 103.521 111.455H100.382C98.2872 111.455 96.2779 112.288 94.7965 113.769C93.315 115.251 92.4828 117.26 92.4828 119.355V158.799H54.7003C53.923 158.799 53.159 158.599 52.4822 158.216C51.8055 157.834 51.239 157.283 50.8378 156.617C50.4366 155.952 50.2143 155.194 50.1924 154.417C50.1706 153.64 50.3499 152.87 50.713 152.183L90.7015 76.4975C91.2001 75.5538 91.5023 74.519 91.5898 73.4554C91.6774 72.3918 91.5485 71.3214 91.211 70.309C90.8735 69.2965 90.3344 68.363 89.6261 67.5647C88.9178 66.7663 88.0552 66.1198 87.0901 65.6641L84.7295 64.5494C82.8965 63.6838 80.8009 63.556 78.8763 64.1924C76.9518 64.8288 75.3455 66.1807 74.3898 67.9684L25.6185 159.204C24.788 160.758 24.3535 162.492 24.3535 164.254V164.254C24.3535 167.095 25.4821 169.82 27.4909 171.828C29.4997 173.837 32.2242 174.966 35.0651 174.966H92.4828V199.908C92.4828 201.151 92.7277 202.383 93.2035 203.531C93.6794 204.68 94.3769 205.724 95.2561 206.603C96.1354 207.483 97.1792 208.18 98.328 208.656C99.4768 209.132 100.708 209.377 101.952 209.377H101.952C104.463 209.377 106.871 208.379 108.647 206.603C110.423 204.828 111.42 202.419 111.42 199.908V174.966H124.815C125.877 174.966 126.928 174.757 127.909 174.35C128.889 173.944 129.78 173.349 130.531 172.598C131.282 171.848 131.877 170.957 132.283 169.976C132.689 168.995 132.898 167.944 132.898 166.883V166.883C132.898 165.821 132.689 164.77 132.283 163.789C131.877 162.809 131.282 161.918 130.531 161.167C129.78 160.416 128.889 159.821 127.909 159.415C126.928 159.009 125.877 158.799 124.815 158.799V158.799Z" stroke="#3F3D56" stroke-width="0.376957" stroke-miterlimit="10"/>
<path d="M376.086 158.799H362.691V119.355C362.691 117.26 361.859 115.251 360.377 113.769C358.896 112.288 356.886 111.455 354.791 111.455H351.653C350.615 111.455 349.588 111.66 348.63 112.057C347.671 112.454 346.801 113.036 346.067 113.769C345.333 114.503 344.752 115.373 344.355 116.332C343.958 117.29 343.753 118.317 343.753 119.355V158.799H305.971C305.194 158.799 304.429 158.599 303.753 158.216C303.076 157.834 302.51 157.283 302.108 156.617C301.707 155.952 301.485 155.194 301.463 154.417C301.441 153.64 301.62 152.87 301.984 152.183L341.972 76.4975C342.471 75.5538 342.773 74.519 342.86 73.4554C342.948 72.3918 342.819 71.3214 342.482 70.309C342.144 69.2965 341.605 68.363 340.897 67.5647C340.188 66.7663 339.326 66.1198 338.361 65.6641L336 64.5494C334.167 63.6838 332.071 63.556 330.147 64.1924C328.222 64.8288 326.616 66.1807 325.66 67.9684L276.889 159.204C276.059 160.758 275.624 162.492 275.624 164.254C275.624 167.095 276.753 169.82 278.761 171.828C280.77 173.837 283.495 174.966 286.336 174.966H343.753V199.908C343.753 202.419 344.751 204.828 346.527 206.603C348.302 208.379 350.711 209.377 353.222 209.377V209.377C355.733 209.377 358.142 208.379 359.918 206.603C361.693 204.828 362.691 202.419 362.691 199.908V174.966H376.086C377.147 174.966 378.198 174.757 379.179 174.35C380.16 173.944 381.051 173.349 381.801 172.598C382.552 171.848 383.147 170.957 383.554 169.976C383.96 168.995 384.169 167.944 384.169 166.883V166.883C384.169 164.739 383.317 162.683 381.801 161.167C380.286 159.651 378.23 158.799 376.086 158.799V158.799Z" stroke="#3F3D56" stroke-width="0.376957" stroke-miterlimit="10"/>
<path d="M203.568 58.8008C171.171 58.8008 147.91 79.586 147.91 128.085C147.91 183.05 171.171 197.6 203.568 197.6C235.966 197.6 260.612 181.664 260.612 128.085C260.612 70.81 235.966 58.8008 203.568 58.8008ZM203.781 179.355C181.342 179.355 169.619 166.19 169.619 128.12C169.619 94.5289 181.822 76.8146 204.261 76.8146C226.7 76.8146 238.903 88.4504 238.903 128.12C238.903 165.231 226.22 179.355 203.781 179.355V179.355Z" stroke="#3F3D56" stroke-width="0.376957" stroke-miterlimit="10"/>
<path d="M230.354 50.4201C230.354 50.4201 231.579 53.9528 232.702 53.0122L231.807 48.3945L230.354 50.4201Z" fill="#FBBEBE"/>
<path d="M379.545 158.152C380.686 158.567 381.909 158.712 383.116 158.574C384.323 158.436 385.482 158.019 386.501 157.357C387.519 156.695 388.37 155.805 388.987 154.758C389.603 153.711 389.967 152.535 390.052 151.322C390.136 150.11 389.937 148.895 389.472 147.773C389.006 146.651 388.286 145.652 387.369 144.855C386.451 144.059 385.362 143.486 384.185 143.182C383.009 142.879 381.778 142.853 380.589 143.106L380.786 147.144L378.875 143.683C377 144.564 375.552 146.154 374.848 148.102C374.598 148.785 374.446 149.499 374.397 150.225C374.276 151.926 374.713 153.62 375.642 155.051C376.571 156.482 377.941 157.57 379.545 158.152Z" fill="#495057"/>
<path d="M388.998 204.988C388.324 201.554 391.246 198.51 394.133 196.531C397.02 194.552 400.392 192.607 401.377 189.249C402.793 184.422 398.576 180.002 395.295 176.191C392.86 173.362 390.769 170.254 389.066 166.933C388.383 165.602 387.756 164.21 387.576 162.724C387.318 160.585 388.005 158.456 388.697 156.415C391.004 149.617 393.47 142.876 396.096 136.191" stroke="#3F3D56" stroke-width="0.376957" stroke-miterlimit="10"/>
<path d="M379.868 157.113C381.01 157.528 382.232 157.673 383.44 157.535C384.647 157.397 385.805 156.98 386.824 156.318C387.843 155.656 388.694 154.766 389.31 153.719C389.926 152.672 390.291 151.496 390.375 150.283C390.459 149.071 390.26 147.856 389.795 146.734C389.329 145.612 388.609 144.613 387.692 143.816C386.775 143.02 385.685 142.447 384.508 142.143C383.332 141.84 382.101 141.814 380.912 142.067L381.109 146.105L379.198 142.644C377.323 143.525 375.875 145.115 375.171 147.063C374.921 147.746 374.769 148.46 374.72 149.185C374.599 150.887 375.037 152.581 375.965 154.012C376.894 155.442 378.264 156.531 379.868 157.113V157.113Z" stroke="#3F3D56" stroke-width="0.376957" stroke-miterlimit="10"/>
<path d="M388.039 134.797C388.487 133.56 389.239 132.457 390.226 131.587C391.213 130.718 392.403 130.111 393.686 129.822L394.332 133.661L395.529 129.629C397.192 129.654 398.804 130.206 400.132 131.207C401.461 132.207 402.437 133.604 402.919 135.195C403.402 136.787 403.367 138.49 402.818 140.06C402.27 141.63 401.236 142.985 399.868 143.929C398.499 144.874 396.865 145.359 395.203 145.314C393.541 145.27 391.935 144.698 390.619 143.682C389.303 142.665 388.343 141.257 387.88 139.66C387.416 138.063 387.472 136.36 388.039 134.797H388.039Z" fill="#495057"/>
<path d="M388.47 133.41C388.918 132.174 389.67 131.07 390.657 130.2C391.643 129.331 392.833 128.724 394.116 128.435L394.762 132.274L395.96 128.242C397.623 128.267 399.235 128.819 400.563 129.82C401.891 130.82 402.867 132.217 403.35 133.808C403.833 135.4 403.798 137.103 403.249 138.673C402.7 140.243 401.667 141.598 400.298 142.543C398.93 143.487 397.296 143.972 395.634 143.927C393.971 143.883 392.366 143.311 391.05 142.295C389.733 141.279 388.774 139.87 388.31 138.273C387.846 136.676 387.902 134.973 388.469 133.41H388.47Z" stroke="#3F3D56" stroke-width="0.376957" stroke-miterlimit="10"/>
<path d="M393.917 176.268C395.728 176.925 397.718 176.893 399.506 176.177C401.295 175.461 402.757 174.113 403.616 172.388C404.474 170.663 404.667 168.683 404.159 166.825C403.651 164.967 402.477 163.36 400.86 162.312L399.94 165.41L399.288 161.526C399.281 161.523 399.275 161.521 399.268 161.519C398.299 161.167 397.271 161.009 396.241 161.055C395.211 161.1 394.201 161.348 393.267 161.784C392.333 162.221 391.495 162.837 390.799 163.597C390.104 164.358 389.565 165.248 389.213 166.217C388.862 167.185 388.705 168.214 388.751 169.244C388.797 170.273 389.046 171.283 389.483 172.217C389.92 173.15 390.536 173.989 391.297 174.684C392.058 175.379 392.948 175.917 393.917 176.268H393.917Z" fill="#495057"/>
<path d="M394.29 174.862C396.101 175.519 398.091 175.486 399.879 174.771C401.668 174.055 403.13 172.706 403.989 170.982C404.847 169.257 405.04 167.277 404.532 165.418C404.024 163.56 402.85 161.954 401.233 160.906L400.313 164.004L399.661 160.12C399.654 160.117 399.648 160.114 399.641 160.112C398.672 159.76 397.644 159.603 396.614 159.648C395.584 159.694 394.574 159.942 393.64 160.378C392.707 160.814 391.868 161.43 391.172 162.191C390.477 162.951 389.938 163.841 389.586 164.81C389.235 165.779 389.078 166.808 389.124 167.837C389.17 168.867 389.419 169.877 389.856 170.811C390.293 171.744 390.909 172.582 391.67 173.277C392.431 173.973 393.321 174.511 394.29 174.862H394.29Z" stroke="#3F3D56" stroke-width="0.376957" stroke-miterlimit="10"/>
<path d="M385.749 189.296C386.061 191.068 386.972 192.679 388.33 193.858C389.688 195.038 391.41 195.715 393.208 195.776C395.006 195.836 396.77 195.277 398.205 194.191C399.639 193.105 400.656 191.559 401.086 189.813C401.516 188.066 401.332 186.224 400.566 184.597C399.799 182.97 398.496 181.655 396.875 180.875C395.255 180.094 393.415 179.894 391.664 180.309C389.914 180.724 388.359 181.728 387.261 183.153L390.757 188.414L385.981 185.621C385.61 186.81 385.531 188.07 385.749 189.296Z" fill="#495057"/>
<path d="M386.073 188.257C386.384 190.029 387.295 191.64 388.653 192.819C390.011 193.999 391.734 194.676 393.532 194.737C395.33 194.797 397.094 194.238 398.528 193.152C399.962 192.066 400.98 190.52 401.41 188.774C401.839 187.027 401.656 185.185 400.889 183.558C400.122 181.931 398.819 180.616 397.199 179.836C395.578 179.055 393.738 178.855 391.988 179.27C390.237 179.685 388.682 180.689 387.584 182.114L391.08 187.375L386.304 184.582C385.934 185.771 385.854 187.031 386.073 188.257V188.257Z" stroke="#3F3D56" stroke-width="0.376957" stroke-miterlimit="10"/>
<path d="M3.39613 177.265C4.14638 177.537 4.94974 177.632 5.74287 177.541C6.53599 177.451 7.29722 177.177 7.96654 176.742C8.63586 176.307 9.19498 175.722 9.59983 175.034C10.0047 174.346 10.2442 173.574 10.2995 172.777C10.3548 171.981 10.2244 171.183 9.91849 170.445C9.61262 169.708 9.13966 169.052 8.53689 168.528C7.93412 168.005 7.21803 167.629 6.44504 167.429C5.67206 167.23 4.86332 167.212 4.08257 167.379L4.21159 170.032L2.95637 167.758C1.72444 168.337 0.772728 169.381 0.310369 170.662C0.146165 171.11 0.0463418 171.579 0.0138763 172.056C-0.0653538 173.174 0.221966 174.287 0.832296 175.227C1.44263 176.167 2.3427 176.882 3.39613 177.265Z" fill="#495057"/>
<path d="M9.60582 208.037C9.16272 205.78 11.0827 203.78 12.9793 202.48C14.8758 201.18 17.0918 199.902 17.7389 197.696C18.6689 194.525 15.8987 191.62 13.7426 189.116C12.143 187.258 10.7693 185.216 9.65024 183.034C9.16374 182.177 8.83237 181.241 8.67141 180.268C8.5014 178.863 8.95299 177.464 9.40795 176.123C10.9236 171.657 12.544 167.228 14.2693 162.836" stroke="#3F3D56" stroke-width="0.376957" stroke-miterlimit="10"/>
<path d="M3.60805 176.581C4.3583 176.854 5.16165 176.949 5.95478 176.858C6.74791 176.767 7.50913 176.493 8.17845 176.058C8.84777 175.623 9.40689 175.039 9.81174 174.351C10.2166 173.663 10.4561 172.89 10.5114 172.094C10.5667 171.297 10.4363 170.499 10.1304 169.762C9.82452 169.024 9.35156 168.368 8.7488 167.845C8.14603 167.321 7.42994 166.945 6.65696 166.745C5.88398 166.546 5.07524 166.529 4.29448 166.695L4.42351 169.348L3.16828 167.075C1.93636 167.654 0.984642 168.698 0.522283 169.978C0.358081 170.426 0.258259 170.896 0.225792 171.372C0.146557 172.49 0.433875 173.603 1.04421 174.543C1.65454 175.483 2.55461 176.199 3.60805 176.581V176.581Z" stroke="#3F3D56" stroke-width="0.376957" stroke-miterlimit="10"/>
<path d="M8.97608 161.919C9.27051 161.106 9.76467 160.381 10.413 159.81C11.0614 159.239 11.8431 158.84 12.6861 158.65L13.1105 161.172L13.8974 158.523C14.9899 158.54 16.049 158.903 16.9217 159.56C17.7945 160.217 18.4357 161.135 18.7529 162.181C19.0701 163.226 19.0469 164.345 18.6865 165.377C18.3261 166.408 17.6472 167.299 16.7478 167.919C15.8485 168.54 14.7753 168.858 13.683 168.829C12.5908 168.8 11.5361 168.424 10.6713 167.756C9.80645 167.089 9.17617 166.163 8.87147 165.114C8.56676 164.065 8.6034 162.946 8.97608 161.919Z" fill="#495057"/>
<path d="M9.25928 161.009C9.55371 160.196 10.0479 159.471 10.6962 158.9C11.3446 158.329 12.1263 157.93 12.9693 157.74L13.3937 160.262L14.1806 157.613C15.2731 157.629 16.3322 157.992 17.2049 158.65C18.0777 159.307 18.7189 160.225 19.0361 161.27C19.3533 162.316 19.3301 163.435 18.9697 164.467C18.6093 165.498 17.9304 166.388 17.031 167.009C16.1317 167.629 15.0585 167.948 13.9662 167.919C12.874 167.89 11.8193 167.514 10.9545 166.846C10.0896 166.179 9.45937 165.253 9.15467 164.204C8.84997 163.155 8.8866 162.036 9.25928 161.009V161.009Z" stroke="#3F3D56" stroke-width="0.376957" stroke-miterlimit="10"/>
<path d="M12.8378 189.165C14.0277 189.597 15.3347 189.575 16.5098 189.105C17.685 188.635 18.646 187.749 19.2098 186.616C19.7736 185.482 19.9006 184.181 19.5668 182.961C19.233 181.74 18.4616 180.684 17.3996 179.996L16.795 182.031L16.3663 179.479C16.3621 179.477 16.3577 179.476 16.3532 179.474C15.7168 179.243 15.041 179.139 14.3644 179.169C13.6879 179.199 13.0238 179.362 12.4103 179.648C11.7967 179.935 11.2457 180.34 10.7886 180.839C10.3315 181.339 9.97739 181.924 9.74646 182.561C9.51552 183.197 9.4123 183.873 9.44269 184.55C9.47309 185.226 9.6365 185.89 9.92359 186.503C10.2107 187.117 10.6158 187.667 11.1159 188.124C11.6159 188.581 12.201 188.935 12.8378 189.165Z" fill="#495057"/>
<path d="M13.0841 188.246C14.2739 188.677 15.5809 188.656 16.7561 188.186C17.9312 187.716 18.8923 186.83 19.456 185.696C20.0198 184.563 20.1469 183.262 19.813 182.041C19.4792 180.82 18.7078 179.765 17.6459 179.076L17.0413 181.112L16.6125 178.56C16.6083 178.558 16.6039 178.556 16.5994 178.555C15.9631 178.324 15.2876 178.221 14.6114 178.251C13.9352 178.281 13.2716 178.445 12.6585 178.731C11.4202 179.31 10.4626 180.358 9.99646 181.643C9.53029 182.928 9.59371 184.345 10.1727 185.584C10.7518 186.822 11.799 187.779 13.0841 188.246V188.246Z" stroke="#3F3D56" stroke-width="0.376957" stroke-miterlimit="10"/>
<path d="M7.47176 197.727C7.67634 198.891 8.27497 199.95 9.16724 200.725C10.0595 201.5 11.1912 201.945 12.3724 201.984C13.5537 202.024 14.7127 201.656 15.6551 200.943C16.5975 200.23 17.266 199.214 17.5484 198.066C17.8308 196.919 17.71 195.709 17.2063 194.64C16.7025 193.57 15.8465 192.707 14.7817 192.194C13.7169 191.681 12.508 191.55 11.358 191.822C10.2079 192.095 9.18648 192.755 8.46505 193.691L10.7616 197.147L7.62365 195.313C7.38035 196.094 7.32826 196.922 7.47176 197.727Z" fill="#495057"/>
<path d="M7.68465 197.044C7.88924 198.208 8.48786 199.266 9.38013 200.041C10.2724 200.816 11.4041 201.261 12.5853 201.301C13.7666 201.341 14.9256 200.973 15.868 200.26C16.8104 199.546 17.4788 198.531 17.7613 197.383C18.0437 196.235 17.9229 195.025 17.4192 193.956C16.9154 192.887 16.0594 192.023 14.9946 191.51C13.9297 190.998 12.7209 190.866 11.5709 191.139C10.4208 191.411 9.39937 192.071 8.67794 193.007L10.9745 196.464L7.83654 194.629C7.59324 195.41 7.54115 196.238 7.68465 197.044V197.044Z" stroke="#3F3D56" stroke-width="0.376957" stroke-miterlimit="10"/>
<path d="M181.297 128.586C184.836 128.586 187.705 124.873 187.705 120.293C187.705 115.713 184.836 112 181.297 112C177.758 112 174.889 115.713 174.889 120.293C174.889 124.873 177.758 128.586 181.297 128.586Z" fill="#2F2E41"/>
<path d="M216.164 128.774C219.703 128.774 222.572 125.061 222.572 120.481C222.572 115.9 219.703 112.188 216.164 112.188C212.625 112.188 209.756 115.9 209.756 120.481C209.756 125.061 212.625 128.774 216.164 128.774Z" fill="#2F2E41"/>
<path d="M211.265 144.985C211.265 148.732 206.033 151.77 199.579 151.77C193.126 151.77 187.894 148.732 187.894 144.985C187.894 141.739 191.818 139.025 197.061 138.361C197.896 138.251 198.737 138.197 199.579 138.199C200.99 138.195 202.397 138.346 203.775 138.652C208.155 139.628 211.265 142.097 211.265 144.985Z" fill="#2F2E41"/>
<path d="M182.804 126.703C186.343 126.703 189.212 122.99 189.212 118.41C189.212 113.83 186.343 110.117 182.804 110.117C179.265 110.117 176.396 113.83 176.396 118.41C176.396 122.99 179.265 126.703 182.804 126.703Z" stroke="#3F3D56" stroke-width="0.376957" stroke-miterlimit="10"/>
<path d="M217.673 126.891C221.212 126.891 224.081 123.178 224.081 118.598C224.081 114.018 221.212 110.305 217.673 110.305C214.134 110.305 211.265 114.018 211.265 118.598C211.265 123.178 214.134 126.891 217.673 126.891Z" stroke="#3F3D56" stroke-width="0.376957" stroke-miterlimit="10"/>
<path d="M201.086 149.887C207.54 149.887 212.772 146.849 212.772 143.102C212.772 139.354 207.54 136.316 201.086 136.316C194.632 136.316 189.4 139.354 189.4 143.102C189.4 146.849 194.632 149.887 201.086 149.887Z" stroke="#3F3D56" stroke-width="0.376957" stroke-miterlimit="10"/>
<path d="M203.914 139.218C203.917 139.692 203.739 140.149 203.416 140.497C203.264 140.663 203.079 140.796 202.873 140.887C202.666 140.979 202.443 141.026 202.218 141.027H198.448C197.984 141.011 197.544 140.812 197.227 140.473C196.909 140.134 196.738 139.683 196.752 139.218C196.75 138.851 196.857 138.491 197.061 138.185C197.895 138.067 198.737 138.01 199.579 138.012C200.992 138.007 202.4 138.169 203.774 138.494C203.868 138.724 203.915 138.97 203.914 139.218Z" fill="white"/>
<path d="M182.805 118.031C183.846 118.031 184.689 117.187 184.689 116.147C184.689 115.106 183.846 114.262 182.805 114.262C181.764 114.262 180.92 115.106 180.92 116.147C180.92 117.187 181.764 118.031 182.805 118.031Z" fill="white"/>
<path d="M217.86 118.031C218.901 118.031 219.745 117.187 219.745 116.147C219.745 115.106 218.901 114.262 217.86 114.262C216.819 114.262 215.976 115.106 215.976 116.147C215.976 117.187 216.819 118.031 217.86 118.031Z" fill="white"/>
<path opacity="0.3" d="M219.746 135.75C220.787 135.75 221.631 134.906 221.631 133.865C221.631 132.824 220.787 131.98 219.746 131.98C218.705 131.98 217.861 132.824 217.861 133.865C217.861 134.906 218.705 135.75 219.746 135.75Z" fill="#CED4DA"/>
<path opacity="0.3" d="M173.757 135.75C174.798 135.75 175.642 134.906 175.642 133.865C175.642 132.824 174.798 131.98 173.757 131.98C172.716 131.98 171.872 132.824 171.872 133.865C171.872 134.906 172.716 135.75 173.757 135.75Z" fill="#CED4DA"/>
</g>
<defs>
<clipPath id="clip0">
<rect width="405" height="220.23" fill="white"/>
</clipPath>
</defs>
</svg>
