<svg width="14" height="18" viewBox="0 0 14 18" fill="none" xmlns="http://www.w3.org/2000/svg">
<path d="M11.7824 10.0489V7.2222C11.7812 5.96275 11.3616 4.74439 10.598 3.78288C9.83431 2.82138 8.77586 2.17877 7.61006 1.96886V0.999973C7.61006 0.764225 7.52214 0.538132 7.36565 0.371433C7.20916 0.204734 6.99691 0.111084 6.77559 0.111084C6.55428 0.111084 6.34203 0.204734 6.18553 0.371433C6.02904 0.538132 5.94112 0.764225 5.94112 0.999973V1.96886C4.77532 2.17877 3.71687 2.82138 2.95322 3.78288C2.18957 4.74439 1.76999 5.96275 1.76879 7.2222V10.0489C1.28184 10.2323 0.860052 10.5716 0.561263 11.0204C0.262473 11.4691 0.101305 12.0054 0.0998535 12.5555V14.3333C0.0998535 14.5691 0.187771 14.7951 0.344263 14.9618C0.500756 15.1285 0.713006 15.2222 0.934321 15.2222H3.55455C3.74671 15.9754 4.16621 16.6403 4.74833 17.1144C5.33045 17.5885 6.04284 17.8453 6.77559 17.8453C7.50834 17.8453 8.22073 17.5885 8.80285 17.1144C9.38497 16.6403 9.80447 15.9754 9.99663 15.2222H12.6169C12.8382 15.2222 13.0504 15.1285 13.2069 14.9618C13.3634 14.7951 13.4513 14.5691 13.4513 14.3333V12.5555C13.4499 12.0054 13.2887 11.4691 12.9899 11.0204C12.6911 10.5716 12.2693 10.2323 11.7824 10.0489ZM3.43772 7.2222C3.43772 6.2792 3.78939 5.37483 4.41536 4.70804C5.04133 4.04124 5.89033 3.66664 6.77559 3.66664C7.66085 3.66664 8.50985 4.04124 9.13582 4.70804C9.76179 5.37483 10.1135 6.2792 10.1135 7.2222V9.88886H3.43772V7.2222ZM6.77559 16.1111C6.48434 16.1092 6.19862 16.0262 5.94682 15.8702C5.69503 15.7143 5.48593 15.4909 5.34031 15.2222H8.21088C8.06525 15.4909 7.85615 15.7143 7.60436 15.8702C7.35256 16.0262 7.06684 16.1092 6.77559 16.1111ZM11.7824 13.4444H1.76879V12.5555C1.76879 12.3198 1.8567 12.0937 2.0132 11.927C2.16969 11.7603 2.38194 11.6666 2.60326 11.6666H10.9479C11.1692 11.6666 11.3815 11.7603 11.538 11.927C11.6945 12.0937 11.7824 12.3198 11.7824 12.5555V13.4444Z" fill="#363B64"/>
</svg>
