<svg width="391" height="347" viewBox="0 0 391 347" fill="none" xmlns="http://www.w3.org/2000/svg">
<g clip-path="url(#clip0)">
<path d="M281.544 115.819H195.299C194.424 115.818 193.586 115.47 192.967 114.851C192.349 114.232 192.001 113.392 192 112.516V99.3032C192.001 98.4275 192.349 97.5879 192.967 96.9686C193.586 96.3494 194.424 96.001 195.299 96H281.544C282.418 96.0011 283.257 96.3494 283.875 96.9687C284.494 97.5879 284.842 98.4275 284.843 99.3032V112.516C284.842 113.392 284.494 114.232 283.875 114.851C283.257 115.47 282.418 115.818 281.544 115.819V115.819Z" fill="#4267B2"/>
<path d="M208.193 103.104C207.458 103.116 206.757 103.417 206.242 103.942C205.726 104.467 205.437 105.174 205.438 105.91C205.437 106.646 205.726 107.353 206.242 107.877C206.757 108.402 207.458 108.703 208.193 108.716H268.558C269.3 108.726 270.015 108.441 270.547 107.923C271.079 107.406 271.385 106.698 271.397 105.956C271.41 105.213 271.127 104.496 270.612 103.961C270.097 103.427 269.391 103.118 268.65 103.104C268.619 103.103 268.588 103.103 268.558 103.104H208.193Z" fill="white"/>
<path d="M391.001 258.056H105.358V259H391.001V258.056Z" fill="#E6E6E6"/>
<path d="M12.5529 230.206C12.8086 239.771 14.4086 249.251 17.3057 258.369C17.3719 258.58 17.4413 258.789 17.5107 259H35.2478C35.2289 258.811 35.2099 258.599 35.191 258.369C34.0083 244.755 27.1898 161.898 35.3424 147.728C34.6296 148.878 11.1779 186.95 12.5529 230.206Z" fill="#E6E6E6"/>
<path d="M13.8846 258.368C14.0329 258.58 14.1874 258.792 14.3451 259H27.6511C27.5501 258.82 27.4334 258.608 27.2978 258.368C25.0996 254.396 18.5933 242.519 12.5538 230.206C6.06321 216.975 0.108809 203.241 0.610272 198.27C0.45572 199.392 -4.03531 233.566 13.8846 258.368Z" fill="#E6E6E6"/>
<path d="M179.975 105.855H35.2909C34.4163 105.854 33.5778 105.505 32.9593 104.886C32.3409 104.267 31.993 103.427 31.9919 102.551V21.8578C31.993 20.9821 32.3409 20.1425 32.9593 19.5232C33.5778 18.9039 34.4163 18.5556 35.2909 18.5546H179.975C180.849 18.5556 181.688 18.904 182.306 19.5232C182.925 20.1425 183.272 20.9821 183.274 21.8578V102.551C183.273 103.427 182.925 104.267 182.306 104.886C181.688 105.505 180.849 105.854 179.975 105.855V105.855Z" fill="#4267B2"/>
<path d="M181.765 259H33.3106C32.6859 258.999 32.087 258.75 31.6452 258.308C31.2035 257.865 30.955 257.266 30.9542 256.64V20.7054C30.955 20.0799 31.2035 19.4802 31.6452 19.0378C32.087 18.5955 32.6859 18.3467 33.3106 18.3459H181.765C182.39 18.3467 182.988 18.5955 183.43 19.0378C183.872 19.4802 184.12 20.0799 184.121 20.7054V256.64C184.12 257.266 183.872 257.865 183.43 258.308C182.988 258.75 182.39 258.999 181.765 259ZM33.3106 19.2897C32.9358 19.2901 32.5764 19.4394 32.3113 19.7048C32.0463 19.9702 31.8972 20.3301 31.8968 20.7054V256.64C31.8972 257.015 32.0463 257.375 32.3113 257.641C32.5764 257.906 32.9358 258.055 33.3106 258.056H181.765C182.14 258.055 182.499 257.906 182.764 257.641C183.029 257.375 183.178 257.015 183.179 256.64V20.7054C183.178 20.3301 183.029 19.9702 182.764 19.7048C182.499 19.4394 182.14 19.2901 181.765 19.2897H33.3106Z" fill="#E6E6E6"/>
<path d="M50.8433 149.741C53.7064 149.741 56.0274 147.417 56.0274 144.55C56.0274 141.683 53.7064 139.359 50.8433 139.359C47.9802 139.359 45.6592 141.683 45.6592 144.55C45.6592 147.417 47.9802 149.741 50.8433 149.741Z" fill="#E6E6E6"/>
<path d="M160.181 154.46H73.9361C73.0614 154.459 72.2229 154.11 71.6045 153.491C70.986 152.872 70.6381 152.032 70.6371 151.156V137.943C70.6381 137.068 70.986 136.228 71.6045 135.609C72.2229 134.99 73.0614 134.641 73.9361 134.64H160.181C161.055 134.641 161.894 134.99 162.512 135.609C163.131 136.228 163.479 137.068 163.48 137.943V151.156C163.479 152.032 163.131 152.872 162.512 153.491C161.894 154.11 161.055 154.459 160.181 154.46Z" fill="#E6E6E6"/>
<path d="M163.48 154.932H70.6371C70.5121 154.932 70.3922 154.882 70.3038 154.793C70.2154 154.705 70.1658 154.585 70.1658 154.46C70.1658 154.334 70.2154 154.214 70.3038 154.126C70.3922 154.037 70.5121 153.988 70.6371 153.988H163.48C163.605 153.988 163.725 154.037 163.813 154.126C163.901 154.214 163.951 154.334 163.951 154.46C163.951 154.585 163.901 154.705 163.813 154.793C163.725 154.882 163.605 154.932 163.48 154.932Z" fill="#3F3D56"/>
<path d="M50.8433 180.886C53.7064 180.886 56.0274 178.562 56.0274 175.695C56.0274 172.828 53.7064 170.504 50.8433 170.504C47.9802 170.504 45.6592 172.828 45.6592 175.695C45.6592 178.562 47.9802 180.886 50.8433 180.886Z" fill="#E6E6E6"/>
<path d="M160.181 185.605H73.9361C73.0614 185.604 72.2229 185.255 71.6045 184.636C70.986 184.017 70.6381 183.177 70.6371 182.301V169.088C70.6381 168.213 70.986 167.373 71.6045 166.754C72.2229 166.134 73.0614 165.786 73.9361 165.785H160.181C161.055 165.786 161.894 166.134 162.512 166.754C163.131 167.373 163.479 168.213 163.48 169.088V182.301C163.479 183.177 163.131 184.017 162.512 184.636C161.894 185.255 161.055 185.603 160.181 185.605Z" fill="#E6E6E6"/>
<path d="M163.48 186.076H70.6371C70.5121 186.076 70.3922 186.027 70.3038 185.938C70.2154 185.85 70.1658 185.73 70.1658 185.605C70.1658 185.479 70.2154 185.359 70.3038 185.271C70.3922 185.182 70.5121 185.133 70.6371 185.133H163.48C163.605 185.133 163.725 185.182 163.813 185.271C163.901 185.359 163.951 185.479 163.951 185.605C163.951 185.73 163.901 185.85 163.813 185.938C163.725 186.027 163.605 186.076 163.48 186.076Z" fill="#3F3D56"/>
<path d="M50.8433 212.031C53.7064 212.031 56.0274 209.707 56.0274 206.84C56.0274 203.973 53.7064 201.649 50.8433 201.649C47.9802 201.649 45.6592 203.973 45.6592 206.84C45.6592 209.707 47.9802 212.031 50.8433 212.031Z" fill="#E6E6E6"/>
<path d="M109.754 216.749H73.9361C73.0614 216.748 72.2229 216.4 71.6045 215.781C70.986 215.162 70.6381 214.322 70.6371 213.446V200.233C70.6381 199.357 70.986 198.518 71.6045 197.899C72.2229 197.279 73.0614 196.931 73.9361 196.93H109.754C110.628 196.931 111.467 197.279 112.085 197.899C112.704 198.518 113.051 199.357 113.052 200.233V213.446C113.051 214.322 112.704 215.162 112.085 215.781C111.467 216.4 110.628 216.748 109.754 216.749Z" fill="#E6E6E6"/>
<path d="M113.052 217.221H70.6371C70.5121 217.221 70.3922 217.172 70.3038 217.083C70.2154 216.995 70.1658 216.875 70.1658 216.749C70.1658 216.624 70.2154 216.504 70.3038 216.416C70.3922 216.327 70.5121 216.278 70.6371 216.278H113.052C113.177 216.278 113.297 216.327 113.386 216.416C113.474 216.504 113.524 216.624 113.524 216.749C113.524 216.875 113.474 216.995 113.386 217.083C113.297 217.172 113.177 217.221 113.052 217.221Z" fill="#3F3D56"/>
<path d="M160.181 216.749H124.363C123.489 216.748 122.65 216.4 122.032 215.781C121.413 215.162 121.065 214.322 121.064 213.446V200.233C121.065 199.357 121.413 198.518 122.032 197.899C122.65 197.279 123.489 196.931 124.363 196.93H160.181C161.055 196.931 161.894 197.279 162.512 197.899C163.131 198.518 163.479 199.357 163.48 200.233V213.446C163.479 214.322 163.131 215.162 162.512 215.781C161.894 216.4 161.055 216.748 160.181 216.749Z" fill="#E6E6E6"/>
<path d="M163.48 217.221H121.064C120.939 217.221 120.819 217.172 120.731 217.083C120.643 216.995 120.593 216.875 120.593 216.749C120.593 216.624 120.643 216.504 120.731 216.416C120.819 216.327 120.939 216.278 121.064 216.278H163.48C163.605 216.278 163.725 216.327 163.813 216.416C163.901 216.504 163.951 216.624 163.951 216.749C163.951 216.875 163.901 216.995 163.813 217.083C163.725 217.172 163.605 217.221 163.48 217.221Z" fill="#3F3D56"/>
<path d="M51.012 43.8255C50.2768 43.8376 49.5758 44.1386 49.0601 44.6635C48.5445 45.1883 48.2555 45.8951 48.2555 46.6314C48.2555 47.3677 48.5445 48.0744 49.0601 48.5993C49.5758 49.1242 50.2768 49.4252 51.012 49.4373H164.16C164.528 49.4437 164.894 49.3775 165.237 49.2422C165.58 49.107 165.892 48.9055 166.157 48.6492C166.422 48.3929 166.634 48.0868 166.78 47.7485C166.927 47.4102 167.005 47.0462 167.012 46.6775C167.018 46.3088 166.951 45.9425 166.816 45.5995C166.68 45.2566 166.478 44.9437 166.222 44.6789C165.966 44.414 165.66 44.2023 165.322 44.0559C164.984 43.9094 164.62 43.8312 164.252 43.8255C164.222 43.825 164.191 43.825 164.16 43.8255H51.012Z" fill="white"/>
<path d="M51.012 59.398C50.2768 59.4101 49.5758 59.711 49.0601 60.2359C48.5445 60.7608 48.2555 61.4676 48.2555 62.2039C48.2555 62.9401 48.5445 63.6469 49.0601 64.1718C49.5758 64.6967 50.2768 64.9976 51.012 65.0097H164.16C164.903 65.0211 165.62 64.7369 166.153 64.2194C166.687 63.7019 166.993 62.9935 167.005 62.2499C167.018 61.5062 166.734 60.7882 166.218 60.2534C165.702 59.7187 164.995 59.411 164.252 59.398C164.221 59.3975 164.191 59.3975 164.16 59.398H51.012Z" fill="white"/>
<path d="M51.012 74.9704C50.2768 74.9826 49.5758 75.2835 49.0601 75.8084C48.5445 76.3333 48.2555 77.04 48.2555 77.7763C48.2555 78.5126 48.5445 79.2194 49.0601 79.7442C49.5758 80.2691 50.2768 80.5701 51.012 80.5822H164.16C164.903 80.5936 165.62 80.3093 166.153 79.7918C166.687 79.2743 166.993 78.566 167.005 77.8223C167.018 77.0787 166.734 76.3606 166.218 75.8259C165.702 75.2911 164.995 74.9835 164.252 74.9704C164.221 74.9699 164.191 74.9699 164.16 74.9704H51.012Z" fill="white"/>
<path d="M159.143 240.012L157.957 238.825C157.931 238.799 157.901 238.779 157.867 238.765C157.834 238.751 157.798 238.744 157.762 238.744H157.185C157.13 238.744 157.077 238.76 157.031 238.791C156.986 238.821 156.951 238.864 156.93 238.914C156.909 238.965 156.904 239.02 156.914 239.074C156.925 239.127 156.951 239.177 156.99 239.215L157.646 239.872H152.405C152.28 239.872 152.16 239.922 152.071 240.01C151.983 240.099 151.933 240.219 151.933 240.344C151.933 240.469 151.983 240.589 152.071 240.678C152.16 240.766 152.28 240.816 152.405 240.816H157.646L157.057 241.406C157.013 241.45 156.983 241.506 156.971 241.567C156.958 241.628 156.965 241.692 156.988 241.749C157.012 241.807 157.053 241.856 157.104 241.891C157.156 241.926 157.217 241.944 157.279 241.944H157.745C157.787 241.944 157.828 241.936 157.866 241.92C157.904 241.904 157.939 241.881 157.968 241.852L159.143 240.676C159.186 240.632 159.221 240.58 159.244 240.524C159.268 240.467 159.28 240.406 159.28 240.344C159.28 240.282 159.268 240.222 159.244 240.165C159.221 240.108 159.186 240.056 159.143 240.012V240.012Z" fill="#4267B2"/>
<path d="M155.939 247.894C154.448 247.894 152.99 247.451 151.75 246.621C150.51 245.792 149.544 244.612 148.973 243.233C148.402 241.853 148.253 240.335 148.544 238.87C148.835 237.406 149.553 236.061 150.608 235.005C151.662 233.949 153.006 233.23 154.468 232.938C155.931 232.647 157.447 232.796 158.825 233.368C160.203 233.939 161.381 234.907 162.209 236.149C163.038 237.39 163.48 238.85 163.48 240.343C163.478 242.345 162.683 244.264 161.269 245.68C159.855 247.095 157.939 247.891 155.939 247.894ZM155.939 233.737C154.635 233.737 153.359 234.124 152.274 234.85C151.189 235.576 150.343 236.608 149.844 237.815C149.344 239.022 149.214 240.351 149.468 241.632C149.723 242.914 150.351 244.091 151.274 245.015C152.197 245.939 153.372 246.568 154.652 246.823C155.932 247.078 157.259 246.947 158.464 246.447C159.67 245.947 160.7 245.1 161.425 244.014C162.15 242.927 162.537 241.65 162.537 240.343C162.535 238.592 161.84 236.913 160.603 235.674C159.366 234.436 157.689 233.739 155.939 233.737Z" fill="#3F3D56"/>
</g>
<path d="M313.278 334.008L306.226 336.367L293.773 310.289L304.181 306.808L313.278 334.008Z" fill="#FFB6B6"/>
<path d="M317.362 340.242L294.624 346.323L294.528 346.036C293.738 343.672 293.915 342.664 295.027 340.434C295.572 339.335 296.328 338.355 297.254 337.551C298.179 336.747 299.254 336.134 300.418 335.749L300.419 335.748L303.518 331.208L312.322 331.768L314.306 331.104L317.362 340.242Z" fill="#343A40"/>
<path d="M330.701 340.639H323.265L319.727 311.958L330.702 311.958L330.701 340.639Z" fill="#FFB6B6"/>
<path d="M332.597 346.324L308.621 346.323V346.019C308.621 343.527 309.592 342.706 311.354 340.944C312.219 340.074 313.247 339.385 314.38 338.916C315.512 338.447 316.727 338.207 317.953 338.21H317.953L322.333 334.888L330.504 338.211L332.597 338.211L332.597 346.324Z" fill="#343A40"/>
<path d="M274.109 110.842C274.263 111.621 274.585 112.357 275.053 112.998C275.521 113.639 276.124 114.17 276.82 114.553C277.516 114.936 278.287 115.161 279.079 115.214C279.871 115.266 280.665 115.144 281.405 114.857L289.989 123.819L296.708 119.931L284.408 107.445C283.842 106.234 282.852 105.272 281.625 104.742C280.398 104.212 279.019 104.151 277.749 104.569C276.48 104.988 275.408 105.858 274.738 107.014C274.067 108.17 273.843 109.532 274.109 110.842Z" fill="#FFB6B6"/>
<path d="M329.665 155.905L333.534 151.901L311.155 131.175L288.632 111.063L282.393 119.878L305.996 141.91L329.665 155.905Z" fill="#E4E4E4"/>
<path d="M315.914 291.923C315.914 286.891 316.014 283.302 316.094 280.418C316.328 271.978 316.391 269.709 313.161 255.175L312.331 251.442L307.44 266.117C305.877 270.798 305.079 275.701 305.075 280.636L312.618 325.889H297.202L285.912 276.966L285.907 262.001C284.912 260.971 284.356 259.596 284.356 258.164C284.356 256.733 284.912 255.357 285.907 254.328L289.658 231.908L293.454 201.692H335.04C335.04 201.692 342.379 216.904 335.085 231.994L335.085 291.941L331.316 333.391H319.683L315.914 291.923Z" fill="#343A40"/>
<path d="M332.497 205.349L293.6 202.108L293.398 202.091L296.502 146.216C296.684 142.702 297.917 139.325 300.041 136.52C302.164 133.715 305.08 131.612 308.412 130.484V126.573C308.413 125.605 308.798 124.678 309.483 123.993C310.167 123.309 311.095 122.924 312.063 122.923H317.746C318.425 122.921 319.09 123.108 319.667 123.465C320.244 123.822 320.71 124.333 321.011 124.941L323.79 130.499L334.299 138.906C339.49 143.059 335.312 184.69 335.088 186.887L337.629 199.595C337.769 200.294 337.752 201.016 337.58 201.708C337.407 202.399 337.084 203.044 336.633 203.596C336.181 204.148 335.613 204.593 334.97 204.899C334.326 205.205 333.622 205.365 332.909 205.367C332.773 205.367 332.635 205.361 332.497 205.349Z" fill="#E4E4E4"/>
<path d="M291.305 220.103C291.92 219.601 292.418 218.97 292.762 218.255C293.107 217.539 293.291 216.757 293.301 215.963C293.31 215.17 293.146 214.383 292.819 213.66C292.492 212.936 292.01 212.293 291.408 211.776L295.267 199.981L288.672 195.888L283.456 212.621C282.654 213.69 282.272 215.017 282.383 216.349C282.494 217.681 283.09 218.926 284.057 219.848C285.025 220.771 286.297 221.306 287.633 221.353C288.969 221.4 290.275 220.955 291.305 220.103Z" fill="#FFB6B6"/>
<path d="M304.87 139.92L299.515 138.135L291.78 172.643L284.657 206.962L295.371 208.538L303.68 172.048L304.87 139.92Z" fill="#E4E4E4"/>
<path d="M310.718 119.351C317.773 119.351 323.493 113.632 323.493 106.576C323.493 99.5207 317.773 93.801 310.718 93.801C303.662 93.801 297.943 99.5207 297.943 106.576C297.943 113.632 303.662 119.351 310.718 119.351Z" fill="#FFB6B6"/>
<path d="M293.529 100.32C293.646 99.1093 293.993 97.932 294.551 96.851C295.148 98.1496 297.011 98.3749 298.286 97.7286C299.561 97.0822 300.416 95.8546 301.327 94.7533C303.731 91.847 307.037 89.4895 310.785 89.0602C314.532 88.6308 318.663 90.5224 320.079 94.0184C320.714 93.1362 322.07 93.0381 323.029 93.5508C323.955 94.1348 324.678 94.9912 325.098 96.0024C326.041 97.9374 326.574 100.046 326.663 102.197C326.753 104.348 326.397 106.494 325.617 108.501C324.039 112.494 320.143 117.873 316.123 119.381C313.682 120.295 311.217 119.124 308.621 119.381C308.757 116.548 309.306 113.052 309.442 110.219C309.516 108.668 309.527 106.932 308.467 105.796C308.142 105.488 307.753 105.254 307.328 105.113C306.903 104.971 306.452 104.924 306.007 104.976C305.561 105.028 305.133 105.178 304.752 105.413C304.371 105.649 304.046 105.966 303.801 106.341C303.67 105.46 303.372 104.612 302.924 103.843C302.695 103.461 302.363 103.151 301.966 102.948C301.57 102.745 301.124 102.656 300.68 102.693C299.596 102.871 298.927 103.983 297.932 104.449C297.367 104.676 296.747 104.724 296.154 104.588C295.56 104.452 295.023 104.138 294.613 103.688C294.215 103.228 293.914 102.693 293.727 102.115C293.541 101.536 293.473 100.926 293.529 100.32Z" fill="#343A40"/>
<path opacity="0.1" d="M312.371 171.893L297.368 201.9H308.621L312.371 171.893Z" fill="#343A40"/>
<defs>
<clipPath id="clip0">
<rect width="391" height="259" fill="white"/>
</clipPath>
</defs>
</svg>
