<svg width="82" height="86" viewBox="0 0 82 86" fill="none" xmlns="http://www.w3.org/2000/svg">
<rect x="-0.777633" y="-0.303346" width="46.8059" height="62.6823" rx="5.22754" transform="matrix(0.922159 -0.38681 0.416652 0.909066 4.79828 29.5523)" fill="#FAFAFA" stroke="white" stroke-width="1.16168"/>
<path d="M6.66848 34.1048C5.59923 31.7719 6.65088 29.0759 9.01743 28.0832L42.5387 14.0224C44.9052 13.0297 47.6905 14.1162 48.7597 16.4491L52.7192 25.088L10.6279 42.7437L6.66848 34.1048Z" fill="#DFDBFF"/>
<rect width="1.84562" height="6.33948" rx="0.92281" transform="matrix(0.416652 0.909066 -0.922159 0.38681 56.874 11.3431)" fill="white"/>
<rect width="1.90184" height="6.15207" rx="0.950922" transform="matrix(0.922159 -0.38681 0.416652 0.909066 37.1326 6.28788)" fill="white"/>
<rect width="1.87394" height="6.24648" rx="0.936971" transform="matrix(0.951938 0.355503 -0.371609 0.91068 48.3943 4.89893)" fill="white"/>
<rect width="36.769" height="2.46083" rx="1.16168" transform="matrix(0.922159 -0.38681 0.416652 0.909066 15.7456 43.2643)" fill="#DBD6FF"/>
<rect width="36.769" height="2.46083" rx="1.16168" transform="matrix(0.922159 -0.38681 0.416652 0.909066 20.8718 54.4491)" fill="#DBD6FF"/>
<rect width="36.769" height="2.46083" rx="1.16168" transform="matrix(0.922159 -0.38681 0.416652 0.909066 25.999 65.6362)" fill="#DBD6FF"/>
<rect width="13.3129" height="2.46083" rx="1.16168" transform="matrix(0.922159 -0.38681 0.416652 0.909066 17.7964 47.7396)" fill="#DFDBFF"/>
<rect width="13.3129" height="2.46083" rx="1.16168" transform="matrix(0.922159 -0.38681 0.416652 0.909066 22.9229 58.9244)" fill="#DFDBFF"/>
<rect width="13.3129" height="2.46083" rx="1.16168" transform="matrix(0.922159 -0.38681 0.416652 0.909066 28.0493 70.1092)" fill="#DFDBFF"/>
</svg>
