<svg width="52" height="52" viewBox="0 0 52 52" fill="none" xmlns="http://www.w3.org/2000/svg">
<path d="M23.8334 8.66675H8.66671C7.51744 8.66675 6.41524 9.12329 5.60258 9.93595C4.78992 10.7486 4.33337 11.8508 4.33337 13.0001V43.3334C4.33337 44.4827 4.78992 45.5849 5.60258 46.3975C6.41524 47.2102 7.51744 47.6668 8.66671 47.6668H39C40.1493 47.6668 41.2515 47.2102 42.0642 46.3975C42.8768 45.5849 43.3334 44.4827 43.3334 43.3334V28.1668" stroke="#FBEFD5" stroke-width="3.25" stroke-linecap="round" stroke-linejoin="round"/>
<path d="M40.0834 5.41699C40.9453 4.55504 42.1144 4.0708 43.3334 4.0708C44.5524 4.0708 45.7214 4.55504 46.5834 5.41699C47.4453 6.27895 47.9296 7.44801 47.9296 8.66699C47.9296 9.88598 47.4453 11.055 46.5834 11.917L26 32.5003L17.3334 34.667L19.5 26.0003L40.0834 5.41699Z" stroke="#FBEFD5" stroke-width="3.25" stroke-linecap="round" stroke-linejoin="round"/>
</svg>
