<svg width="133" height="122" viewBox="0 0 133 122" fill="none" xmlns="http://www.w3.org/2000/svg">
<g clip-path="url(#clip0)">
<path d="M93.9756 111.885H33.4971C32.0607 111.883 30.6837 111.312 29.6683 110.296C28.6528 109.28 28.0819 107.903 28.0808 106.467V83.2194C27.9556 83.3622 27.8246 83.503 27.6896 83.6399V106.467C27.691 108.007 28.3032 109.483 29.392 110.572C30.4807 111.662 31.9571 112.274 33.4971 112.276H94.1458C94.0871 112.147 94.0304 112.016 93.9756 111.885ZM28.0808 25.9565C28.0819 24.5202 28.6528 23.143 29.6683 22.1272C30.6837 21.1114 32.0607 20.54 33.4971 20.5383H53.6481C53.6109 20.4073 53.5757 20.2782 53.5425 20.1471H33.4971C31.9571 20.149 30.4807 20.7618 29.392 21.8509C28.3032 22.94 27.691 24.4166 27.6896 25.9565V83.6399C27.8246 83.7769 28.0808 85 28.0808 85V25.9565ZM109.287 30.5258L96.6515 20.5168C96.3498 20.2777 95.9763 20.1474 95.5913 20.1471H84.3461C84.3147 20.2782 84.2796 20.4092 84.2424 20.5383H95.5913C95.8879 20.539 96.1756 20.6389 96.4089 20.822L109.045 30.8329C109.165 30.9275 109.262 31.0482 109.328 31.1858C109.395 31.3234 109.429 31.4743 109.428 31.6271V89.8836C109.559 89.8875 109.69 89.8973 109.819 89.9071V31.6271C109.82 31.4152 109.773 31.2059 109.68 31.0151C109.588 30.8243 109.454 30.657 109.287 30.5258Z" fill="#3F3D56"/>
<path d="M109.121 31.0426H98.9246C98.556 31.0426 98.1911 30.97 97.8506 30.829C97.5101 30.6879 97.2007 30.4812 96.9401 30.2206C96.6794 29.96 96.4727 29.6506 96.3317 29.3101C96.1906 28.9696 96.118 28.6046 96.118 28.2361V20.7055C96.118 20.6725 96.1273 20.6402 96.1449 20.6123C96.1624 20.5844 96.1874 20.5619 96.2171 20.5476C96.2468 20.5332 96.2799 20.5275 96.3127 20.5311C96.3454 20.5348 96.3765 20.5475 96.4024 20.568L109.229 30.7297C109.258 30.7523 109.279 30.7832 109.289 30.8182C109.299 30.8532 109.298 30.8905 109.286 30.9248C109.274 30.9592 109.252 30.9891 109.222 31.0102C109.192 31.0313 109.157 31.0426 109.121 31.0426Z" fill="#E6E6E6"/>
<path d="M109.12 31.2382H98.9246C98.1286 31.2373 97.3655 30.9207 96.8027 30.3579C96.2399 29.795 95.9233 29.032 95.9224 28.236V20.7055C95.9224 20.6358 95.9421 20.5674 95.9791 20.5084C96.0162 20.4493 96.0691 20.4018 96.1319 20.3715C96.1947 20.3411 96.2647 20.329 96.334 20.3367C96.4034 20.3443 96.4691 20.3713 96.5238 20.4146L109.351 30.5764C109.411 30.6242 109.455 30.6896 109.477 30.7636C109.498 30.8376 109.496 30.9164 109.471 30.9892C109.446 31.0619 109.398 31.125 109.335 31.1696C109.273 31.2142 109.198 31.2382 109.12 31.2382ZM96.3136 20.7472V28.236C96.3144 28.9282 96.5897 29.5919 97.0792 30.0814C97.5687 30.5708 98.2323 30.8462 98.9246 30.847H109.062L96.3136 20.7472Z" fill="#3F3D56"/>
<path d="M88.8811 44.0227H58.8865C58.5143 44.0227 58.1574 43.8748 57.8942 43.6117C57.6311 43.3485 57.4832 42.9916 57.4832 42.6194C57.4832 42.2473 57.6311 41.8903 57.8942 41.6272C58.1574 41.364 58.5143 41.2162 58.8865 41.2162H88.8811C89.2533 41.2162 89.6102 41.364 89.8734 41.6272C90.1365 41.8903 90.2844 42.2473 90.2844 42.6194C90.2844 42.9916 90.1365 43.3485 89.8734 43.6117C89.6102 43.8748 89.2533 44.0227 88.8811 44.0227Z" fill="#CCCCCC"/>
<path d="M94.6695 48.7587H58.8865C58.5143 48.7587 58.1574 48.6109 57.8942 48.3477C57.6311 48.0845 57.4832 47.7276 57.4832 47.3554C57.4832 46.9833 57.6311 46.6263 57.8942 46.3632C58.1574 46.1 58.5143 45.9522 58.8865 45.9522H94.6695C95.0417 45.9522 95.3986 46.1 95.6618 46.3632C95.9249 46.6263 96.0728 46.9833 96.0728 47.3554C96.0728 47.7276 95.9249 48.0845 95.6618 48.3477C95.3986 48.6109 95.0417 48.7587 94.6695 48.7587H94.6695Z" fill="#CCCCCC"/>
<path d="M88.8811 65.2469H58.8865C58.5143 65.2469 58.1574 65.0991 57.8942 64.8359C57.6311 64.5728 57.4832 64.2158 57.4832 63.8437C57.4832 63.4715 57.6311 63.1146 57.8942 62.8514C58.1574 62.5883 58.5143 62.4404 58.8865 62.4404H88.8811C89.2533 62.4404 89.6102 62.5883 89.8734 62.8514C90.1365 63.1146 90.2844 63.4715 90.2844 63.8437C90.2844 64.2158 90.1365 64.5728 89.8734 64.8359C89.6102 65.0991 89.2533 65.2469 88.8811 65.2469Z" fill="#CCCCCC"/>
<path d="M94.6695 69.9829H58.8865C58.5143 69.9829 58.1574 69.8351 57.8942 69.5719C57.6311 69.3088 57.4832 68.9518 57.4832 68.5797C57.4832 68.2075 57.6311 67.8506 57.8942 67.5874C58.1574 67.3243 58.5143 67.1764 58.8865 67.1764H94.6695C95.0417 67.1764 95.3986 67.3243 95.6618 67.5874C95.9249 67.8506 96.0728 68.2075 96.0728 68.5797C96.0728 68.9518 95.9249 69.3088 95.6618 69.5719C95.3986 69.8351 95.0417 69.9829 94.6695 69.9829H94.6695Z" fill="#CCCCCC"/>
<path d="M88.8811 86.4712H58.8865C58.7022 86.4712 58.5197 86.4349 58.3495 86.3644C58.1792 86.2938 58.0245 86.1905 57.8942 86.0602C57.7639 85.9299 57.6606 85.7752 57.59 85.6049C57.5195 85.4347 57.4832 85.2522 57.4832 85.0679C57.4832 84.8836 57.5195 84.7012 57.59 84.5309C57.6606 84.3607 57.7639 84.206 57.8942 84.0757C58.0245 83.9454 58.1792 83.842 58.3495 83.7715C58.5197 83.701 58.7022 83.6647 58.8865 83.6647H88.8811C89.2533 83.6647 89.6102 83.8125 89.8734 84.0757C90.1365 84.3388 90.2844 84.6958 90.2844 85.0679C90.2844 85.4401 90.1365 85.797 89.8734 86.0602C89.6102 86.3233 89.2533 86.4712 88.8811 86.4712Z" fill="#CCCCCC"/>
<path d="M94.6695 91.2072H58.8865C58.7022 91.2072 58.5197 91.1709 58.3495 91.1004C58.1792 91.0299 58.0245 90.9265 57.8942 90.7962C57.7639 90.6659 57.6606 90.5112 57.59 90.3409C57.5195 90.1707 57.4832 89.9882 57.4832 89.8039C57.4832 89.6197 57.5195 89.4372 57.59 89.2669C57.6606 89.0967 57.7639 88.942 57.8942 88.8117C58.0245 88.6814 58.1792 88.578 58.3495 88.5075C58.5197 88.437 58.7022 88.4007 58.8865 88.4007H94.6695C94.8538 88.4007 95.0363 88.437 95.2065 88.5075C95.3768 88.578 95.5315 88.6814 95.6618 88.8117C95.7921 88.942 95.8954 89.0967 95.966 89.2669C96.0365 89.4372 96.0728 89.6197 96.0728 89.8039C96.0728 89.9882 96.0365 90.1707 95.966 90.3409C95.8954 90.5112 95.7921 90.6659 95.6618 90.7962C95.5315 90.9265 95.3768 91.0299 95.2065 91.1004C95.0363 91.1709 94.8538 91.2072 94.6695 91.2072H94.6695Z" fill="#CCCCCC"/>
<path d="M46.396 49.9472C49.1352 49.9472 51.3557 47.7266 51.3557 44.9874C51.3557 42.2483 49.1352 40.0277 46.396 40.0277C43.6568 40.0277 41.4362 42.2483 41.4362 44.9874C41.4362 47.7266 43.6568 49.9472 46.396 49.9472Z" fill="#4267B2"/>
<path d="M45.9045 46.8794C45.7929 46.8796 45.6843 46.8435 45.595 46.7766L45.5895 46.7724L44.4239 45.8808C44.3698 45.8395 44.3244 45.7878 44.2902 45.7289C44.2561 45.67 44.2339 45.6049 44.2249 45.5374C44.216 45.47 44.2204 45.4014 44.238 45.3356C44.2555 45.2698 44.2859 45.2081 44.3273 45.1541C44.3688 45.1 44.4204 45.0547 44.4794 45.0206C44.5384 44.9866 44.6035 44.9645 44.671 44.9556C44.7385 44.9468 44.8071 44.9513 44.8728 44.969C44.9386 44.9867 45.0002 45.0171 45.0542 45.0586L45.8092 45.6376L47.5933 43.3101C47.6346 43.2561 47.6862 43.2108 47.7451 43.1768C47.804 43.1428 47.869 43.1207 47.9364 43.1118C48.0038 43.1029 48.0723 43.1073 48.138 43.1249C48.2037 43.1425 48.2652 43.1728 48.3192 43.2142L48.3193 43.2143L48.3083 43.2297L48.3196 43.2143C48.4285 43.298 48.4997 43.4214 48.5177 43.5575C48.5356 43.6937 48.4989 43.8313 48.4154 43.9404L46.317 46.6768C46.2684 46.7399 46.206 46.7909 46.1345 46.8259C46.0631 46.861 45.9845 46.8791 45.905 46.8788L45.9045 46.8794Z" fill="white"/>
<path d="M46.396 71.1714C49.1352 71.1714 51.3557 68.9509 51.3557 66.2117C51.3557 63.4725 49.1352 61.252 46.396 61.252C43.6568 61.252 41.4362 63.4725 41.4362 66.2117C41.4362 68.9509 43.6568 71.1714 46.396 71.1714Z" fill="#E6E6E6"/>
<path d="M45.9045 68.1037C45.7929 68.1039 45.6843 68.0678 45.595 68.0009L45.5895 67.9967L44.4239 67.1051C44.3149 67.0215 44.2435 66.898 44.2255 66.7618C44.2075 66.6256 44.2444 66.4878 44.328 66.3788C44.4116 66.2698 44.535 66.1984 44.6712 66.1804C44.8074 66.1625 44.9452 66.1993 45.0542 66.2829L45.8092 66.8618L47.5933 64.5343C47.6346 64.4804 47.6862 64.4351 47.7451 64.4011C47.804 64.367 47.869 64.3449 47.9364 64.336C48.0038 64.3271 48.0723 64.3316 48.138 64.3492C48.2037 64.3667 48.2652 64.3971 48.3192 64.4384L48.3194 64.4386L48.3083 64.4539L48.3196 64.4386C48.4285 64.5222 48.4997 64.6457 48.5177 64.7818C48.5356 64.9179 48.4989 65.0556 48.4154 65.1646L46.317 67.9011C46.2684 67.9641 46.206 68.0151 46.1345 68.0502C46.0631 68.0852 45.9845 68.1033 45.905 68.1031L45.9045 68.1037Z" fill="white"/>
<path d="M46.396 92.3957C49.1352 92.3957 51.3557 90.1752 51.3557 87.436C51.3557 84.6968 49.1352 82.4762 46.396 82.4762C43.6568 82.4762 41.4362 84.6968 41.4362 87.436C41.4362 90.1752 43.6568 92.3957 46.396 92.3957Z" fill="#E6E6E6"/>
<path d="M45.9045 89.3279C45.7929 89.3281 45.6843 89.292 45.595 89.2251L45.5895 89.2209L44.4239 88.3293C44.3698 88.288 44.3244 88.2363 44.2902 88.1774C44.2561 88.1185 44.2339 88.0534 44.2249 87.9859C44.216 87.9185 44.2204 87.8499 44.238 87.7841C44.2555 87.7183 44.2859 87.6566 44.3273 87.6026C44.3688 87.5485 44.4204 87.5032 44.4794 87.4691C44.5384 87.4351 44.6035 87.413 44.671 87.4041C44.7385 87.3953 44.8071 87.3998 44.8728 87.4175C44.9386 87.4351 45.0002 87.4656 45.0542 87.5071L45.8092 88.0861L47.5933 85.7586C47.6346 85.7046 47.6862 85.6593 47.7451 85.6253C47.804 85.5913 47.869 85.5692 47.9364 85.5603C48.0038 85.5514 48.0723 85.5558 48.138 85.5734C48.2037 85.591 48.2652 85.6213 48.3192 85.6627L48.3193 85.6628L48.3083 85.6782L48.3196 85.6628C48.4285 85.7465 48.4997 85.8699 48.5177 86.006C48.5356 86.1422 48.4989 86.2798 48.4154 86.3889L46.317 89.1253C46.2684 89.1884 46.206 89.2394 46.1345 89.2744C46.0631 89.3095 45.9845 89.3276 45.905 89.3273L45.9045 89.3279Z" fill="white"/>
<path d="M116.129 120.164C115.849 120.31 115.564 120.448 115.275 120.579C115.011 120.698 114.744 120.81 114.472 120.915C114.372 120.953 114.271 120.991 114.17 121.029C113.371 121.319 112.55 121.545 111.715 121.706C111.301 121.787 110.882 121.851 110.458 121.897C110.108 121.937 109.754 121.965 109.396 121.982C109.142 121.995 108.887 122 108.631 122C107.615 122 106.602 121.906 105.605 121.717C105.345 121.67 105.09 121.614 104.836 121.552C103.604 121.257 102.412 120.817 101.284 120.241C101.183 120.191 101.082 120.137 100.981 120.084C100.831 120.005 100.685 119.922 100.539 119.835C100.609 119.738 100.685 119.642 100.762 119.548C101.607 118.501 102.663 117.644 103.862 117.032C105.06 116.421 106.374 116.069 107.717 115.999C109.061 115.929 110.404 116.143 111.659 116.627C112.914 117.111 114.053 117.854 115.002 118.808C115.332 119.138 115.637 119.492 115.916 119.866C115.99 119.963 116.06 120.063 116.129 120.164Z" fill="#4267B2"/>
<path d="M108.991 112.233C113.37 112.233 116.919 108.683 116.919 104.305C116.919 99.9265 113.37 96.3771 108.991 96.3771C104.613 96.3771 101.063 99.9265 101.063 104.305C101.063 108.683 104.613 112.233 108.991 112.233Z" fill="#2F2E41"/>
<path d="M111.1 112.244C113.959 110.681 115.01 107.096 113.447 104.236C111.884 101.377 108.299 100.326 105.439 101.889C102.58 103.452 101.529 107.037 103.092 109.897C104.655 112.756 108.24 113.807 111.1 112.244Z" fill="#A0616A"/>
<path d="M114.469 103.355C113.121 104.285 111.521 104.779 109.883 104.773C110.467 105.178 111.132 105.451 111.832 105.574C109.655 106.042 107.405 106.054 105.222 105.612C104.737 105.534 104.269 105.373 103.839 105.136C103.624 105.017 103.437 104.853 103.29 104.656C103.143 104.459 103.039 104.234 102.985 103.994C102.84 103.166 103.485 102.413 104.156 101.906C105.183 101.141 106.367 100.614 107.623 100.363C108.879 100.112 110.175 100.143 111.417 100.455C112.228 100.664 113.041 101.019 113.568 101.67C114.094 102.321 114.25 103.326 113.749 103.996L114.469 103.355Z" fill="#2F2E41"/>
<path d="M109.819 89.5432C109.69 89.5334 109.559 89.5256 109.428 89.5197C109.164 89.506 108.898 89.5002 108.63 89.5002C105.966 89.5003 103.342 90.1556 100.99 91.4085C98.6385 92.6614 96.6311 94.4734 95.1447 96.6849C93.6582 98.8964 92.7385 101.439 92.4664 104.09C92.1943 106.741 92.5782 109.418 93.5844 111.885C93.6372 112.016 93.692 112.147 93.7507 112.276C95.0949 115.321 97.3358 117.884 100.174 119.623L100.278 119.684C100.366 119.737 100.452 119.787 100.538 119.834C100.685 119.922 100.832 120.005 100.98 120.085C101.082 120.138 101.184 120.19 101.283 120.241C102.411 120.817 103.604 121.257 104.835 121.552C105.09 121.614 105.344 121.669 105.604 121.716C106.602 121.905 107.615 122 108.63 122C108.886 122 109.141 121.994 109.397 121.982C109.753 121.966 110.107 121.937 110.457 121.898C110.882 121.851 111.301 121.787 111.715 121.706C112.55 121.545 113.37 121.319 114.17 121.029C114.271 120.99 114.373 120.953 114.471 120.914C114.745 120.81 115.011 120.699 115.275 120.58C115.564 120.449 115.849 120.31 116.13 120.163C118.94 118.69 121.263 116.435 122.817 113.669C122.824 113.654 122.832 113.64 122.841 113.626C124.164 111.241 124.866 108.561 124.881 105.833C124.896 103.105 124.223 100.418 122.926 98.0182C121.629 95.6188 119.748 93.5846 117.457 92.1035C115.167 90.6223 112.54 89.7418 109.819 89.5432L109.819 89.5432ZM124.239 108.732C123.925 110.373 123.353 111.953 122.544 113.415C122.53 113.44 122.516 113.466 122.502 113.489C120.98 116.214 118.69 118.432 115.916 119.866C115.639 120.01 115.358 120.146 115.073 120.272C114.837 120.378 114.594 120.48 114.35 120.574C114.248 120.613 114.142 120.654 114.039 120.689C113.348 120.941 112.64 121.144 111.92 121.295C111.387 121.41 110.847 121.494 110.305 121.55C109.97 121.587 109.632 121.612 109.289 121.624C109.07 121.634 108.851 121.64 108.63 121.64C107.648 121.64 106.667 121.548 105.702 121.366C105.114 121.258 104.534 121.116 103.963 120.939C103.094 120.672 102.249 120.329 101.438 119.916C101.344 119.868 101.25 119.819 101.158 119.768C101.025 119.697 100.892 119.625 100.763 119.549C100.665 119.494 100.567 119.435 100.472 119.379C100.415 119.345 100.36 119.312 100.303 119.277C97.6012 117.607 95.4576 115.169 94.1458 112.276C94.087 112.147 94.0304 112.016 93.9756 111.885C92.9648 109.47 92.5663 106.843 92.8155 104.237C93.0647 101.632 93.9539 99.1277 95.4041 96.9484C96.8543 94.769 98.8205 92.9818 101.128 91.7455C103.435 90.5092 106.012 89.8622 108.63 89.8621C108.898 89.8621 109.164 89.8679 109.428 89.8836C109.559 89.8875 109.69 89.8973 109.819 89.9071C112.051 90.0762 114.223 90.7147 116.191 91.7807C118.159 92.8468 119.88 94.3163 121.241 96.0933C122.602 97.8702 123.573 99.9146 124.09 102.092C124.606 104.27 124.657 106.533 124.239 108.732L124.239 108.732Z" fill="#3F3D56"/>
<path d="M104.976 96.4865C104.891 95.5895 103.792 95.0373 102.933 95.3083C102.074 95.5792 101.509 96.4444 101.339 97.3292C101.257 97.7018 101.249 98.0869 101.316 98.4625C101.383 98.8381 101.524 99.1967 101.73 99.5178C102.164 100.143 102.962 100.533 103.707 100.374C104.557 100.193 105.145 99.3634 105.314 98.5109C105.482 97.6585 105.315 96.7796 105.148 95.9269L104.976 96.4865Z" fill="#2F2E41"/>
<path d="M117.07 97.7679C116.985 96.8709 115.886 96.3187 115.026 96.5896C114.167 96.8606 113.603 97.7258 113.432 98.6105C113.35 98.9831 113.343 99.3683 113.41 99.7439C113.477 100.119 113.617 100.478 113.823 100.799C114.258 101.424 115.056 101.814 115.8 101.656C116.65 101.475 117.239 100.645 117.408 99.7923C117.576 98.9399 117.409 98.061 117.242 97.2082L117.07 97.7679Z" fill="#2F2E41"/>
<path d="M77.6115 29.7798C75.0961 31.3904 72.1819 32.2687 69.1954 32.3162C66.209 32.3638 63.2683 31.5786 60.703 30.0488C61.1543 29.2087 61.7261 28.4393 62.4002 27.7648C63.4404 26.7197 64.7063 25.9269 66.1007 25.4474C67.495 24.9678 68.9808 24.8143 70.4438 24.9986C71.9067 25.1829 73.308 25.7001 74.5399 26.5105C75.7718 27.3208 76.8015 28.4028 77.55 29.6732C77.5699 29.7075 77.5916 29.7437 77.6115 29.7798Z" fill="#4267B2"/>
<path d="M68.4513 21.1459C72.8588 21.1459 76.4319 17.5728 76.4319 13.1653C76.4319 8.75776 72.8588 5.18474 68.4513 5.18474C64.0438 5.18474 60.4707 8.75776 60.4707 13.1653C60.4707 17.5728 64.0438 21.1459 68.4513 21.1459Z" fill="#2F2E41"/>
<path d="M73.6071 18.7943C75.1806 15.9159 74.1227 12.3069 71.2443 10.7334C68.3659 9.15996 64.7569 10.2178 63.1835 13.0962C61.61 15.9746 62.6678 19.5836 65.5462 21.1571C68.4247 22.7306 72.0336 21.6727 73.6071 18.7943Z" fill="#FFB8B8"/>
<path d="M62.9365 12.2092C64.2938 13.1447 65.9048 13.6426 67.5533 13.636C66.9652 14.0437 66.2958 14.3191 65.5911 14.4432C67.7828 14.9134 70.048 14.9261 72.2449 14.4806C72.7333 14.4023 73.2045 14.2405 73.6378 14.0022C73.8538 13.8816 74.042 13.7169 74.1901 13.5188C74.3382 13.3207 74.443 13.0936 74.4976 12.8524C74.6436 12.0184 73.9938 11.2607 73.3184 10.7501C72.2845 9.98019 71.0923 9.44976 69.8282 9.19715C68.564 8.94454 67.2595 8.97608 66.0091 9.28948C65.1926 9.50053 64.3747 9.85712 63.8443 10.5128C63.314 11.1686 63.1569 12.1794 63.6622 12.8547L62.9365 12.2092Z" fill="#2F2E41"/>
<path d="M68.9404 0C64.6322 0.00479009 60.5019 1.71818 57.4554 4.76432C54.4089 7.81046 52.695 11.9406 52.6897 16.2488C52.6903 17.563 52.8519 18.8722 53.1709 20.1471C53.2041 20.2782 53.2373 20.4092 53.2726 20.5383C54.2099 23.975 56.2516 27.0079 59.083 29.1694C61.9144 31.3309 65.3782 32.5011 68.9404 32.4995C72.5033 32.4994 75.9674 31.3288 78.8 29.1676C81.6326 27.0065 83.6767 23.9746 84.618 20.5383C84.6532 20.4073 84.6865 20.2782 84.7177 20.1471C85.307 17.7535 85.3443 15.2572 84.8269 12.847C84.3094 10.4368 83.2507 8.17576 81.7309 6.23493C80.211 4.2941 78.2697 2.72425 76.0539 1.64409C73.838 0.563925 71.4055 0.00172455 68.9404 0ZM84.3461 20.1471C84.3147 20.2782 84.2796 20.4092 84.2424 20.5383C83.5825 22.8888 82.39 25.0556 80.7576 26.8708C79.1251 28.686 77.0965 30.1009 74.829 31.0056C72.5616 31.9104 70.1162 32.2807 67.6825 32.088C65.2488 31.8952 62.8922 31.1445 60.7955 29.894C57.3107 27.797 54.7551 24.4519 53.6481 20.5383C53.611 20.4073 53.5757 20.2782 53.5425 20.1471C53.2165 18.8733 53.0516 17.5636 53.0516 16.2488C53.0541 13.998 53.5348 11.7735 54.4618 9.72259C55.3889 7.67165 56.7411 5.84109 58.429 4.35214C60.1168 2.8632 62.1017 1.74985 64.2523 1.08586C66.4028 0.421867 68.6699 0.222377 70.9034 0.500601C73.1369 0.778824 75.2857 1.52841 77.2076 2.69972C79.1296 3.87102 80.7807 5.43731 82.0517 7.29483C83.3226 9.15236 84.1844 11.2587 84.58 13.4744C84.9755 15.6901 84.8958 17.9646 84.3461 20.1471H84.3461Z" fill="#3F3D56"/>
<path d="M43.302 7.07734L43.2844 6.68651C43.6763 6.66894 44.0732 6.65767 44.4643 6.65298L44.469 7.04419C44.0821 7.04878 43.6895 7.05995 43.302 7.07734Z" fill="#E6E6E6"/>
<path d="M101.738 10.9454C101.394 10.7642 101.047 10.5861 100.698 10.4111L100.873 10.0614C101.224 10.2374 101.574 10.4166 101.92 10.5991L101.738 10.9454Z" fill="#E6E6E6"/>
<path d="M128.322 83.1478L127.96 82.9994C128.254 82.2812 128.537 81.5486 128.801 80.8218L129.169 80.9552C128.903 81.6871 128.618 82.4247 128.322 83.1478ZM129.925 78.7299L129.553 78.6116C129.787 77.8729 130.009 77.1194 130.213 76.3723L130.591 76.4753C130.385 77.2276 130.162 77.9861 129.925 78.7299ZM131.162 74.1952L130.781 74.1078C130.954 73.3518 131.114 72.5827 131.255 71.8217L131.64 71.8933C131.497 72.6595 131.337 73.4339 131.162 74.1952V74.1952ZM132.022 69.5736L131.635 69.518C131.745 68.7509 131.841 67.9711 131.919 67.2004L132.308 67.2401C132.229 68.016 132.133 68.8012 132.022 69.5736V69.5736ZM132.498 64.8965L132.107 64.873C132.154 64.0998 132.185 63.3149 132.2 62.5398L132.591 62.5472C132.576 63.3276 132.545 64.118 132.498 64.8965ZM132.587 60.1961L132.196 60.2046C132.189 59.8644 132.178 59.5244 132.165 59.1848C132.147 58.7492 132.124 58.3073 132.097 57.8714L132.487 57.8467C132.515 58.2856 132.538 58.7305 132.556 59.1691C132.569 59.5111 132.58 59.8534 132.588 60.1961L132.587 60.1961ZM131.902 55.5454C131.822 54.7747 131.724 53.9954 131.612 53.2291L131.999 53.1725C132.112 53.9441 132.21 54.7287 132.291 55.5048L131.902 55.5454ZM131.228 50.9262C131.085 50.1652 130.924 49.3963 130.75 48.6407L131.131 48.5528C131.307 49.3136 131.469 50.0877 131.613 50.854L131.228 50.9262ZM130.18 46.3764C129.975 45.6284 129.752 44.875 129.517 44.137L129.89 44.0184C130.126 44.7615 130.351 45.5201 130.557 46.2732L130.18 46.3764ZM128.764 41.9263C128.5 41.1977 128.216 40.4647 127.922 39.7477L128.284 39.5992C128.58 40.3212 128.866 41.0592 129.132 41.7926L128.764 41.9263ZM126.992 37.605C126.669 36.9002 126.327 36.1926 125.975 35.5018L126.324 35.3244C126.678 36.0198 127.022 36.7322 127.347 37.4418L126.992 37.605ZM124.873 33.4417C124.494 32.7658 124.095 32.0884 123.688 31.4283L124.021 31.2231C124.431 31.8876 124.832 32.5697 125.214 33.2502L124.873 33.4417ZM122.421 29.465C121.987 28.8219 121.534 28.1793 121.075 27.555L121.39 27.3231C121.852 27.9517 122.309 28.5988 122.745 29.2463L122.421 29.465ZM119.651 25.7016C119.165 25.0959 118.661 24.4926 118.152 23.9084L118.447 23.6513C118.959 24.2396 119.467 24.847 119.956 25.4569L119.651 25.7016ZM116.58 22.1782C116.046 21.6144 115.494 21.0546 114.938 20.5142L115.21 20.2337C115.77 20.7778 116.326 21.3416 116.864 21.9091L116.58 22.1782ZM113.228 18.919C112.65 18.4014 112.053 17.8888 111.453 17.3957L111.702 17.0936C112.305 17.5903 112.906 18.1063 113.489 18.6276L113.228 18.919ZM109.617 15.9467C109 15.4801 108.364 15.0192 107.726 14.5767L107.949 14.2552C108.591 14.7008 109.232 15.1649 109.853 15.6347L109.617 15.9467ZM105.78 13.2856C105.127 12.8711 104.456 12.4638 103.784 12.0746L103.98 11.7361C104.656 12.1278 105.333 12.538 105.99 12.9552L105.78 13.2856Z" fill="#E6E6E6"/>
<path d="M126.884 86.373L126.531 86.203C126.701 85.851 126.867 85.4982 127.029 85.1444L127.385 85.3072C127.222 85.6634 127.055 86.0186 126.884 86.373Z" fill="#E6E6E6"/>
<path d="M101.188 12.263L101.557 12.1329L100.914 10.3144L102.775 9.8058L102.671 9.42828L100.405 10.048L101.188 12.263Z" fill="#E6E6E6"/>
<path d="M125.788 84.4374L126.16 84.315L126.762 86.1476L128.546 85.4137L128.694 85.7759L126.521 86.6694L125.788 84.4374Z" fill="#E6E6E6"/>
</g>
<defs>
<clipPath id="clip0">
<rect width="132.591" height="122" fill="white"/>
</clipPath>
</defs>
</svg>
