<svg width="38" height="49" viewBox="0 0 38 49" fill="none" xmlns="http://www.w3.org/2000/svg">
<path d="M32.7 0.1C32.4 0.1 32.1 0 31.8 0H12.1H3.3C1.5 0 0 1.5 0 3.3V12.1V45C0 46.5 1 47.8 2.4 48.2C2.7 48.3 3 48.3 3.3 48.3H23H31.8C33.6 48.3 35.1 46.8 35.1 45V36.2V3.3C35.1 1.8 34.1 0.5 32.7 0.1Z" fill="#EAF4FE"/>
<path d="M6.8999 8.20001H16.6999" stroke="#9AC7F7" stroke-width="2"/>
<path d="M6.7002 15.2H29.7002" stroke="#9AC7F7" stroke-width="2"/>
<path d="M6.7002 19.2H29.7002" stroke="#9AC7F7" stroke-width="2"/>
<path d="M6.7002 23.2H20.7002" stroke="#9AC7F7" stroke-width="2"/>
<path d="M6.7002 27.2H16.7002" stroke="#9AC7F7" stroke-width="2"/>
<path d="M6.7002 35.2H15.7002" stroke="#9AC7F7" stroke-width="2"/>
<path d="M35.7002 35.2V46.2L29.6002 43.2L23.7002 46.2V35.2" fill="#FD2227"/>
<path d="M29.7002 39.2C34.1185 39.2 37.7002 35.6183 37.7002 31.2C37.7002 26.7817 34.1185 23.2 29.7002 23.2C25.2819 23.2 21.7002 26.7817 21.7002 31.2C21.7002 35.6183 25.2819 39.2 29.7002 39.2Z" fill="#FFAB01"/>
<path d="M29.7002 35.2C31.9093 35.2 33.7002 33.4092 33.7002 31.2C33.7002 28.9909 31.9093 27.2 29.7002 27.2C27.4911 27.2 25.7002 28.9909 25.7002 31.2C25.7002 33.4092 27.4911 35.2 29.7002 35.2Z" stroke="#FFC400" stroke-width="2"/>
</svg>
