<svg width="25" height="25" viewBox="0 0 25 25" fill="none" xmlns="http://www.w3.org/2000/svg">
<path d="M23.1211 0.205152L1.12113 9.20515C0.922229 9.29225 0.756808 9.44131 0.649536 9.6301C0.542264 9.81889 0.498888 10.0373 0.525876 10.2527C0.552864 10.4682 0.64877 10.6692 0.799293 10.8257C0.949815 10.9822 1.14689 11.0858 1.36113 11.1212L12.0211 12.6102L13.5101 23.2702C13.5407 23.4877 13.6421 23.6892 13.7986 23.8433C13.9552 23.9975 14.1581 24.0959 14.3761 24.1232C14.4173 24.1283 14.4587 24.131 14.5001 24.1312C14.6985 24.1311 14.8924 24.072 15.0571 23.9614C15.2218 23.8508 15.3499 23.6937 15.4251 23.5102L24.4251 1.51015C24.4955 1.32793 24.5114 1.1292 24.4711 0.938078C24.4307 0.746961 24.3357 0.571676 24.1976 0.433498C24.0595 0.295321 23.8843 0.200192 23.6932 0.159658C23.5022 0.119124 23.3034 0.134928 23.1211 0.205152ZM14.9781 19.3212L13.9001 11.5852C13.8699 11.3701 13.7705 11.1708 13.617 11.0173C13.4635 10.8638 13.2641 10.7644 13.0491 10.7342L5.31013 9.65315L21.6721 2.95915L14.9781 19.3212Z" fill="#FCFCFC"/>
</svg>
