<svg width="203" height="172" viewBox="0 0 203 172" fill="none" xmlns="http://www.w3.org/2000/svg">
<g clip-path="url(#clip0)">
<path d="M108.573 24.1166C115.307 19.1418 124.788 17.2347 132.207 21.1157C123.855 24.7419 117.055 31.2054 113.01 39.3625C111.462 42.514 110.068 46.1805 106.872 47.637C104.884 48.5433 102.538 48.3683 100.479 47.6365C98.4206 46.9046 96.5894 45.6614 94.7836 44.4313L94.2421 44.3661C97.4556 36.6348 101.838 29.0914 108.573 24.1166Z" fill="#F0F0F0"/>
<path d="M132.148 21.281C125.221 21.4981 118.539 23.8921 113.05 28.1231C111.853 29.013 110.803 30.0861 109.939 31.3029C109.136 32.5154 108.673 33.9209 108.596 35.3732C108.498 36.7259 108.555 38.1209 108.129 39.4262C107.902 40.0911 107.536 40.7004 107.057 41.2141C106.577 41.7278 105.994 42.1344 105.346 42.4071C103.75 43.1285 101.99 43.2334 100.265 43.2761C98.3496 43.3236 96.3595 43.3425 94.6177 44.2444C94.4066 44.3536 94.2494 44.0198 94.4601 43.9107C97.4906 42.3416 101.032 43.3653 104.217 42.4315C105.703 41.9958 107.067 41.1095 107.664 39.6267C108.186 38.33 108.129 36.8914 108.217 35.5209C108.27 34.103 108.67 32.7198 109.381 31.4921C110.18 30.2352 111.187 29.1235 112.359 28.2044C114.964 26.0933 117.885 24.4049 121.015 23.2011C124.579 21.8074 128.355 21.0336 132.181 20.9134C132.417 20.906 132.383 21.2737 132.148 21.281V21.281Z" fill="white"/>
<path d="M114.737 26.6568C114.152 25.6395 113.948 24.4475 114.161 23.2936C114.373 22.1397 114.99 21.099 115.899 20.3574C116.083 20.208 116.324 20.4877 116.14 20.6373C115.292 21.3263 114.718 22.2958 114.522 23.3707C114.326 24.4456 114.52 25.5552 115.07 26.4992C115.19 26.7045 114.855 26.8609 114.737 26.6568V26.6568Z" fill="white"/>
<path d="M108.556 34.6811C110.866 35.3268 113.334 35.0781 115.469 33.9845C115.681 33.876 115.838 34.2098 115.627 34.3182C113.403 35.452 110.834 35.7057 108.431 35.0285C108.202 34.9637 108.328 34.6167 108.556 34.6811Z" fill="white"/>
<path d="M124.56 22.2964C124.705 22.7371 124.956 23.1351 125.292 23.4547C125.628 23.7742 126.039 24.0052 126.486 24.1271C126.716 24.1888 126.59 24.5358 126.361 24.4744C125.868 24.3375 125.415 24.0818 125.043 23.7296C124.671 23.3774 124.39 22.9394 124.227 22.4539C124.207 22.4094 124.206 22.3593 124.222 22.3137C124.238 22.268 124.272 22.2304 124.315 22.2083C124.359 22.1876 124.41 22.1853 124.456 22.2018C124.502 22.2183 124.539 22.2523 124.56 22.2964H124.56Z" fill="white"/>
<path d="M138.09 48.8471C137.946 48.8126 137.801 48.7781 137.655 48.7456C135.71 48.292 133.731 47.997 131.738 47.8638C131.584 47.8511 131.428 47.8405 131.274 47.8322C126.469 47.5624 121.657 48.1869 117.08 49.6741C115.259 50.2675 113.487 50.9986 111.777 51.861C109.416 53.0522 106.951 54.5315 104.409 54.8634C104.144 54.901 103.877 54.9221 103.61 54.9267L94.2061 45.0321C94.1961 44.9989 94.1836 44.9677 94.1734 44.9344L93.7799 44.5565C93.865 44.5059 93.9543 44.4552 94.0394 44.4045C94.0886 44.3749 94.1399 44.3476 94.1891 44.318C94.2226 44.299 94.2562 44.2801 94.2853 44.261C94.2965 44.2546 94.3077 44.2483 94.3165 44.2441C94.3457 44.225 94.3748 44.2104 94.4016 44.1935C94.9001 43.9087 95.4014 43.627 95.9057 43.3483C95.9079 43.3462 95.9079 43.3462 95.9123 43.3462C99.7595 41.2324 103.817 39.4213 108.021 38.2835C108.147 38.2493 108.276 38.2129 108.406 38.1832C110.304 37.6809 112.239 37.3345 114.193 37.1475C115.264 37.0485 116.338 37.0038 117.413 37.0135C120.19 37.0439 122.945 37.511 125.577 38.3975C130.824 40.1656 135.446 43.5919 137.906 48.4723C137.969 48.5972 138.03 48.72 138.09 48.8471Z" fill="#F0F0F0"/>
<path d="M137.942 48.9443C132.281 44.9472 125.504 42.8355 118.574 42.9092C117.082 42.8985 115.598 43.1232 114.176 43.5748C112.804 44.0595 111.588 44.9026 110.653 46.0163C109.76 47.0373 108.965 48.185 107.84 48.9712C107.258 49.3651 106.599 49.6314 105.907 49.7529C105.215 49.8743 104.505 49.848 103.823 49.6758C102.114 49.2908 100.646 48.3147 99.2426 47.3102C97.6848 46.195 96.0844 45.0119 94.1506 44.6833C93.9163 44.6435 93.9918 44.2822 94.2258 44.322C97.5901 44.8938 99.8013 47.8433 102.907 49.0154C104.356 49.5623 105.978 49.6758 107.348 48.8511C108.545 48.13 109.366 46.9471 110.261 45.9056C111.157 44.8057 112.309 43.942 113.616 43.39C115.011 42.8674 116.484 42.5859 117.973 42.5577C121.324 42.4405 124.673 42.8511 127.897 43.7742C131.582 44.8073 135.063 46.4632 138.189 48.6703C138.383 48.8069 138.134 49.0801 137.942 48.9443L137.942 48.9443Z" fill="white"/>
<path d="M120.804 42.7538C120.949 41.5895 121.504 40.5148 122.369 39.7216C123.234 38.9285 124.352 38.4685 125.525 38.4239C125.762 38.4157 125.786 38.784 125.548 38.7922C124.456 38.8318 123.414 39.2603 122.611 40.0006C121.807 40.7408 121.294 41.744 121.165 42.829C121.137 43.0647 120.776 42.9882 120.804 42.7538H120.804Z" fill="white"/>
<path d="M111.038 45.4391C112.494 47.3455 114.615 48.6332 116.978 49.0453C117.212 49.086 117.137 49.4472 116.903 49.4066C114.445 48.9731 112.24 47.6286 110.73 45.6414C110.586 45.4519 110.895 45.2506 111.038 45.4391V45.4391Z" fill="white"/>
<path d="M131.274 45.187C131.124 45.6257 131.085 46.0949 131.161 46.5524C131.237 47.0099 131.426 47.4414 131.71 47.8081C131.856 47.9957 131.546 48.1968 131.401 48.0104C131.089 47.6038 130.882 47.1271 130.797 46.6218C130.712 46.1165 130.751 45.5981 130.913 45.1118C130.924 45.0647 130.953 45.0237 130.994 44.9971C131.034 44.9706 131.083 44.9604 131.131 44.9688C131.179 44.9789 131.221 45.0076 131.248 45.0484C131.274 45.0893 131.284 45.1391 131.274 45.187V45.187Z" fill="white"/>
<path d="M106.796 31.5178H106.067V11.5543C106.067 10.037 105.769 8.53452 105.188 7.13268C104.607 5.73085 103.756 4.45711 102.683 3.38419C101.61 2.31127 100.337 1.46019 98.9348 0.879525C97.5329 0.298865 96.0305 8.18002e-07 94.5131 0H52.2177C50.7004 -3.27188e-06 49.1979 0.298854 47.7961 0.879511C46.3943 1.46017 45.1205 2.31125 44.0476 3.38416C42.9747 4.45708 42.1236 5.73082 41.5429 7.13265C40.9623 8.53449 40.6634 10.037 40.6634 11.5543V121.076C40.6634 124.14 41.8807 127.079 44.0476 129.246C46.2144 131.413 49.1533 132.63 52.2177 132.63H94.5131C97.5775 132.63 100.516 131.413 102.683 129.246C104.85 127.079 106.067 124.14 106.067 121.076V45.7282H106.796V31.5178Z" fill="#3F3D56"/>
<path d="M94.9783 3.00619H89.4574C89.7113 3.62866 89.8082 4.304 89.7396 4.97275C89.671 5.64149 89.439 6.28311 89.064 6.84106C88.6891 7.39902 88.1826 7.8562 87.5893 8.17233C86.9961 8.48846 86.3341 8.65383 85.6619 8.65389H61.4314C60.7591 8.65384 60.0972 8.48847 59.5039 8.17234C58.9106 7.85621 58.4042 7.39903 58.0292 6.84107C57.6543 6.28311 57.4223 5.64149 57.3537 4.97275C57.2851 4.304 57.382 3.62865 57.6359 3.00618H52.4793C50.1908 3.00618 47.9961 3.91527 46.3779 5.53345C44.7597 7.15163 43.8507 9.34635 43.8506 11.6348V120.995C43.8506 122.129 44.0738 123.251 44.5075 124.297C44.9411 125.344 45.5767 126.296 46.3779 127.097C47.1792 127.898 48.1304 128.534 49.1772 128.967C50.2241 129.401 51.3462 129.624 52.4793 129.624H94.9783C96.1115 129.624 97.2335 129.401 98.2804 128.967C99.3273 128.534 100.278 127.898 101.08 127.097C101.881 126.296 102.517 125.344 102.95 124.297C103.384 123.251 103.607 122.129 103.607 120.995V11.6348C103.607 9.34635 102.698 7.15163 101.08 5.53345C99.4615 3.91527 97.2668 3.00619 94.9783 3.00619Z" fill="white"/>
<path d="M74.5462 94.4929C71.4167 94.4958 68.3172 93.8816 65.4253 92.6853C62.5334 91.489 59.9058 89.7342 57.6928 87.5212C55.4799 85.3083 53.7251 82.6807 52.5288 79.7888C51.3325 76.8969 50.7182 73.7974 50.7211 70.6678C50.7167 66.2733 51.9295 61.9634 54.2251 58.2161C56.5207 54.4688 59.8093 51.4306 63.7263 49.4383C66.5656 47.9937 69.6654 47.132 72.8429 46.904C76.0204 46.6759 79.2114 47.0861 82.2279 48.1104C87.5701 49.9309 92.0928 53.5886 94.9902 58.432C97.8877 63.2754 98.9719 68.99 98.0498 74.5581C97.1276 80.1262 94.259 85.1862 89.9547 88.8369C85.6505 92.4876 80.1902 94.4919 74.5463 94.4929L74.5462 94.4929ZM74.5462 47.7771C70.9318 47.7664 67.3674 48.6214 64.1511 50.2704C61.3397 51.7027 58.8548 53.7008 56.8523 56.1391C54.8499 58.5775 53.3731 61.4035 52.5148 64.4397C51.6564 67.476 51.435 70.6568 51.8644 73.7827C52.2938 76.9086 53.3648 79.9119 55.0102 82.6042C56.6555 85.2965 58.8396 87.6195 61.4255 89.4276C64.0113 91.2356 66.943 92.4895 70.0364 93.1106C73.1299 93.7318 76.3184 93.7067 79.4017 93.037C82.4851 92.3672 85.3966 91.0673 87.9537 89.2188C89.19 88.3268 90.3332 87.3125 91.366 86.1911C94.3867 82.9229 96.3887 78.8447 97.1271 74.4559C97.8654 70.0672 97.3079 65.5584 95.5229 61.4817C93.7379 57.405 90.8028 53.9372 87.077 51.5031C83.3513 49.069 78.9966 47.7741 74.5462 47.7771Z" fill="#F0F0F0"/>
<path d="M22.9205 49.524C23.5745 49.606 24.2025 49.8304 24.7604 50.1814C25.3183 50.5324 25.7924 51.0014 26.1494 51.5554C26.5064 52.1095 26.7376 52.735 26.8266 53.3881C26.9157 54.0411 26.8605 54.7057 26.6649 55.3352L34.5808 61.9289L31.7471 67.7166L20.6991 58.248C19.6636 57.8494 18.8102 57.0847 18.3007 56.0989C17.7913 55.1131 17.6611 53.9747 17.9349 52.8993C18.2087 51.824 18.8675 50.8864 19.7864 50.2644C20.7053 49.6423 21.8204 49.3788 22.9205 49.524L22.9205 49.524Z" fill="#FFB6B6"/>
<path d="M96.8517 77.0214C96.6929 75.3149 96.0366 72.247 95.4797 71.1126C93.7677 66.6317 82.706 62.9489 81.2206 62.4741L80.8437 58.2853L65.4742 56.6315L63.5245 61.9883L58.0121 64.0562C57.6378 64.1958 57.2991 64.4165 57.0202 64.7024C56.7413 64.9883 56.529 65.3324 56.3988 65.71L51.4532 67.1395L46.5729 68.5503L29.6182 56.6035L28.8177 57.1267L23.4673 60.618L22.6418 61.1567L44.5828 80.9518L52.7331 79.0396L58.8623 77.5976L59.3854 79.7216L58.0308 87.1837C61.9556 91.11 67.1509 93.5095 72.6849 93.9518C78.2188 94.3941 83.7293 92.8504 88.2279 89.5974L91.7097 86.5079C94.1364 83.8839 95.9277 80.7373 96.945 77.3111L96.8517 77.0214Z" fill="#E4E4E4"/>
<path d="M77.987 53.2055C83.789 51.2845 86.9351 45.0238 85.0141 39.2219C83.0932 33.4199 76.8325 30.2738 71.0306 32.1947C65.2286 34.1157 62.0825 40.3764 64.0034 46.1783C65.9244 51.9803 72.1851 55.1264 77.987 53.2055Z" fill="#FFB6B6"/>
<path d="M65.7676 30.0847C66.8434 28.5483 68.4579 27.473 70.2901 27.0722C72.1018 26.6996 73.9874 27.0455 75.5488 28.0368C77.2468 27.3528 79.0775 26.899 80.8762 27.1297C82.6748 27.3604 84.4377 28.3651 85.27 30.0203C85.4451 30.449 85.6575 30.8616 85.9048 31.2532C86.6381 32.2314 88.0007 32.3583 89.2041 32.4053C88.5957 32.7602 87.9872 33.115 87.3786 33.4698C87.985 33.7524 88.5915 34.035 89.1981 34.3177C88.3726 34.6328 87.5472 34.9479 86.7219 35.263C88.643 36.9517 89.1077 39.9571 88.3801 42.4768C87.6915 44.8624 86.1125 46.8706 84.3494 48.5898C84.0054 47.307 84.3838 45.9161 84.6358 44.588C84.9019 43.1846 84.9445 41.5436 83.9619 40.5528C83.2991 39.8845 82.3267 39.6826 81.4099 39.5204C76.7854 38.7025 72.118 38.1484 67.4305 37.8605C66.8032 37.7739 66.1642 37.8391 65.5672 38.0508C64.4265 38.5577 63.9682 39.9498 63.6376 41.1842C63.4793 39.0175 63.6058 36.8395 64.0139 34.7057C64.3266 33.0727 64.8192 31.4381 65.7676 30.0847Z" fill="#343A40"/>
<path d="M80.1516 105.718H67.0711C66.6168 105.718 66.1811 105.538 65.8599 105.216C65.5387 104.895 65.3582 104.459 65.3582 104.005C65.3582 103.551 65.5387 103.115 65.8599 102.794C66.1811 102.473 66.6168 102.292 67.0711 102.292H80.1516C80.6059 102.292 81.0416 102.473 81.3628 102.794C81.684 103.115 81.8645 103.551 81.8645 104.005C81.8645 104.459 81.684 104.895 81.3628 105.216C81.0416 105.538 80.6059 105.718 80.1516 105.718Z" fill="#4267B2"/>
<path d="M37.2311 14.0537H1.25222C0.920678 14.0532 0.602884 13.9211 0.368631 13.6865C0.134378 13.4519 0.00280762 13.1339 0.00280762 12.8023C0.00280762 12.4708 0.134378 12.1528 0.368631 11.9182C0.602884 11.6835 0.920678 11.5515 1.25222 11.5509H37.2311C37.563 11.5509 37.8813 11.6828 38.116 11.9175C38.3507 12.1521 38.4825 12.4704 38.4825 12.8023C38.4825 13.1342 38.3507 13.4525 38.116 13.6872C37.8813 13.9219 37.563 14.0537 37.2311 14.0537Z" fill="#4267B2"/>
<path d="M58.0033 22.046H1.25131C0.91944 22.046 0.601164 21.9141 0.366498 21.6795C0.131832 21.4448 0 21.1265 0 20.7947C0 20.4628 0.131832 20.1445 0.366498 19.9098C0.601164 19.6752 0.91944 19.5434 1.25131 19.5434H58.0033C58.3351 19.5434 58.6534 19.6752 58.8881 19.9098C59.1227 20.1445 59.2546 20.4628 59.2546 20.7947C59.2546 21.1265 59.1227 21.4448 58.8881 21.6795C58.6534 21.9141 58.3351 22.046 58.0033 22.046Z" fill="#4267B2"/>
<path d="M47.0973 29.5759H1.25131C0.91944 29.5759 0.601164 29.444 0.366498 29.2094C0.131832 28.9747 0 28.6564 0 28.3245C0 27.9927 0.131832 27.6744 0.366498 27.4397C0.601164 27.2051 0.91944 27.0732 1.25131 27.0732H47.0973C47.4292 27.0732 47.7475 27.2051 47.9821 27.4397C48.2168 27.6744 48.3486 27.9927 48.3486 28.3245C48.3486 28.6564 48.2168 28.9747 47.9821 29.2094C47.7475 29.444 47.4292 29.5759 47.0973 29.5759Z" fill="#CACACA"/>
<path d="M27.1036 37.0779H1.25131C0.91944 37.0779 0.601164 36.9461 0.366498 36.7114C0.131832 36.4768 0 36.1585 0 35.8266C0 35.4948 0.131832 35.1765 0.366498 34.9418C0.601164 34.7071 0.91944 34.5753 1.25131 34.5753H27.1036C27.4354 34.5753 27.7537 34.7071 27.9884 34.9418C28.223 35.1765 28.3549 35.4948 28.3549 35.8266C28.3549 36.1585 28.223 36.4768 27.9884 36.7114C27.7537 36.9461 27.4354 37.0779 27.1036 37.0779Z" fill="#CACACA"/>
<path d="M41.3858 44.5793H1.25214C0.920613 44.5788 0.602851 44.4467 0.368612 44.2121C0.134373 43.9775 0.00280762 43.6595 0.00280762 43.328C0.00280762 42.9965 0.134373 42.6785 0.368612 42.4439C0.602851 42.2093 0.920613 42.0772 1.25214 42.0767H41.3858C41.7173 42.0772 42.035 42.2093 42.2693 42.4439C42.5035 42.6785 42.6351 42.9965 42.6351 43.328C42.6351 43.6595 42.5035 43.9775 42.2693 44.2121C42.035 44.4467 41.7173 44.5788 41.3858 44.5793Z" fill="#CACACA"/>
<path d="M154.493 167.002L151.268 167.002L149.734 154.564L154.494 154.564L154.493 167.002Z" fill="#9F616A"/>
<path d="M155.761 171.465L143.45 171.464V171.308C143.45 170.038 143.955 168.819 144.854 167.92C145.752 167.022 146.971 166.517 148.242 166.517H148.242L150.491 164.811L154.687 166.517L155.762 166.517L155.761 171.465Z" fill="#343A40"/>
<path d="M152.615 108.545L151.192 91.2041L150.075 84.6955L156.331 83.3139L158.406 92.2246L156.598 109.026C156.963 109.473 157.186 110.019 157.238 110.594C157.29 111.168 157.169 111.745 156.891 112.251C156.613 112.756 156.189 113.167 155.676 113.43C155.163 113.693 154.582 113.797 154.009 113.728C153.436 113.658 152.897 113.42 152.461 113.042C152.025 112.664 151.712 112.164 151.562 111.607C151.412 111.05 151.432 110.461 151.62 109.915C151.808 109.369 152.154 108.892 152.615 108.545H152.615Z" fill="#9F616A"/>
<path d="M137.363 167.002L134.139 167.002L132.604 154.564L137.364 154.564L137.363 167.002Z" fill="#9F616A"/>
<path d="M132.203 112.476L130.774 114.949C130.774 114.949 129.203 115.378 129.716 120.498C130.23 125.619 130.252 155.956 132.737 159.689L133.186 162.894L137.879 163.343L137.997 160.498L143.592 120.981C143.592 120.981 146.887 159.774 149.613 160.724L150.598 163.956L154.898 163.957L154.644 160.149L154.922 112.075L132.203 112.476Z" fill="#343A40"/>
<path d="M130.631 114.76L130.532 114.735C133.482 103.699 132.631 89.4077 130.548 74.0619L130.548 73.9984L138.08 67.0998H144.62L151.103 71.2839C155.295 73.3796 156.247 77.8176 156.257 77.8623L156.263 77.8939L153.695 86.8584L155.63 112.784L155.632 112.814L155.621 112.842C154.995 114.429 153.317 114.203 151.374 113.941C149.434 113.68 142.287 116.071 140.096 116.071C135.813 116.071 130.937 114.839 130.631 114.76Z" fill="#E4E4E4"/>
<path d="M149.746 74.7779L152.556 73.5556L156.257 78.0942L159.258 92.6377L148.98 91.0805L149.746 74.7779Z" fill="#E4E4E4"/>
<path d="M106.53 101.596L119.374 89.8595L123.838 84.9928L128.759 89.0947L122.982 96.1895L108.587 105.041C108.457 105.603 108.161 106.113 107.739 106.506C107.316 106.899 106.786 107.157 106.216 107.246C105.646 107.335 105.062 107.252 104.54 107.007C104.017 106.762 103.58 106.366 103.284 105.871C102.989 105.376 102.848 104.803 102.88 104.227C102.912 103.651 103.115 103.097 103.464 102.638C103.813 102.178 104.291 101.834 104.838 101.648C105.384 101.462 105.973 101.444 106.53 101.596L106.53 101.596Z" fill="#9F616A"/>
<path d="M119.096 89.9871L122.653 85.3674C122.683 85.3011 125.634 78.7057 128.193 75.84C130.817 72.9004 132.883 74.4037 132.904 74.4199L132.955 74.4587L133.098 85.3144L123.248 97.0842L119.096 89.9871Z" fill="#E4E4E4"/>
<path d="M146.62 60.6018C147.15 57.3334 144.931 54.2538 141.662 53.7234C138.394 53.193 135.314 55.4126 134.784 58.6811C134.253 61.9495 136.473 65.0291 139.741 65.5594C143.01 66.0898 146.089 63.8702 146.62 60.6018Z" fill="#9F616A"/>
<path d="M135.221 58.7512C135.221 58.7512 135.173 56.6435 134.907 55.7109C134.64 54.7783 134.107 53.9789 134.374 53.9789C134.64 53.9789 134.773 53.3127 134.773 53.3127C134.773 53.3127 135.04 53.1795 135.173 53.3127C135.306 53.4459 135.439 52.3801 135.439 52.3801C135.439 52.3801 135.573 51.9804 135.706 52.2469C135.839 52.5133 135.839 52.3801 135.972 51.9804C136.106 51.5807 136.772 51.3142 136.772 51.3142C136.772 51.3142 139.303 51.4474 139.703 50.9145C140.103 50.3816 144.633 50.7813 145.565 51.4474C146.498 52.1136 150.628 54.5118 149.962 56.5103C149.296 58.5087 147.378 63.1102 146.897 63.5716C146.138 64.3011 145.611 64.5641 142.016 65.2796C141.312 65.4196 137.72 63.1226 137.72 62.7229C137.72 62.3232 138.153 61.0556 137.457 60.8816C136.405 60.6186 136.287 61.9488 136.02 61.5491C135.754 61.1494 135.221 58.7512 135.221 58.7512Z" fill="#343A40"/>
<path d="M138.632 171.465L126.32 171.464V171.308C126.32 170.038 126.825 168.819 127.724 167.92C128.622 167.022 129.841 166.517 131.112 166.517H131.112L133.361 164.811L137.557 166.517L138.632 166.517L138.632 171.465Z" fill="#343A40"/>
</g>
<defs>
<clipPath id="clip0">
<rect width="203" height="171.7" fill="white"/>
</clipPath>
</defs>
</svg>
