<svg width="206" height="199" viewBox="0 0 206 199" fill="none" xmlns="http://www.w3.org/2000/svg">
<g clip-path="url(#clip0)">
<path d="M187.759 198.801V178.845C187.759 178.845 195.536 192.993 187.759 198.801Z" fill="#F1F1F1"/>
<path d="M188.241 198.798L173.539 185.301C173.539 185.301 189.221 189.14 188.241 198.798Z" fill="#F1F1F1"/>
<path d="M136.388 88.0563L58.3746 133.652C58.1015 133.811 57.7765 133.856 57.4708 133.776C57.1651 133.695 56.9036 133.497 56.7439 133.225L6.57631 47.3895C6.41714 47.1164 6.37278 46.7914 6.45295 46.4857C6.53313 46.18 6.73129 45.9185 7.00398 45.7587L85.0171 0.162839C85.2902 0.00367172 85.6152 -0.0406901 85.9209 0.0394852C86.2266 0.11966 86.4881 0.317826 86.6479 0.590508L136.815 86.4256C136.975 86.6986 137.019 87.0236 136.939 87.3294C136.859 87.6351 136.66 87.8965 136.388 88.0563Z" fill="white"/>
<path d="M136.388 88.0563L58.3746 133.652C58.1015 133.811 57.7765 133.856 57.4708 133.776C57.1651 133.695 56.9036 133.497 56.7439 133.225L6.57631 47.3895C6.41714 47.1164 6.37278 46.7914 6.45295 46.4857C6.53313 46.18 6.73129 45.9185 7.00398 45.7587L85.0171 0.162839C85.2902 0.00367172 85.6152 -0.0406901 85.9209 0.0394852C86.2266 0.11966 86.4881 0.317826 86.6479 0.590508L136.815 86.4256C136.975 86.6986 137.019 87.0236 136.939 87.3294C136.859 87.6351 136.66 87.8965 136.388 88.0563ZM7.24459 46.1704C7.08098 46.2663 6.96207 46.4231 6.91396 46.6066C6.86586 46.79 6.89248 46.985 6.98799 47.1489L57.1555 132.984C57.2514 133.148 57.4083 133.266 57.5917 133.315C57.7751 133.363 57.9701 133.336 58.134 133.241L136.147 87.6446C136.311 87.5487 136.43 87.3919 136.478 87.2085C136.526 87.025 136.499 86.83 136.404 86.6662L86.2362 0.831106C86.1403 0.667489 85.9835 0.548583 85.8 0.500477C85.6166 0.452371 85.4216 0.478993 85.2577 0.574503L7.24459 46.1704Z" fill="#3F3D56"/>
<path d="M57.3914 54.7184L38.0425 66.0272C37.7694 66.1863 37.4444 66.2307 37.1387 66.1505C36.833 66.0704 36.5715 65.8722 36.4117 65.5995L25.103 46.2506C24.9438 45.9775 24.8995 45.6525 24.9796 45.3468C25.0598 45.0411 25.258 44.7797 25.5307 44.6199L44.8796 33.3111C45.1526 33.152 45.4776 33.1076 45.7834 33.1878C46.0891 33.2679 46.3505 33.4661 46.5103 33.7388L57.819 53.0877C57.9782 53.3607 58.0226 53.6858 57.9424 53.9915C57.8622 54.2972 57.6641 54.5586 57.3914 54.7184ZM25.7713 45.0315C25.6077 45.1274 25.4888 45.2843 25.4407 45.4677C25.3925 45.6511 25.4192 45.8462 25.5147 46.01L36.8234 65.3589C36.9193 65.5225 37.0762 65.6414 37.2596 65.6895C37.443 65.7376 37.638 65.711 37.8019 65.6155L57.1508 54.3067C57.3144 54.2109 57.4333 54.054 57.4814 53.8706C57.5295 53.6872 57.5029 53.4921 57.4074 53.3283L46.0986 33.9794C46.0028 33.8158 45.8459 33.6969 45.6625 33.6488C45.479 33.6007 45.284 33.6273 45.1202 33.7228L25.7713 45.0315Z" fill="#F2F2F2"/>
<path d="M53.2186 60.3334L33.8696 71.6422C33.6239 71.7854 33.3314 71.8254 33.0562 71.7532C32.7811 71.681 32.5458 71.5027 32.402 71.2573L21.0932 51.9084C20.95 51.6626 20.9101 51.3701 20.9822 51.095C21.0544 50.8198 21.2327 50.5845 21.4781 50.4407L40.8271 39.132C41.0728 38.9887 41.3653 38.9488 41.6405 39.0209C41.9156 39.0931 42.1509 39.2714 42.2947 39.5169L53.6035 58.8658C53.7467 59.1115 53.7866 59.404 53.7145 59.6792C53.6423 59.9543 53.464 60.1896 53.2186 60.3334Z" fill="#4267B2"/>
<path d="M99.9206 45.7409L39.4038 81.1109C39.1581 81.2544 38.8655 81.2946 38.5903 81.2224C38.315 81.1502 38.0797 80.9716 37.9361 80.726C37.7926 80.4803 37.7525 80.1876 37.8246 79.9124C37.8968 79.6372 38.0754 79.4019 38.321 79.2583L98.8378 43.8884C98.9595 43.8173 99.094 43.7708 99.2335 43.7517C99.3731 43.7326 99.5151 43.7411 99.6514 43.7769C99.7877 43.8126 99.9156 43.8748 100.028 43.96C100.14 44.0452 100.234 44.1516 100.306 44.2733C100.377 44.3949 100.423 44.5294 100.442 44.669C100.461 44.8086 100.453 44.9505 100.417 45.0868C100.381 45.2231 100.319 45.351 100.234 45.4633C100.149 45.5755 100.042 45.6698 99.9206 45.7409Z" fill="#CCCCCC"/>
<path d="M89.0351 60.6637L43.1329 87.4919C43.0113 87.563 42.8769 87.6094 42.7373 87.6285C42.5977 87.6477 42.4557 87.6391 42.3194 87.6034C42.0442 87.5312 41.8089 87.3526 41.6653 87.107C41.5217 86.8613 41.4816 86.5687 41.5538 86.2934C41.626 86.0182 41.8045 85.7829 42.0502 85.6393L87.9524 58.8111C88.074 58.74 88.2085 58.6936 88.3481 58.6744C88.4877 58.6553 88.6297 58.6639 88.7659 58.6996C88.9022 58.7353 89.0301 58.7976 89.1424 58.8827C89.2546 58.9679 89.3489 59.0744 89.42 59.196C89.4911 59.3177 89.5376 59.4521 89.5567 59.5917C89.5758 59.7313 89.5673 59.8733 89.5315 60.0096C89.4958 60.1458 89.4336 60.2737 89.3484 60.386C89.2632 60.4982 89.1568 60.5926 89.0351 60.6637V60.6637Z" fill="#CCCCCC"/>
<path d="M85.9975 22.3957L59.2383 38.0354C58.9927 38.179 58.7 38.2191 58.4248 38.1469C58.1495 38.0748 57.9142 37.8962 57.7707 37.6505C57.6271 37.4049 57.587 37.1122 57.6592 36.837C57.7313 36.5618 57.9099 36.3265 58.1556 36.1829L84.9147 20.5431C85.1604 20.3995 85.453 20.3594 85.7282 20.4316C85.8645 20.4674 85.9924 20.5296 86.1047 20.6148C86.2169 20.6999 86.3113 20.8064 86.3824 20.928C86.4534 21.0497 86.4999 21.1841 86.519 21.3237C86.5381 21.4633 86.5296 21.6053 86.4939 21.7416C86.4581 21.8778 86.3959 22.0058 86.3107 22.118C86.2255 22.2302 86.1191 22.3246 85.9975 22.3957Z" fill="#CCCCCC"/>
<path d="M83.0502 32.6797L62.9692 44.4163C62.8476 44.4874 62.7131 44.5339 62.5735 44.553C62.4339 44.5721 62.292 44.5636 62.1557 44.5278C62.0194 44.4921 61.8915 44.4299 61.7792 44.3447C61.667 44.2595 61.5727 44.1531 61.5016 44.0314C61.4305 43.9098 61.384 43.7753 61.3649 43.6358C61.3458 43.4962 61.3543 43.3542 61.39 43.2179C61.4258 43.0816 61.488 42.9537 61.5732 42.8415C61.6584 42.7292 61.7648 42.6349 61.8865 42.5638L81.9674 30.8272C82.2131 30.6836 82.5057 30.6435 82.781 30.7157C83.0562 30.7878 83.2915 30.9664 83.4351 31.2121C83.5787 31.4577 83.6188 31.7504 83.5466 32.0256C83.4744 32.3009 83.2958 32.5361 83.0502 32.6797Z" fill="#CCCCCC"/>
<path d="M107.379 58.5032L46.8621 93.8731C46.6164 94.0167 46.3238 94.0568 46.0486 93.9846C45.7733 93.9125 45.538 93.7339 45.3944 93.4882C45.2509 93.2426 45.2107 92.9499 45.2829 92.6747C45.3551 92.3994 45.5337 92.1642 45.7793 92.0206L106.296 56.6507C106.542 56.5071 106.834 56.467 107.11 56.5391C107.385 56.6113 107.62 56.7899 107.764 57.0356C107.907 57.2812 107.947 57.5739 107.875 57.8491C107.803 58.1243 107.625 58.3596 107.379 58.5032V58.5032Z" fill="#CCCCCC"/>
<path d="M96.4934 73.4255L50.5912 100.254C50.4696 100.325 50.3352 100.371 50.1956 100.39C50.056 100.41 49.914 100.401 49.7777 100.365C49.6414 100.329 49.5135 100.267 49.4013 100.182C49.289 100.097 49.1947 99.9904 49.1236 99.8688C49.0525 99.7472 49.0061 99.6127 48.9869 99.4731C48.9678 99.3335 48.9763 99.1915 49.0121 99.0553C49.0478 98.919 49.1101 98.7911 49.1952 98.6788C49.2804 98.5666 49.3868 98.4722 49.5085 98.4011L95.4107 71.5729C95.5323 71.5018 95.6668 71.4554 95.8064 71.4363C95.946 71.4171 96.0879 71.4257 96.2242 71.4614C96.3605 71.4972 96.4884 71.5594 96.6007 71.6446C96.7129 71.7298 96.8072 71.8362 96.8783 71.9578C96.9494 72.0795 96.9959 72.2139 97.015 72.3535C97.0341 72.4931 97.0256 72.6351 96.9899 72.7714C96.9541 72.9077 96.8919 73.0356 96.8067 73.1478C96.7215 73.26 96.6151 73.3544 96.4934 73.4255V73.4255Z" fill="#CCCCCC"/>
<path d="M114.837 71.2655L54.3204 106.635C54.1988 106.707 54.0643 106.753 53.9247 106.772C53.7851 106.791 53.6431 106.783 53.5069 106.747C53.3706 106.711 53.2427 106.649 53.1304 106.564C53.0182 106.479 52.9238 106.372 52.8527 106.25C52.7816 106.129 52.7352 105.994 52.7161 105.855C52.6969 105.715 52.7055 105.573 52.7412 105.437C52.777 105.301 52.8392 105.173 52.9244 105.061C53.0096 104.948 53.116 104.854 53.2376 104.783L113.754 69.4129C113.876 69.3418 114.011 69.2954 114.15 69.2763C114.29 69.2571 114.432 69.2657 114.568 69.3014C114.704 69.3372 114.832 69.3994 114.944 69.4846C115.057 69.5697 115.151 69.6762 115.222 69.7978C115.293 69.9195 115.34 70.0539 115.359 70.1935C115.378 70.3331 115.369 70.4751 115.334 70.6114C115.298 70.7477 115.236 70.8756 115.15 70.9878C115.065 71.1 114.959 71.1944 114.837 71.2655Z" fill="#CCCCCC"/>
<path d="M118.568 77.6462L58.0513 113.016C57.9296 113.087 57.7952 113.134 57.6556 113.153C57.516 113.172 57.374 113.163 57.2377 113.128C57.1015 113.092 56.9736 113.03 56.8613 112.944C56.7491 112.859 56.6547 112.753 56.5836 112.631C56.5125 112.51 56.4661 112.375 56.447 112.236C56.4278 112.096 56.4364 111.954 56.4721 111.818C56.5079 111.681 56.5701 111.553 56.6553 111.441C56.7404 111.329 56.8469 111.235 56.9685 111.164L117.485 75.7936C117.607 75.7225 117.741 75.6761 117.881 75.6569C118.021 75.6378 118.163 75.6464 118.299 75.6821C118.435 75.7178 118.563 75.7801 118.675 75.8653C118.788 75.9504 118.882 76.0569 118.953 76.1785C119.024 76.3002 119.071 76.4346 119.09 76.5742C119.109 76.7138 119.1 76.8558 119.064 76.9921C119.029 77.1283 118.967 77.2563 118.881 77.3685C118.796 77.4807 118.69 77.5751 118.568 77.6462Z" fill="#CCCCCC"/>
<path d="M98.9971 102.487C99.8379 101.497 100.595 100.438 101.26 99.3223C101.856 98.3157 102.441 97.2394 102.573 96.0589C102.64 95.5562 102.587 95.0447 102.42 94.566C102.252 94.0873 101.974 93.655 101.607 93.3041C101.253 92.9778 100.805 92.7726 100.326 92.7182C99.8478 92.6638 99.3645 92.7631 98.9463 93.0017C98.523 93.2446 98.1733 93.5974 97.9342 94.0229C97.6952 94.4483 97.5756 94.9304 97.5881 95.4183C97.6225 95.9554 97.7777 96.4779 98.0421 96.9466C98.3065 97.4154 98.6734 97.8185 99.1153 98.1257C100.904 99.4216 103.698 99.3539 105.604 98.3677C107.752 97.2569 108.861 94.3506 107.174 92.3611C106.823 91.9474 106.239 92.4098 106.327 92.8561C106.438 93.4591 106.776 93.9967 107.27 94.3592C107.765 94.7216 108.379 94.8816 108.988 94.8064C109.596 94.7312 110.153 94.4265 110.545 93.9545C110.936 93.4826 111.132 92.879 111.094 92.267L110.335 92.7103C111.265 93.1222 112.287 93.2819 113.298 93.1734C114.309 93.0649 115.274 92.6921 116.095 92.0924C116.502 91.7972 116.864 91.4465 117.173 91.0506C117.545 90.5663 118.168 90.2534 118.673 89.9045L122.312 87.3901C122.847 87.0203 122.338 86.1389 121.799 86.5118L118.503 88.789C117.954 89.1684 117.401 89.5433 116.855 89.9275C116.465 90.2023 116.225 90.6457 115.87 90.972C115.198 91.5766 114.367 91.9777 113.476 92.1286C112.584 92.2794 111.668 92.1736 110.835 91.8237C110.757 91.782 110.67 91.7609 110.582 91.7624C110.494 91.764 110.407 91.7882 110.331 91.8327C110.255 91.8772 110.192 91.9405 110.147 92.0165C110.102 92.0926 110.078 92.1788 110.076 92.267C110.116 92.6321 110.011 92.9984 109.782 93.2859C109.554 93.5735 109.221 93.759 108.856 93.8023C108.491 93.8455 108.124 93.7428 107.835 93.5166C107.545 93.2904 107.357 92.959 107.31 92.5946L106.463 93.0896C107.552 94.373 106.827 96.3414 105.573 97.2026C104.171 98.1656 102.099 98.3328 100.519 97.7342C100.131 97.6007 99.7748 97.3888 99.4726 97.1116C99.1705 96.8344 98.9288 96.4979 98.7626 96.1231C98.6085 95.7845 98.5645 95.406 98.6369 95.0411C98.7093 94.6762 98.8943 94.3432 99.1659 94.089C99.4013 93.8565 99.7178 93.7245 100.049 93.721C100.379 93.7175 100.699 93.8427 100.939 94.0701C101.201 94.3373 101.393 94.6647 101.498 95.0236C101.603 95.3824 101.619 95.7617 101.543 96.1279C101.38 97.1472 100.817 98.087 100.293 98.9576C99.6942 99.9496 99.0174 100.892 98.2686 101.776C97.849 102.273 98.573 102.989 98.9971 102.487L98.9971 102.487Z" fill="#4267B2"/>
<path d="M145.709 198.705L133.762 198.705V198.554C133.762 197.32 134.252 196.138 135.124 195.266C135.996 194.394 137.179 193.904 138.412 193.904H138.412L145.709 193.904L145.709 198.705Z" fill="#2F2E41"/>
<path d="M126.755 129.772L126.487 134.114L134.32 134.952L142.515 135.829L140.102 129.236L126.755 129.772Z" fill="#FFB7B7"/>
<path d="M72.4041 107.674L73.9506 104.618C73.9506 104.618 79.712 106.061 80.2357 109.401L72.4041 107.674Z" fill="#F1F1F1"/>
<path opacity="0.2" d="M71.6775 119.375L82.7823 134.868L84.4221 127.633L71.6775 119.375Z" fill="black"/>
<path d="M95.4075 125.754L98.8419 125.417L99.7936 130.208L95.4721 130.284L95.4075 125.754Z" fill="#F1F1F1"/>
<path d="M108.029 126.676C108.116 126.766 108.197 126.863 108.269 126.966L119.538 126.69L120.853 124.288L124.738 125.798L122.824 130.277C122.669 130.639 122.401 130.941 122.06 131.138C121.72 131.334 121.324 131.415 120.934 131.368L108.202 129.83C107.901 130.21 107.492 130.49 107.029 130.632C106.566 130.774 106.07 130.772 105.609 130.625C105.147 130.479 104.74 130.196 104.443 129.813C104.147 129.43 103.973 128.965 103.947 128.482C103.92 127.998 104.042 127.517 104.295 127.104C104.548 126.691 104.921 126.365 105.364 126.169C105.807 125.973 106.3 125.916 106.776 126.007C107.252 126.098 107.689 126.331 108.029 126.676Z" fill="#FFB7B7"/>
<path d="M144.765 195.114H141.06L139.297 180.821L144.766 180.822L144.765 195.114Z" fill="#FFB7B7"/>
<path d="M111.12 195.032L107.713 193.576L111.706 179.74L116.735 181.889L111.12 195.032Z" fill="#FFB7B7"/>
<path d="M110.577 198.706L99.5898 194.012L99.6492 193.873C100.134 192.739 101.049 191.844 102.194 191.384C103.338 190.925 104.618 190.939 105.752 191.424L105.753 191.424L112.463 194.29L110.577 198.706Z" fill="#2F2E41"/>
<path d="M126.24 134.169L123.197 112.958L128.471 111.23L130.02 109.105L137.558 109.552L138.664 112.03L142.684 113.93L142.066 125.401L142.516 134.997L126.24 134.169Z" fill="#2F2E41"/>
<path d="M124.325 128.485L118.961 126.339L118.984 126.244C119.007 126.147 121.29 116.607 121.593 115.074C121.909 113.476 123.063 113.035 123.112 113.017L123.147 113.003L125.27 113.65L126.203 120.975L124.325 128.485Z" fill="#2F2E41"/>
<path d="M113.879 192.52L106.738 191.055L118.151 159.563L122.057 148.822C122.057 148.822 124.535 140.209 125.654 136.876L126.329 132.404L142.319 134.174C142.319 134.174 146.785 140.733 145.429 151.423L146.042 191.605L138.902 191.971L132.921 151.446L122.423 173.661C122.423 173.661 119.115 183.141 116.747 185.196L113.879 192.52Z" fill="#2F2E41"/>
<path d="M135.907 135.665C136.033 135.662 136.159 135.669 136.283 135.686L143.743 127.235L142.875 124.637L146.624 122.815L148.607 127.264C148.767 127.624 148.806 128.025 148.719 128.409C148.631 128.793 148.422 129.138 148.122 129.392L138.337 137.682C138.412 138.161 138.339 138.651 138.128 139.088C137.917 139.524 137.579 139.886 137.158 140.125C136.736 140.364 136.252 140.469 135.769 140.427C135.287 140.384 134.829 140.195 134.456 139.886C134.083 139.576 133.813 139.161 133.682 138.694C133.552 138.228 133.566 137.732 133.723 137.274C133.881 136.816 134.174 136.417 134.564 136.129C134.954 135.842 135.423 135.68 135.907 135.665Z" fill="#FFB7B7"/>
<path d="M143.147 128.057L140.035 120.738L141.249 115.639L142.557 113.987C142.652 113.946 142.756 113.925 142.86 113.926C142.964 113.927 143.067 113.95 143.162 113.993C143.644 114.187 144.055 114.782 144.382 115.761L147.299 124.068L143.147 128.057Z" fill="#2F2E41"/>
<path d="M127.002 106.393V100.875C127.002 98.9139 127.781 97.0331 129.168 95.6463C130.555 94.2595 132.435 93.4805 134.397 93.4805C136.358 93.4805 138.239 94.2595 139.625 95.6463C141.012 97.0331 141.791 98.9139 141.791 100.875V106.393C141.791 106.657 141.686 106.909 141.5 107.096C141.314 107.282 141.061 107.386 140.798 107.387H127.995C127.732 107.386 127.479 107.282 127.293 107.096C127.107 106.909 127.002 106.657 127.002 106.393Z" fill="#2F2E41"/>
<path d="M132.879 107.258C135.873 107.258 138.3 104.831 138.3 101.837C138.3 98.8423 135.873 96.415 132.879 96.415C129.884 96.415 127.457 98.8423 127.457 101.837C127.457 104.831 129.884 107.258 132.879 107.258Z" fill="#FFB7B7"/>
<path d="M125.254 101.317C125.256 99.7659 125.873 98.2791 126.969 97.1825C128.066 96.0859 129.553 95.469 131.103 95.4673H132.207C133.758 95.469 135.245 96.0859 136.341 97.1825C137.438 98.2791 138.055 99.7659 138.057 101.317V101.427H135.724L134.929 99.1995L134.769 101.427H133.564L133.163 100.303L133.082 101.427H125.254L125.254 101.317Z" fill="#2F2E41"/>
<path d="M132.344 108.007C132.234 107.859 132.169 107.683 132.155 107.499C132.141 107.315 132.18 107.131 132.266 106.968C133.436 104.744 135.073 100.633 132.9 98.0982L132.743 97.916H139.053V107.39L133.321 108.401C133.263 108.412 133.204 108.417 133.145 108.417C132.989 108.417 132.835 108.38 132.695 108.309C132.556 108.237 132.435 108.134 132.344 108.007Z" fill="#2F2E41"/>
<path d="M58.7344 191.992L62.0829 193.189L68.2926 180.842L63.3503 179.076L58.7344 191.992Z" fill="#9F616A"/>
<path d="M56.7188 194.933L58.2696 190.593L64.8643 192.95C65.9781 193.35 66.888 194.175 67.3943 195.244C67.9006 196.314 67.9621 197.54 67.5652 198.655L67.5163 198.791L56.7188 194.933Z" fill="#2F2E41"/>
<path d="M80.5084 195.304L84.0644 195.304L85.7563 181.588L80.5078 181.588L80.5084 195.304Z" fill="#9F616A"/>
<path d="M79.6016 194.143L86.6047 194.143H86.605C87.1911 194.143 87.7715 194.258 88.313 194.482C88.8544 194.707 89.3464 195.035 89.7609 195.45C90.1753 195.864 90.5041 196.356 90.7283 196.898C90.9526 197.439 91.0681 198.019 91.0681 198.606V198.751L79.6018 198.751L79.6016 194.143Z" fill="#2F2E41"/>
<path d="M66.0242 142.616L70.2299 166.086L59.0625 185.835L65.734 188.446L77.0465 169.302L78.4967 164.081L79.3668 191.346L85.3837 191.164L88.1421 165.704L83.7177 142.036L66.0242 142.616Z" fill="#2F2E41"/>
<path d="M74.0074 148.164C67.8288 148.164 63.9059 146.982 63.818 146.964L63.6758 146.933L66.894 132.012L67.0389 118.249C67.0389 112.417 70.8775 108.117 71.4102 107.72C71.4999 107.366 71.6658 107.036 71.8963 106.753C72.1268 106.469 72.4163 106.24 72.7447 106.08C74.0251 105.499 75.5898 106.196 75.6557 106.226L80.352 107.987L80.3741 108.052C80.4306 108.219 86.6163 128.526 86.6163 128.526C86.6163 128.526 86.2419 146.269 86.1114 146.85C86.1114 146.85 77.4404 148.164 74.0074 148.164Z" fill="#3F3D56"/>
<path d="M78.7556 103.655C82.2611 103.655 85.1029 100.813 85.1029 97.3078C85.1029 93.8023 82.2611 90.9604 78.7556 90.9604C75.25 90.9604 72.4082 93.8023 72.4082 97.3078C72.4082 100.813 75.25 103.655 78.7556 103.655Z" fill="#9F616A"/>
<path d="M106.494 129.917C106.181 130.164 105.819 130.34 105.431 130.431C105.044 130.523 104.641 130.529 104.251 130.448C103.861 130.367 103.493 130.202 103.174 129.963C102.855 129.725 102.592 129.42 102.404 129.069L92.8457 130.599L94.9164 126.015L103.676 125.265C104.286 124.988 104.977 124.944 105.617 125.142C106.258 125.34 106.804 125.766 107.151 126.339C107.498 126.913 107.623 127.594 107.502 128.253C107.381 128.912 107.022 129.504 106.494 129.917H106.494Z" fill="#9F616A"/>
<path d="M98.2236 131.877L81.4037 130.38L72.9106 116.873L72.8845 116.753C72.6435 115.65 72.8122 114.496 73.3593 113.508C73.9064 112.52 74.7944 111.765 75.8574 111.384C76.9205 111.003 78.0861 111.021 79.1364 111.436C80.1867 111.851 81.0501 112.635 81.5653 113.64L86.5509 123.365L96.6128 124.885L98.2236 131.877Z" fill="#3F3D56"/>
<path d="M73.3471 102.819L78.6155 103.008C78.9366 103.019 79.8082 99.5537 79.9223 98.8348C80.0125 98.3667 80.2699 97.9475 80.6466 97.6554C81.0233 97.3632 81.4934 97.2182 81.9692 97.2474C82.3636 97.2847 83.358 96.5479 84.3842 95.6755C86.3324 94.0191 86.2311 90.9083 84.0909 89.5087C84.0324 89.4705 83.975 89.4356 83.9187 89.404C82.5686 88.6483 80.9892 88.3945 79.4422 88.3752C78.0397 88.3576 76.5975 88.5342 75.3619 89.198C73.1469 90.3881 71.968 92.9887 71.8645 95.5011C71.7609 98.0135 72.5663 100.47 73.4803 102.813" fill="#2F2E41"/>
<path d="M205.416 199H0.274947C0.201781 199 0.131611 198.971 0.0798745 198.919C0.0281381 198.867 -0.000926971 198.797 -0.000926971 198.724C-0.000926971 198.651 0.0281381 198.581 0.0798745 198.529C0.131611 198.477 0.201781 198.448 0.274947 198.448H205.525C205.599 198.448 205.669 198.477 205.72 198.529C205.772 198.581 205.801 198.651 205.801 198.724C205.801 198.876 205.568 199 205.416 199Z" fill="#CBCBCB"/>
</g>
<defs>
<clipPath id="clip0">
<rect width="205.802" height="199" fill="white"/>
</clipPath>
</defs>
</svg>
