<svg width="183" height="153" viewBox="0 0 183 153" fill="none" xmlns="http://www.w3.org/2000/svg">
<g clip-path="url(#clip0)">
<path d="M85.9546 153C125.869 153 158.226 151.345 158.226 149.304C158.226 147.263 125.869 145.608 85.9546 145.608C46.0404 145.608 13.6835 147.263 13.6835 149.304C13.6835 151.345 46.0404 153 85.9546 153Z" fill="#F2F2F2"/>
<path d="M128.179 35.5088H127.358V13.0174C127.358 9.56498 125.986 6.25395 123.545 3.81271C121.104 1.37148 117.793 3.81174e-06 114.34 0H66.6891C63.2367 -6.53436e-06 59.9257 1.37146 57.4845 3.81268C55.0432 6.25391 53.6717 9.56493 53.6717 13.0174V136.407C53.6717 139.859 55.0432 143.17 57.4844 145.611C59.9257 148.053 63.2367 149.424 66.6891 149.424H114.34C117.793 149.424 121.104 148.053 123.545 145.611C125.986 143.17 127.358 139.859 127.358 136.407V51.5185H128.179L128.179 35.5088Z" fill="#3F3D56"/>
<path d="M124.585 13.1082V136.316C124.585 138.894 123.561 141.367 121.738 143.19C119.915 145.013 117.442 146.038 114.864 146.038H66.984C64.4057 146.038 61.933 145.013 60.1098 143.19C58.2867 141.367 57.2624 138.894 57.2624 136.316V13.1082C57.2624 10.5298 58.2867 8.05709 60.1098 6.23393C61.933 4.41077 64.4057 3.38651 66.984 3.38646H72.7924C72.507 4.08781 72.3983 4.84855 72.4759 5.60177C72.5535 6.35498 72.815 7.07759 73.2374 7.70603C73.6598 8.33446 74.2302 8.84947 74.8983 9.20574C75.5665 9.56201 76.312 9.74863 77.0692 9.74919H104.368C105.125 9.74863 105.871 9.562 106.539 9.20573C107.207 8.84945 107.777 8.33445 108.2 7.70601C108.622 7.07758 108.884 6.35498 108.961 5.60176C109.039 4.84855 108.93 4.08781 108.645 3.38646H114.864C117.442 3.38651 119.915 4.41077 121.738 6.23393C123.561 8.05709 124.585 10.5298 124.585 13.1082Z" fill="white"/>
<path d="M109.163 66.2349C108.844 66.4012 108.521 66.5586 108.191 66.7071C107.892 66.8426 107.587 66.9699 107.278 67.089C107.165 67.1321 107.05 67.1752 106.935 67.2184C106.026 67.548 105.092 67.8055 104.143 67.9883C103.672 68.0807 103.196 68.1532 102.714 68.2059C102.315 68.2511 101.913 68.2833 101.506 68.3024C101.217 68.3168 100.927 68.3229 100.636 68.3229C99.4812 68.3234 98.3292 68.2155 97.1948 68.0006C96.899 67.9472 96.6096 67.8836 96.3201 67.8138C94.9197 67.4782 93.5641 66.9778 92.2815 66.3232C92.1665 66.2657 92.0515 66.2041 91.9366 66.1445C91.7661 66.0542 91.5999 65.9598 91.4336 65.8612C91.5136 65.7503 91.5999 65.6415 91.6881 65.5348C92.6489 64.3442 93.8497 63.3694 95.2124 62.6739C96.5751 61.9785 98.069 61.578 99.5968 61.4986C101.125 61.4191 102.652 61.6626 104.08 62.213C105.507 62.7634 106.802 63.6084 107.881 64.693C108.256 65.0688 108.603 65.4709 108.92 65.8961C109.004 66.007 109.085 66.1199 109.163 66.2349Z" fill="#4267B2"/>
<path d="M101.045 57.2159C106.024 57.2159 110.06 53.1796 110.06 48.2006C110.06 43.2215 106.024 39.1852 101.045 39.1852C96.066 39.1852 92.0297 43.2215 92.0297 48.2006C92.0297 53.1796 96.066 57.2159 101.045 57.2159Z" fill="#2F2E41"/>
<path d="M103.442 57.229C106.694 55.4515 107.889 51.3746 106.111 48.1229C104.334 44.8713 100.257 43.6763 97.0052 45.4538C93.7535 47.2313 92.5585 51.3082 94.336 54.5598C96.1135 57.8115 100.19 59.0065 103.442 57.229Z" fill="#A0616A"/>
<path d="M107.274 47.1207C105.741 48.1775 103.921 48.74 102.059 48.7325C102.723 49.1931 103.479 49.5042 104.275 49.6444C101.799 50.1755 99.2403 50.1899 96.7585 49.6867C96.2069 49.5982 95.6746 49.4154 95.185 49.1462C94.941 49.01 94.7284 48.8239 94.5611 48.6001C94.3938 48.3763 94.2754 48.1198 94.2137 47.8473C94.0488 46.9052 94.7829 46.0492 95.5458 45.4724C96.7139 44.6027 98.0606 44.0035 99.4887 43.7181C100.917 43.4327 102.39 43.4684 103.803 43.8224C104.725 44.0608 105.649 44.4637 106.248 45.2044C106.847 45.9451 107.025 47.0871 106.454 47.8498L107.274 47.1207Z" fill="#2F2E41"/>
<path d="M100.636 31.3664C96.6059 31.3658 92.6863 32.6828 89.4744 35.1168C86.2625 37.5507 83.9345 40.968 82.8452 44.8479C81.7559 48.7278 81.965 52.8574 83.4406 56.6074C84.9163 60.3574 87.5775 63.5221 91.0188 65.6192L91.1379 65.689C91.2365 65.7486 91.335 65.806 91.4336 65.8615C91.5999 65.96 91.7661 66.0545 91.9366 66.1448C92.0515 66.2043 92.1665 66.2659 92.2815 66.3234C93.5641 66.9781 94.9197 67.4784 96.3201 67.814C96.6096 67.8838 96.899 67.9475 97.1948 68.0009C98.3292 68.2158 99.4812 68.3237 100.636 68.3232C100.927 68.3232 101.217 68.317 101.506 68.3027C101.913 68.2842 102.315 68.252 102.714 68.2062C103.196 68.1528 103.672 68.0802 104.143 67.9885C105.092 67.8057 106.026 67.5483 106.935 67.2186C107.05 67.1755 107.165 67.1324 107.278 67.0892C107.588 66.9702 107.892 66.8429 108.191 66.7074C108.52 66.5595 108.844 66.4021 109.163 66.2351C112.359 64.5612 115.001 61.9958 116.767 58.8499C116.776 58.8335 116.786 58.8171 116.794 58.8007C117.737 57.1092 118.405 55.279 118.775 53.3783C119.295 50.7025 119.216 47.945 118.545 45.3031C117.874 42.6613 116.627 40.2005 114.894 38.097C113.16 35.9935 110.983 34.2993 108.518 33.1357C106.053 31.9721 103.362 31.3679 100.636 31.3664H100.636ZM116.457 58.5604C116.441 58.5892 116.427 58.6179 116.41 58.6446C114.679 61.744 112.074 64.2659 108.92 65.8964C108.606 66.0606 108.286 66.2146 107.961 66.3583C107.693 66.4795 107.417 66.5944 107.14 66.7012C107.023 66.7464 106.904 66.7915 106.785 66.8326C106 67.1195 105.195 67.35 104.377 67.5225C103.77 67.6517 103.156 67.7483 102.539 67.812C102.159 67.853 101.773 67.8818 101.385 67.8961C101.137 67.9064 100.886 67.9126 100.636 67.9126C99.5185 67.9139 98.4035 67.8101 97.3056 67.6025C96.6377 67.4794 95.9775 67.3176 95.3284 67.118C94.3395 66.8125 93.3786 66.423 92.456 65.9539C92.3493 65.8984 92.2425 65.843 92.1377 65.7855C91.9879 65.7054 91.836 65.6233 91.6881 65.535C91.5772 65.4734 91.4664 65.4077 91.3576 65.342C91.2939 65.3051 91.2303 65.2661 91.1666 65.227C88.1494 63.3741 85.7426 60.6762 84.2448 57.4678C82.747 54.2595 82.2241 50.6821 82.7409 47.1793C83.2578 43.6765 84.7917 40.4025 87.1523 37.7635C89.5129 35.1245 92.5964 33.2367 96.0202 32.3342C99.444 31.4317 103.057 31.5543 106.412 32.6867C109.767 33.8191 112.715 35.9115 114.892 38.7044C117.068 41.4972 118.377 44.8676 118.655 48.3974C118.933 51.9272 118.169 55.461 116.457 58.5604H116.457Z" fill="#3F3D56"/>
<path d="M96.4779 39.3099C96.3809 38.2899 95.1313 37.6619 94.1542 37.97C93.177 38.2781 92.5354 39.262 92.3415 40.2681C92.2482 40.6918 92.2394 41.1298 92.3157 41.5569C92.392 41.984 92.5519 42.3918 92.7861 42.757C93.28 43.4679 94.1877 43.9115 95.0343 43.7311C96.0007 43.5251 96.6703 42.5814 96.8619 41.612C97.0534 40.6426 96.8632 39.6432 96.6733 38.6734L96.4779 39.3099Z" fill="#2F2E41"/>
<path d="M110.232 40.7668C110.135 39.7468 108.885 39.1189 107.908 39.427C106.931 39.7351 106.289 40.719 106.095 41.7251C106.002 42.1488 105.993 42.5868 106.07 43.0139C106.146 43.441 106.306 43.8488 106.54 44.214C107.034 44.9249 107.942 45.3685 108.788 45.188C109.755 44.982 110.424 44.0384 110.616 43.069C110.807 42.0996 110.617 41.1001 110.427 40.1304L110.232 40.7668Z" fill="#2F2E41"/>
<path d="M68.6953 57.229C68.5674 57.2289 68.441 57.2021 68.3241 57.1503C68.2072 57.0985 68.1024 57.0229 68.0164 56.9283L57.8282 45.8139C57.7126 45.6881 57.5721 45.5876 57.4157 45.5188C57.2593 45.4499 57.0903 45.4143 56.9194 45.4141H3.08164C2.26462 45.4132 1.48132 45.0882 0.903603 44.5105C0.325883 43.9328 0.000917306 43.1495 0 42.3325V22.9173C0.000916762 22.1003 0.325883 21.317 0.903603 20.7393C1.48132 20.1616 2.26462 19.8366 3.08164 19.8357H72.8325C73.6495 19.8366 74.4328 20.1616 75.0106 20.7393C75.5883 21.317 75.9132 22.1003 75.9142 22.9173V42.3325C75.9132 43.1495 75.5883 43.9328 75.0106 44.5105C74.4328 45.0882 73.6495 45.4132 72.8325 45.4141H70.855C70.5282 45.4145 70.2148 45.5445 69.9837 45.7757C69.7526 46.0068 69.6226 46.3202 69.6222 46.647V56.3037C69.623 56.4901 69.5671 56.6724 69.4618 56.8262C69.3565 56.9801 69.207 57.0983 69.0329 57.1651C68.9253 57.2072 68.8108 57.2289 68.6953 57.229Z" fill="white"/>
<path d="M68.6953 57.229C68.5674 57.2289 68.441 57.2021 68.3241 57.1503C68.2072 57.0985 68.1024 57.0229 68.0164 56.9283L57.8282 45.8139C57.7126 45.6881 57.5721 45.5876 57.4157 45.5188C57.2593 45.4499 57.0903 45.4143 56.9194 45.4141H3.08164C2.26462 45.4132 1.48132 45.0882 0.903603 44.5105C0.325883 43.9328 0.000917306 43.1495 0 42.3325V22.9173C0.000916762 22.1003 0.325883 21.317 0.903603 20.7393C1.48132 20.1616 2.26462 19.8366 3.08164 19.8357H72.8325C73.6495 19.8366 74.4328 20.1616 75.0106 20.7393C75.5883 21.317 75.9132 22.1003 75.9142 22.9173V42.3325C75.9132 43.1495 75.5883 43.9328 75.0106 44.5105C74.4328 45.0882 73.6495 45.4132 72.8325 45.4141H70.855C70.5282 45.4145 70.2148 45.5445 69.9837 45.7757C69.7526 46.0068 69.6226 46.3202 69.6222 46.647V56.3037C69.623 56.4901 69.5671 56.6724 69.4618 56.8262C69.3565 56.9801 69.207 57.0983 69.0329 57.1651C68.9253 57.2072 68.8108 57.2289 68.6953 57.229ZM3.08164 20.2463C2.37349 20.2471 1.69457 20.5288 1.19383 21.0295C0.693094 21.5303 0.411431 22.2092 0.410631 22.9173V42.3325C0.411432 43.0406 0.693098 43.7196 1.19384 44.2203C1.69457 44.721 2.37349 45.0027 3.08164 45.0035H56.9194C57.1472 45.0037 57.3725 45.0512 57.581 45.143C57.7895 45.2347 57.9767 45.3687 58.1308 45.5364L68.319 56.6508C68.389 56.7271 68.4804 56.7805 68.5812 56.804C68.682 56.8275 68.7876 56.82 68.884 56.7825C68.9805 56.745 69.0634 56.6792 69.1218 56.5937C69.1803 56.5083 69.2116 56.4072 69.2116 56.3037V46.647C69.2121 46.2113 69.3854 45.7935 69.6935 45.4854C70.0016 45.1773 70.4193 45.004 70.855 45.0035H72.8325C73.5407 45.0027 74.2196 44.721 74.7203 44.2203C75.221 43.7196 75.5027 43.0406 75.5035 42.3325V22.9173C75.5027 22.2092 75.2211 21.5303 74.7203 21.0295C74.2196 20.5288 73.5407 20.2471 72.8325 20.2463H3.08164Z" fill="#3F3D56"/>
<path d="M7.55916 28.4009C9.04843 28.4009 10.2557 27.1936 10.2557 25.7044C10.2557 24.2151 9.04843 23.0078 7.55916 23.0078C6.0699 23.0078 4.86261 24.2151 4.86261 25.7044C4.86261 27.1936 6.0699 28.4009 7.55916 28.4009Z" fill="#4267B2"/>
<path d="M69.6863 40.6253H6.22739C6.03838 40.6255 5.85119 40.5885 5.6765 40.5163C5.50182 40.4441 5.34307 40.3382 5.20934 40.2047C5.07562 40.0711 4.96953 39.9125 4.89714 39.7379C4.82476 39.5633 4.78751 39.3761 4.78751 39.1871C4.78751 38.9981 4.82476 38.811 4.89714 38.6364C4.96953 38.4618 5.07562 38.3031 5.20934 38.1696C5.34307 38.036 5.50182 37.9301 5.6765 37.8579C5.85119 37.7858 6.03838 37.7487 6.22739 37.749H69.6863C70.0674 37.7494 70.4328 37.9011 70.7021 38.1708C70.9715 38.4404 71.1228 38.806 71.1228 39.1871C71.1228 39.5682 70.9715 39.9338 70.7021 40.2034C70.4328 40.4731 70.0674 40.6248 69.6863 40.6253Z" fill="#E6E6E6"/>
<path d="M49.0127 34.513H6.22739C6.03838 34.5132 5.85119 34.4762 5.6765 34.404C5.50182 34.3318 5.34307 34.2259 5.20934 34.0924C5.07562 33.9588 4.96953 33.8002 4.89714 33.6256C4.82476 33.451 4.78751 33.2638 4.78751 33.0748C4.78751 32.8858 4.82476 32.6987 4.89714 32.5241C4.96953 32.3495 5.07562 32.1909 5.20934 32.0573C5.34307 31.9237 5.50182 31.8178 5.6765 31.7456C5.85119 31.6735 6.03838 31.6364 6.22739 31.6367H49.0127C49.3941 31.6367 49.7599 31.7882 50.0297 32.0579C50.2994 32.3276 50.4509 32.6934 50.4509 33.0748C50.4509 33.4563 50.2994 33.8221 50.0297 34.0918C49.7599 34.3615 49.3941 34.513 49.0127 34.513Z" fill="#E6E6E6"/>
<path d="M113.965 123.072C113.791 123.005 113.641 122.887 113.536 122.733C113.431 122.579 113.375 122.397 113.376 122.21V112.553C113.375 112.227 113.245 111.913 113.014 111.682C112.783 111.451 112.47 111.321 112.143 111.321H110.165C109.348 111.32 108.565 110.995 107.987 110.417C107.41 109.839 107.085 109.056 107.084 108.239V88.8238C107.085 88.0068 107.41 87.2235 107.987 86.6458C108.565 86.068 109.348 85.7431 110.165 85.7422H179.916C180.733 85.7431 181.517 86.068 182.094 86.6458C182.672 87.2235 182.997 88.0068 182.998 88.8238V108.239C182.997 109.056 182.672 109.839 182.094 110.417C181.517 110.995 180.733 111.32 179.916 111.321H126.078C125.908 111.321 125.739 111.356 125.582 111.425C125.426 111.494 125.285 111.595 125.17 111.72L114.981 122.835C114.895 122.929 114.791 123.005 114.674 123.057C114.557 123.109 114.43 123.135 114.303 123.135C114.187 123.135 114.073 123.114 113.965 123.072Z" fill="white"/>
<path d="M113.965 123.072C113.791 123.005 113.641 122.887 113.536 122.733C113.431 122.579 113.375 122.397 113.376 122.21V112.553C113.375 112.227 113.245 111.913 113.014 111.682C112.783 111.451 112.47 111.321 112.143 111.321H110.165C109.348 111.32 108.565 110.995 107.987 110.417C107.41 109.839 107.085 109.056 107.084 108.239V88.8238C107.085 88.0068 107.41 87.2235 107.987 86.6458C108.565 86.068 109.348 85.7431 110.165 85.7422H179.916C180.733 85.7431 181.517 86.068 182.094 86.6458C182.672 87.2235 182.997 88.0068 182.998 88.8238V108.239C182.997 109.056 182.672 109.839 182.094 110.417C181.517 110.995 180.733 111.32 179.916 111.321H126.078C125.908 111.321 125.739 111.356 125.582 111.425C125.426 111.494 125.285 111.595 125.17 111.72L114.981 122.835C114.895 122.929 114.791 123.005 114.674 123.057C114.557 123.109 114.43 123.135 114.303 123.135C114.187 123.135 114.073 123.114 113.965 123.072ZM110.165 86.1528C109.457 86.1536 108.778 86.4353 108.278 86.936C107.777 87.4367 107.495 88.1156 107.494 88.8238V108.239C107.495 108.947 107.777 109.626 108.278 110.127C108.778 110.627 109.457 110.909 110.165 110.91H112.143C112.579 110.91 112.996 111.084 113.304 111.392C113.613 111.7 113.786 112.118 113.786 112.553V122.21C113.786 122.314 113.818 122.415 113.876 122.5C113.934 122.586 114.017 122.651 114.114 122.689C114.21 122.726 114.316 122.734 114.417 122.71C114.518 122.687 114.609 122.634 114.679 122.557L124.867 111.443C125.021 111.275 125.208 111.141 125.417 111.049C125.625 110.958 125.851 110.91 126.078 110.91H179.916C180.624 110.909 181.303 110.627 181.804 110.127C182.305 109.626 182.586 108.947 182.587 108.239V88.8238C182.586 88.1156 182.305 87.4367 181.804 86.936C181.303 86.4353 180.624 86.1536 179.916 86.1528H110.165Z" fill="#3F3D56"/>
<path d="M92.2233 129.084C89.3629 130.916 86.0489 131.915 82.6528 131.969C79.2567 132.023 75.9126 131.13 72.9954 129.39C73.5086 128.435 74.1589 127.56 74.9255 126.793C76.1083 125.604 77.5479 124.703 79.1335 124.157C80.7192 123.612 82.4087 123.438 84.0724 123.647C85.736 123.857 87.3295 124.445 88.7304 125.366C90.1313 126.288 91.3023 127.518 92.1534 128.963C92.176 129.002 92.2006 129.043 92.2233 129.084Z" fill="#4267B2"/>
<path d="M81.8078 119.266C86.82 119.266 90.8831 115.203 90.8831 110.191C90.8831 105.179 86.82 101.115 81.8078 101.115C76.7957 101.115 72.7326 105.179 72.7326 110.191C72.7326 115.203 76.7957 119.266 81.8078 119.266Z" fill="#2F2E41"/>
<path d="M88.5597 116.592C90.349 113.318 89.1461 109.214 85.8728 107.425C82.5995 105.636 78.4955 106.839 76.7062 110.112C74.9169 113.385 76.1198 117.489 79.3931 119.279C82.6664 121.068 86.7704 119.865 88.5597 116.592Z" fill="#FFB8B8"/>
<path d="M75.5362 109.103C77.0797 110.167 78.9118 110.733 80.7863 110.726C80.1176 111.189 79.3564 111.503 78.555 111.644C81.0474 112.178 83.6233 112.193 86.1216 111.686C86.6769 111.597 87.2127 111.413 87.7056 111.142C87.9512 111.005 88.1651 110.818 88.3336 110.593C88.502 110.367 88.6212 110.109 88.6833 109.835C88.8493 108.886 88.1103 108.025 87.3423 107.444C86.1665 106.569 84.8108 105.965 83.3733 105.678C81.9358 105.391 80.4524 105.427 79.0304 105.783C78.1019 106.023 77.1717 106.429 76.5686 107.174C75.9656 107.92 75.7869 109.069 76.3615 109.837L75.5362 109.103Z" fill="#2F2E41"/>
<path d="M82.3614 132.176C77.9168 132.174 73.6218 130.57 70.2641 127.658C66.9063 124.746 64.7111 120.721 64.081 116.322C63.451 111.922 64.4283 107.443 66.8338 103.705C69.2393 99.9679 72.9117 97.2231 77.1772 95.9744C81.4428 94.7257 86.0156 95.0568 90.0568 96.9069C94.098 98.7571 97.3366 102.002 99.1787 106.047C101.021 110.092 101.343 114.665 100.085 118.928C98.8281 123.192 96.0759 126.858 92.3338 129.256C89.3579 131.165 85.8965 132.178 82.3614 132.176ZM82.3614 95.6295C78.7875 95.6292 75.2937 96.6887 72.3219 98.6741C69.3501 100.659 67.0339 103.481 65.666 106.783C64.2982 110.085 63.9402 113.718 64.6374 117.224C65.3345 120.729 67.0555 123.949 69.5827 126.476C72.1098 129.003 75.3297 130.724 78.835 131.421C82.3402 132.119 85.9736 131.761 89.2754 130.393C92.5772 129.025 95.3993 126.709 97.3846 123.737C99.37 120.765 100.43 117.271 100.429 113.697C100.424 108.907 98.5185 104.315 95.1313 100.927C91.7441 97.5402 87.1516 95.6349 82.3614 95.6295Z" fill="#3F3D56"/>
<path d="M115.762 94.1016C117.251 94.1016 118.458 92.8944 118.458 91.4051C118.458 89.9158 117.251 88.7085 115.762 88.7085C114.272 88.7085 113.065 89.9158 113.065 91.4051C113.065 92.8944 114.272 94.1016 115.762 94.1016Z" fill="#4267B2"/>
<path d="M177.889 106.326H114.43C114.241 106.326 114.054 106.289 113.879 106.217C113.704 106.145 113.545 106.039 113.412 105.905C113.278 105.772 113.172 105.613 113.1 105.439C113.027 105.264 112.99 105.077 112.99 104.888C112.99 104.699 113.027 104.512 113.1 104.337C113.172 104.162 113.278 104.004 113.412 103.87C113.545 103.737 113.704 103.631 113.879 103.559C114.054 103.486 114.241 103.449 114.43 103.45H177.889C178.27 103.45 178.636 103.601 178.906 103.871C179.175 104.141 179.327 104.506 179.327 104.888C179.327 105.269 179.175 105.635 178.906 105.905C178.636 106.174 178.27 106.326 177.889 106.326Z" fill="#E6E6E6"/>
<path d="M157.215 100.214H114.43C114.241 100.214 114.054 100.177 113.879 100.105C113.704 100.033 113.545 99.9267 113.412 99.7931C113.278 99.6595 113.172 99.5009 113.1 99.3263C113.027 99.1517 112.99 98.9646 112.99 98.7756C112.99 98.5866 113.027 98.3994 113.1 98.2248C113.172 98.0502 113.278 97.8916 113.412 97.758C113.545 97.6244 113.704 97.5186 113.879 97.4464C114.054 97.3742 114.241 97.3372 114.43 97.3374H157.215C157.596 97.3379 157.962 97.4896 158.231 97.7592C158.5 98.0289 158.652 98.3944 158.652 98.7756C158.652 99.1567 158.5 99.5222 158.231 99.7919C157.962 100.062 157.596 100.213 157.215 100.214Z" fill="#E6E6E6"/>
<path d="M113.876 124.91C116.655 124.91 118.907 124.66 118.907 124.351C118.907 124.043 116.655 123.793 113.876 123.793C111.098 123.793 108.845 124.043 108.845 124.351C108.845 124.66 111.098 124.91 113.876 124.91Z" fill="#F2F2F2"/>
<path d="M68.913 59.2091C71.6916 59.2091 73.944 58.9591 73.944 58.6507C73.944 58.3423 71.6916 58.0923 68.913 58.0923C66.1344 58.0923 63.8819 58.3423 63.8819 58.6507C63.8819 58.9591 66.1344 59.2091 68.913 59.2091Z" fill="#F2F2F2"/>
</g>
<defs>
<clipPath id="clip0">
<rect width="182.997" height="153" fill="white"/>
</clipPath>
</defs>
</svg>
