<svg width="20" height="20" viewBox="0 0 20 20" fill="none" xmlns="http://www.w3.org/2000/svg">
<path d="M13.3335 3.33334H15.0002C15.4422 3.33334 15.8661 3.50893 16.1787 3.82149C16.4912 4.13405 16.6668 4.55798 16.6668 5V16.6667C16.6668 17.1087 16.4912 17.5326 16.1787 17.8452C15.8661 18.1577 15.4422 18.3333 15.0002 18.3333H5.00016C4.55814 18.3333 4.13421 18.1577 3.82165 17.8452C3.50909 17.5326 3.3335 17.1087 3.3335 16.6667V5C3.3335 4.55798 3.50909 4.13405 3.82165 3.82149C4.13421 3.50893 4.55814 3.33334 5.00016 3.33334H6.66683" stroke="#363B64" stroke-width="2" stroke-linecap="round" stroke-linejoin="round"/>
<path d="M12.4998 1.66666H7.49984C7.0396 1.66666 6.6665 2.03976 6.6665 2.5V4.16666C6.6665 4.6269 7.0396 5 7.49984 5H12.4998C12.9601 5 13.3332 4.6269 13.3332 4.16666V2.5C13.3332 2.03976 12.9601 1.66666 12.4998 1.66666Z" stroke="#363B64" stroke-width="2" stroke-linecap="round" stroke-linejoin="round"/>
</svg>
