<svg width="45" height="49" viewBox="0 0 45 49" fill="none" xmlns="http://www.w3.org/2000/svg">
<path d="M7.8 0L0 7.8V48H36V0H7.8Z" fill="#EAF4FE"/>
<path d="M0 15.8V8H7.8" fill="#C5E1F9"/>
<path d="M7.8 0V7.8H0" fill="#3A3A3A"/>
<path d="M21.7002 34.1H12.7002" stroke="#9AC7F7" stroke-width="2"/>
<path d="M10.7002 34.1H6.7002" stroke="#9AC7F7" stroke-width="2"/>
<path d="M13.7002 28.1H6.7002" stroke="#9AC7F7" stroke-width="2"/>
<path d="M15.7002 40.1H9.7002" stroke="#9AC7F7" stroke-width="2"/>
<path d="M33.7002 14.1H27.7002V17.1H33.7002V14.1Z" stroke="#0561FC" stroke-width="2"/>
<path d="M30.7002 21.1V17.1" stroke="#0561FC" stroke-width="2"/>
<path d="M38.7002 24.1L42.2002 20.6" stroke="#0561FC" stroke-width="2"/>
<path d="M40.7002 19.1L43.7002 22.1" stroke="#0561FC" stroke-width="2"/>
<path d="M30.3 47.4C37.6454 47.4 43.6 41.4454 43.6 34.1C43.6 26.7546 37.6454 20.8 30.3 20.8C22.9546 20.8 17 26.7546 17 34.1C17 41.4454 22.9546 47.4 30.3 47.4Z" fill="#C5E1F9" stroke="#0561FC" stroke-width="2.0814"/>
<path d="M32.7002 26.3C36.2002 27.2 38.7002 30.3 38.7002 34" stroke="#FD2227" stroke-width="2"/>
<path d="M30.7002 35.1V24.1" stroke="#0561FC" stroke-width="2"/>
</svg>
