<svg width="40" height="40" viewBox="0 0 40 40" fill="none" xmlns="http://www.w3.org/2000/svg">
<path d="M19.9999 36.6667C16.7036 36.6667 13.4812 35.6892 10.7404 33.8578C7.9996 32.0265 5.86339 29.4235 4.60193 26.3781C3.34047 23.3326 3.01042 19.9815 3.6535 16.7485C4.29659 13.5155 5.88394 10.5458 8.21481 8.21489C10.5457 5.88401 13.5154 4.29666 16.7484 3.65358C19.9814 3.01049 23.3325 3.34055 26.378 4.60201C29.4234 5.86347 32.0264 7.99968 33.8577 10.7405C35.6891 13.4813 36.6666 16.7036 36.6666 20C36.6617 24.4188 34.9042 28.6552 31.7797 31.7798C28.6551 34.9043 24.4187 36.6618 19.9999 36.6667ZM19.9999 6.66667C17.3628 6.66667 14.785 7.44865 12.5923 8.91374C10.3997 10.3788 8.6907 12.4612 7.68153 14.8976C6.67236 17.3339 6.40832 20.0148 6.92279 22.6012C7.43726 25.1876 8.70714 27.5634 10.5718 29.4281C12.4365 31.2928 14.8123 32.5627 17.3987 33.0771C19.9851 33.5916 22.666 33.3276 25.1024 32.3184C27.5387 31.3092 29.6211 29.6003 31.0862 27.4076C32.5513 25.2149 33.3333 22.6371 33.3333 20C33.3293 16.465 31.9233 13.0759 29.4236 10.5763C26.924 8.07667 23.5349 6.67064 19.9999 6.66667Z" fill="#4267B2"/>
<path d="M21.6667 26.6667H16.6667C16.2246 26.6667 15.8007 26.4911 15.4882 26.1785C15.1756 25.866 15 25.442 15 25C15 24.558 15.1756 24.1341 15.4882 23.8215C15.8007 23.5089 16.2246 23.3333 16.6667 23.3333H21.6667V21.6667H18.3333C17.4493 21.6667 16.6014 21.3155 15.9763 20.6904C15.3512 20.0652 15 19.2174 15 18.3333V16.6667C15 15.7826 15.3512 14.9348 15.9763 14.3096C16.6014 13.6845 17.4493 13.3333 18.3333 13.3333H23.3333C23.7754 13.3333 24.1993 13.5089 24.5118 13.8215C24.8244 14.1341 25 14.558 25 15C25 15.442 24.8244 15.866 24.5118 16.1785C24.1993 16.4911 23.7754 16.6667 23.3333 16.6667H18.3333V18.3333H21.6667C22.5507 18.3333 23.3986 18.6845 24.0237 19.3096C24.6488 19.9348 25 20.7826 25 21.6667V23.3333C25 24.2174 24.6488 25.0652 24.0237 25.6904C23.3986 26.3155 22.5507 26.6667 21.6667 26.6667Z" fill="#4267B2"/>
<path d="M19.9999 16.6667C19.5579 16.6667 19.134 16.4911 18.8214 16.1785C18.5088 15.8659 18.3333 15.442 18.3333 15V13.3333C18.3333 12.8913 18.5088 12.4674 18.8214 12.1548C19.134 11.8423 19.5579 11.6667 19.9999 11.6667C20.4419 11.6667 20.8659 11.8423 21.1784 12.1548C21.491 12.4674 21.6666 12.8913 21.6666 13.3333V15C21.6666 15.442 21.491 15.8659 21.1784 16.1785C20.8659 16.4911 20.4419 16.6667 19.9999 16.6667ZM19.9999 28.3333C19.5579 28.3333 19.134 28.1577 18.8214 27.8452C18.5088 27.5326 18.3333 27.1087 18.3333 26.6667V25C18.3333 24.558 18.5088 24.134 18.8214 23.8215C19.134 23.5089 19.5579 23.3333 19.9999 23.3333C20.4419 23.3333 20.8659 23.5089 21.1784 23.8215C21.491 24.134 21.6666 24.558 21.6666 25V26.6667C21.6666 27.1087 21.491 27.5326 21.1784 27.8452C20.8659 28.1577 20.4419 28.3333 19.9999 28.3333Z" fill="#4267B2"/>
</svg>
