<svg width="34" height="34" viewBox="0 0 34 34" fill="none" xmlns="http://www.w3.org/2000/svg">
<path d="M28.8133 5.35528C28.8011 5.34226 28.7974 5.32496 28.7847 5.31224C28.772 5.29953 28.7544 5.29566 28.7413 5.28336C25.6238 2.17595 21.4017 0.431061 17 0.431061C12.5984 0.431061 8.37626 2.17595 5.25881 5.28336C5.2457 5.29566 5.2282 5.29943 5.21538 5.31224C5.20256 5.32506 5.199 5.34224 5.1868 5.35528C2.86389 7.68931 1.28446 10.6592 0.647824 13.89C0.0111901 17.1208 0.345893 20.4678 1.60969 23.5086C2.87349 26.5494 5.00974 29.1477 7.74883 30.9755C10.4879 32.8034 13.7071 33.7789 17 33.7789C20.293 33.7789 23.5122 32.8034 26.2513 30.9755C28.9904 29.1477 31.1266 26.5494 32.3904 23.5086C33.6542 20.4678 33.9889 17.1208 33.3523 13.89C32.7156 10.6592 31.1362 7.68931 28.8133 5.35528ZM17 30.4311C15.0037 30.4304 13.0332 29.9807 11.2344 29.1151C9.43558 28.2496 7.8545 26.9905 6.6083 25.4311H13.3004C13.7639 25.955 14.3334 26.3745 14.9711 26.6618C15.6089 26.9491 16.3005 27.0977 17 27.0977C17.6995 27.0977 18.391 26.9491 19.0288 26.6618C19.6666 26.3745 20.236 25.955 20.6995 25.4311H27.3917C26.1455 26.9905 24.5644 28.2496 22.7656 29.1152C20.9667 29.9807 18.9962 30.4304 17 30.4311ZM15.3333 22.0977C15.3333 21.7681 15.431 21.4459 15.6142 21.1718C15.7973 20.8977 16.0576 20.6841 16.3622 20.5579C16.6667 20.4318 17.0018 20.3988 17.3251 20.4631C17.6484 20.5274 17.9454 20.6861 18.1785 20.9192C18.4116 21.1523 18.5703 21.4493 18.6346 21.7726C18.6989 22.0959 18.6659 22.431 18.5398 22.7355C18.4136 23.0401 18.2 23.3004 17.9259 23.4835C17.6518 23.6666 17.3296 23.7644 17 23.7644C16.5581 23.764 16.1344 23.5882 15.8219 23.2757C15.5095 22.9633 15.3337 22.5396 15.3333 22.0977ZM29.3503 22.1012L29.3331 22.0977H22C21.9968 21.0671 21.6747 20.0627 21.0779 19.2224C20.481 18.3822 19.6387 17.7473 18.6666 17.4048V12.0977C18.6666 11.6557 18.491 11.2318 18.1785 10.9192C17.8659 10.6067 17.442 10.4311 17 10.4311C16.5579 10.4311 16.134 10.6067 15.8215 10.9192C15.5089 11.2318 15.3333 11.6557 15.3333 12.0977V17.4048C14.3612 17.7473 13.5189 18.3822 12.9221 19.2224C12.3252 20.0627 12.0031 21.0671 12 22.0977H4.6668L4.6496 22.1012C4.21609 21.0316 3.92455 19.9097 3.7824 18.7644H5.3333C5.77533 18.7644 6.19925 18.5888 6.51181 18.2762C6.82437 17.9637 6.99997 17.5398 6.99997 17.0977C6.99997 16.6557 6.82437 16.2318 6.51181 15.9192C6.19925 15.6067 5.77533 15.4311 5.3333 15.4311H3.7824C4.08021 13.062 5.01255 10.8174 6.48087 8.93458L7.57207 10.0258C7.72681 10.1805 7.91053 10.3033 8.11272 10.387C8.3149 10.4708 8.53161 10.5139 8.75045 10.5139C8.9693 10.5139 9.18601 10.4708 9.38819 10.387C9.59038 10.3033 9.77409 10.1805 9.92884 10.0258C10.0836 9.87104 10.2063 9.68732 10.2901 9.48514C10.3738 9.28295 10.4169 9.06624 10.4169 8.84739C10.4169 8.62855 10.3738 8.41185 10.2901 8.20966C10.2063 8.00747 10.0836 7.82376 9.92883 7.66901L8.83773 6.57791C10.7204 5.11008 12.9647 4.17801 15.3333 3.88016V5.43106C15.3333 5.87309 15.5089 6.29701 15.8215 6.60957C16.134 6.92213 16.5579 7.09773 17 7.09773C17.442 7.09773 17.8659 6.92213 18.1785 6.60957C18.491 6.29701 18.6666 5.87309 18.6666 5.43106V3.88016C21.0353 4.17801 23.2795 5.11008 25.1622 6.57791L24.0711 7.66901C23.7586 7.98154 23.583 8.40541 23.583 8.84739C23.583 9.28938 23.7586 9.71325 24.0711 10.0258C24.3836 10.3383 24.8075 10.5139 25.2495 10.5139C25.6915 10.5139 26.1153 10.3383 26.4279 10.0258L27.5191 8.93458C28.9874 10.8174 29.9197 13.062 30.2175 15.4311H28.6666C28.2246 15.4311 27.8007 15.6067 27.4881 15.9192C27.1756 16.2318 27 16.6557 27 17.0977C27 17.5398 27.1756 17.9637 27.4881 18.2762C27.8007 18.5888 28.2246 18.7644 28.6666 18.7644H30.2175C30.0754 19.9097 29.7838 21.0316 29.3503 22.1012Z" fill="#4267B2"/>
</svg>
