<svg width="35" height="21" viewBox="0 0 35 21" fill="none" xmlns="http://www.w3.org/2000/svg">
<path d="M17.5 0L17.1501 0.109495L3.17694 4.9365L0 6.01647L1.85005 6.62733V16.7124C1.18269 17.1124 0.732194 17.8419 0.732194 18.6948C0.732194 19.3062 0.967741 19.8925 1.38702 20.3248C1.80629 20.7571 2.37495 21 2.9679 21C3.56085 21 4.12951 20.7571 4.54879 20.3248C4.96806 19.8925 5.20361 19.3062 5.20361 18.6948C5.20361 17.8419 4.75311 17.1124 4.08575 16.7124V7.42261L6.32146 8.17755V14.0845C6.32146 15.0296 6.88039 15.8134 7.54439 16.3551C8.2084 16.8934 9.03338 17.2737 10.0238 17.6149C12.0069 18.2949 14.6204 18.6948 17.5 18.6948C20.3796 18.6948 22.9931 18.296 24.9762 17.6137C25.9666 17.2737 26.7916 16.8934 27.4556 16.354C28.1196 15.8134 28.6785 15.0296 28.6785 14.0845V8.17755L31.8231 7.09643L35 6.01647L31.8219 4.93535L17.8488 0.109495L17.5 0ZM17.5 2.41465L27.9799 6.01647L17.5 9.61828L7.02012 6.01647L17.5 2.41465ZM8.55717 8.97053L17.1512 11.9234L17.5 12.0318L17.8499 11.9223L26.4428 8.96937V14.0845C26.4428 14.096 26.4473 14.2297 26.0929 14.5167C25.7397 14.8049 25.1059 15.1679 24.2764 15.4538C22.6198 16.022 20.1773 16.3897 17.5 16.3897C14.8227 16.3897 12.3802 16.0232 10.7225 15.4526C9.89524 15.1679 9.2603 14.8037 8.90706 14.5167C8.55158 14.2286 8.55717 14.096 8.55717 14.0845V8.96937V8.97053Z" fill="white"/>
</svg>
