<svg width="38" height="29" viewBox="0 0 38 29" fill="none" xmlns="http://www.w3.org/2000/svg">
<path d="M2.33337 13.4311H12.3334C12.7754 13.4311 13.1993 13.2555 13.5119 12.9429C13.8244 12.6303 14 12.2064 14 11.7644V1.76438C14 1.32236 13.8244 0.898433 13.5119 0.585873C13.1993 0.273312 12.7754 0.0977173 12.3334 0.0977173H2.33337C1.89134 0.0977173 1.46742 0.273312 1.15486 0.585873C0.8423 0.898433 0.666706 1.32236 0.666706 1.76438V11.7644C0.666706 12.2064 0.8423 12.6303 1.15486 12.9429C1.46742 13.2555 1.89134 13.4311 2.33337 13.4311ZM4.00004 3.43105H10.6667V10.0977H4.00004V3.43105ZM35.6667 5.09772H19C18.558 5.09772 18.1341 5.27331 17.8215 5.58587C17.509 5.89843 17.3334 6.32236 17.3334 6.76438C17.3334 7.20641 17.509 7.63033 17.8215 7.94289C18.1341 8.25546 18.558 8.43105 19 8.43105H35.6667C36.1087 8.43105 36.5327 8.25546 36.8452 7.94289C37.1578 7.63033 37.3334 7.20641 37.3334 6.76438C37.3334 6.32236 37.1578 5.89843 36.8452 5.58587C36.5327 5.27331 36.1087 5.09772 35.6667 5.09772ZM35.6667 21.7644H19C18.558 21.7644 18.1341 21.94 17.8215 22.2525C17.509 22.5651 17.3334 22.989 17.3334 23.431C17.3334 23.8731 17.509 24.297 17.8215 24.6096C18.1341 24.9221 18.558 25.0977 19 25.0977H35.6667C36.1087 25.0977 36.5327 24.9221 36.8452 24.6096C37.1578 24.297 37.3334 23.8731 37.3334 23.431C37.3334 22.989 37.1578 22.5651 36.8452 22.2525C36.5327 21.94 36.1087 21.7644 35.6667 21.7644ZM5.57004 28.431H5.59004C6.02704 28.4297 6.446 28.2567 6.75671 27.9494L13.5 21.2827C13.6731 21.1338 13.8136 20.951 13.9131 20.7455C14.0125 20.54 14.0687 20.3163 14.0781 20.0882C14.0875 19.8602 14.05 19.6326 13.9678 19.4196C13.8857 19.2067 13.7607 19.0128 13.6005 18.8502C13.4404 18.6875 13.2485 18.5595 13.0369 18.474C12.8252 18.3886 12.5982 18.3475 12.37 18.3533C12.1419 18.3592 11.9173 18.4119 11.7103 18.5081C11.5033 18.6043 11.3183 18.742 11.1667 18.9127L5.61837 24.3944L3.53171 22.2277C3.37948 22.0703 3.19775 21.9445 2.99689 21.8574C2.79604 21.7702 2.57998 21.7235 2.36107 21.7199C1.91895 21.7125 1.49202 21.8811 1.17421 22.1885C0.856388 22.496 0.673713 22.9171 0.666368 23.3592C0.659023 23.8013 0.827609 24.2282 1.13504 24.5461L4.39171 27.9311C4.54547 28.0879 4.72874 28.2129 4.93096 28.2987C5.13318 28.3845 5.35037 28.4295 5.57004 28.431Z" fill="#A098AE"/>
</svg>
