<svg width="28" height="34" viewBox="0 0 28 34" fill="none" xmlns="http://www.w3.org/2000/svg">
<path d="M26.9 10.981L17.8333 0.981048C17.6775 0.808394 17.4872 0.670264 17.2748 0.57554C17.0624 0.480817 16.8325 0.431598 16.6 0.431048H4.93329C4.37954 0.424443 3.82991 0.526981 3.31579 0.732808C2.80167 0.938635 2.33313 1.24372 1.93693 1.63064C1.54072 2.01756 1.22462 2.47873 1.00666 2.98783C0.788696 3.49692 0.673153 4.04396 0.666626 4.59771V29.5977C0.673153 30.1515 0.788696 30.6985 1.00666 31.2076C1.22462 31.7167 1.54072 32.1779 1.93693 32.5648C2.33313 32.9517 2.80167 33.2568 3.31579 33.4626C3.82991 33.6684 4.37954 33.771 4.93329 33.7644H23.0666C23.6204 33.771 24.17 33.6684 24.6841 33.4626C25.1982 33.2568 25.6668 32.9517 26.063 32.5648C26.4592 32.1779 26.7753 31.7167 26.9933 31.2076C27.2112 30.6985 27.3268 30.1515 27.3333 29.5977V12.0977C27.3322 11.6847 27.1778 11.2867 26.9 10.981ZM23.4166 12.0977H16.85C16.5064 12.0639 16.1898 11.8964 15.9685 11.6315C15.7471 11.3665 15.6387 11.0252 15.6666 10.681V3.76438H15.85L23.4166 12.0977ZM23.0666 30.431H4.93329C4.81725 30.4378 4.70101 30.4216 4.59125 30.3833C4.48149 30.3451 4.38035 30.2855 4.29365 30.2081C4.20694 30.1307 4.13636 30.0369 4.08597 29.9322C4.03557 29.8274 4.00634 29.7138 3.99996 29.5977V4.59771C4.00634 4.48165 4.03557 4.36799 4.08597 4.26324C4.13636 4.1585 4.20694 4.06473 4.29365 3.98731C4.38035 3.90989 4.48149 3.85035 4.59125 3.8121C4.70101 3.77384 4.81725 3.75763 4.93329 3.76438H12.3333V10.681C12.3064 11.9088 12.7662 13.0973 13.6124 13.9872C14.4586 14.8771 15.6225 15.3961 16.85 15.431H24V29.5977C23.9936 29.7138 23.9643 29.8274 23.9139 29.9322C23.8636 30.0369 23.793 30.1307 23.7063 30.2081C23.6196 30.2855 23.5184 30.3451 23.4087 30.3833C23.2989 30.4216 23.1827 30.4378 23.0666 30.431Z" fill="#363B64"/>
</svg>
