<svg width="30" height="30" viewBox="0 0 30 30" fill="none" xmlns="http://www.w3.org/2000/svg">
<g clip-path="url(#clip0_1550_1127)">
<path d="M8.64645 16.1464C8.45118 16.3417 8.45118 16.6583 8.64645 16.8536C8.84171 17.0488 9.15829 17.0488 9.35355 16.8536L12.6284 13.5787L17.8291 15.4699C18.0248 15.5411 18.2441 15.4835 18.3796 15.3254L21.3796 11.8254C21.5593 11.6157 21.5351 11.3001 21.3254 11.1204C21.1157 10.9407 20.8001 10.9649 20.6204 11.1746L17.8456 14.4118L12.6709 12.5301C12.4883 12.4637 12.2838 12.5091 12.1464 12.6464L8.64645 16.1464ZM7.972 22.763C7.972 22.6052 7.89754 22.4567 7.77113 22.3623C5.15762 20.4111 3.5 17.4348 3.5 14.111C3.5 8.28668 8.61221 3.5 15 3.5C21.3878 3.5 26.5 8.28668 26.5 14.111C26.5 19.9363 21.3878 24.722 15 24.722C13.8495 24.722 12.7383 24.5652 11.6911 24.276C11.5656 24.2414 11.4316 24.257 11.3175 24.3197L7.972 26.1553V22.763Z" stroke="#4267B2" stroke-linecap="round" stroke-linejoin="round"/>
</g>
<defs>
<clipPath id="clip0_1550_1127">
<rect width="24" height="24" fill="white" transform="translate(3 3)"/>
</clipPath>
</defs>
</svg>
