<svg width="12" height="25" viewBox="0 0 12 25" fill="none" xmlns="http://www.w3.org/2000/svg">
<path d="M0.296 3.12C0.626667 2.81067 0.989333 2.51733 1.384 2.24C1.78933 1.96267 2.22667 1.71733 2.696 1.504C3.176 1.29067 3.688 1.12533 4.232 1.008C4.78667 0.879999 5.384 0.815998 6.024 0.815998C6.86667 0.815998 7.64533 0.938665 8.36 1.184C9.08533 1.42933 9.70933 1.776 10.232 2.224C10.7547 2.672 11.1653 3.216 11.464 3.856C11.7627 4.496 11.912 5.216 11.912 6.016C11.912 6.82667 11.7893 7.52533 11.544 8.112C11.3093 8.69867 11.0053 9.216 10.632 9.664C10.2693 10.1013 9.86933 10.4853 9.432 10.816C9.00533 11.136 8.6 11.44 8.216 11.728C7.832 12.016 7.50133 12.304 7.224 12.592C6.95733 12.88 6.80267 13.2 6.76 13.552L6.472 16H4.52L4.328 13.344C4.28533 12.864 4.376 12.448 4.6 12.096C4.824 11.7333 5.11733 11.3973 5.48 11.088C5.84267 10.768 6.24267 10.4587 6.68 10.16C7.11733 9.85067 7.52267 9.50933 7.896 9.136C8.28 8.76267 8.6 8.34133 8.856 7.872C9.112 7.392 9.24 6.82133 9.24 6.16C9.24 5.70133 9.14933 5.28533 8.968 4.912C8.78667 4.53867 8.54133 4.224 8.232 3.968C7.92267 3.70133 7.55467 3.49867 7.128 3.36C6.712 3.22133 6.264 3.152 5.784 3.152C5.13333 3.152 4.57333 3.232 4.104 3.392C3.64533 3.552 3.256 3.728 2.936 3.92C2.616 4.112 2.35467 4.288 2.152 4.448C1.96 4.608 1.8 4.688 1.672 4.688C1.40533 4.688 1.19733 4.56533 1.048 4.32L0.296 3.12ZM3.416 22.24C3.416 21.9627 3.464 21.7013 3.56 21.456C3.66667 21.2107 3.80533 20.9973 3.976 20.816C4.15733 20.6347 4.37067 20.4907 4.616 20.384C4.86133 20.2773 5.12267 20.224 5.4 20.224C5.67733 20.224 5.93867 20.2773 6.184 20.384C6.42933 20.4907 6.64267 20.6347 6.824 20.816C7.00533 20.9973 7.14933 21.2107 7.256 21.456C7.36267 21.7013 7.416 21.9627 7.416 22.24C7.416 22.528 7.36267 22.7947 7.256 23.04C7.14933 23.2747 7.00533 23.4827 6.824 23.664C6.64267 23.8453 6.42933 23.984 6.184 24.08C5.93867 24.1867 5.67733 24.24 5.4 24.24C5.12267 24.24 4.86133 24.1867 4.616 24.08C4.37067 23.984 4.15733 23.8453 3.976 23.664C3.80533 23.4827 3.66667 23.2747 3.56 23.04C3.464 22.7947 3.416 22.528 3.416 22.24Z" fill="white"/>
</svg>
