<svg width="159" height="57" viewBox="0 0 159 57" fill="none" xmlns="http://www.w3.org/2000/svg">
<path d="M158 1L139.613 7.36487L145.27 10.9009M158 1L145.27 10.9009M158 1L153.757 17.2658L148.099 13.6512M158 1L148.099 13.6512M145.27 10.9009V17.2658L148.099 13.6512" stroke="#EF4F4F" stroke-width="1.41441" stroke-linecap="round" stroke-linejoin="round"/>
<path d="M130.419 47.6757V17.973H136.784V47.6757H130.419Z" fill="#EF4F4F" stroke="#EF4F4F" stroke-width="1.41441" stroke-linecap="round" stroke-linejoin="round"/>
<path d="M21.509 22.9232C21.509 22.9232 21.509 37.1471 21.509 46.2611M21.509 22.9232L40.6036 32.1169L35.6532 49.7971M21.509 22.9232L9.75849 28.5809M21.509 46.2611C17.973 46.9684 18.7807 51.407 15.8514 51.2117C13.1233 51.0298 13.6289 46.4429 10.9009 46.2611C7.97151 46.0658 8.14903 51.6311 5.24324 51.2117C2.72304 50.8479 1 46.2611 1 46.2611M21.509 46.2611C24.3378 46.9684 23.7254 51.2117 26.4595 51.2117C29.1935 51.2117 28.6819 46.4431 31.4099 46.2612C34.3393 46.0659 34.1382 51.407 37.0676 51.2117C39.7956 51.0298 42.018 46.2612 42.018 46.2612M6.65766 49.7971L2.41441 32.1169L9.75849 28.5809M9.75849 28.5809V18.68C9.75849 18.68 16.3507 15.9387 20.8018 15.8511C25.6242 15.7562 32.8243 18.68 32.8243 18.68V27.8737" stroke="#EF4F4F" stroke-width="1.41441" stroke-linecap="round" stroke-linejoin="round"/>
<path d="M56.1621 19.3874H48.3828V48.3829H56.1621V36.3604H58.2837L66.063 48.3829H74.5495L63.9414 33.5316L74.5495 19.3874H66.063L56.1621 32.8244V19.3874Z" fill="#EF4F4F" stroke="#EF4F4F" stroke-width="1.41441" stroke-linecap="round" stroke-linejoin="round"/>
<path d="M99.4096 41.1831H85.1826C85.2746 42.7025 85.8502 43.8651 86.9091 44.6708C87.9796 45.4766 89.5508 45.8794 91.6227 45.8794C92.9349 45.8794 94.2068 45.6435 95.4384 45.1715C96.6701 44.6996 97.6427 44.1931 98.3564 43.6521H99.047V48.642C97.6427 49.206 96.319 49.6146 95.0759 49.8678C93.8327 50.1211 92.4572 50.2477 90.9493 50.2477C87.0588 50.2477 84.0775 49.3729 82.0057 47.6233C79.9338 45.8737 78.8978 43.3816 78.8978 40.1472C78.8978 36.9473 79.8762 34.4149 81.833 32.5502C83.8013 30.674 86.4948 29.7359 89.9134 29.7359C93.0673 29.7359 95.4384 30.5359 97.0269 32.1359C98.6154 33.7243 99.4096 36.0149 99.4096 39.0076V41.1831ZM93.2284 37.54C93.1939 36.2394 92.8716 35.261 92.2615 34.6049C91.6515 33.9488 90.7019 33.6207 89.4127 33.6207C88.2156 33.6207 87.2314 33.9315 86.4602 34.5531C85.689 35.1746 85.2574 36.1703 85.1653 37.54H93.2284Z" fill="#EF4F4F"/>
<path d="M123.455 41.1831H109.228C109.32 42.7025 109.895 43.8651 110.954 44.6708C112.025 45.4766 113.596 45.8794 115.668 45.8794C116.98 45.8794 118.252 45.6435 119.484 45.1715C120.715 44.6996 121.688 44.1931 122.402 43.6521H123.092V48.642C121.688 49.206 120.364 49.6146 119.121 49.8678C117.878 50.1211 116.502 50.2477 114.995 50.2477C111.104 50.2477 108.123 49.3729 106.051 47.6233C103.979 45.8737 102.943 43.3816 102.943 40.1472C102.943 36.9473 103.921 34.4149 105.878 32.5502C107.846 30.674 110.54 29.7359 113.959 29.7359C117.112 29.7359 119.484 30.5359 121.072 32.1359C122.661 33.7243 123.455 36.0149 123.455 39.0076V41.1831ZM117.274 37.54C117.239 36.2394 116.917 35.261 116.307 34.6049C115.697 33.9488 114.747 33.6207 113.458 33.6207C112.261 33.6207 111.277 33.9315 110.505 34.5531C109.734 35.1746 109.303 36.1703 109.21 37.54H117.274Z" fill="#EF4F4F"/>
</svg>